<svg width="45" height="70" viewBox="0 0 45 70" fill="none" xmlns="http://www.w3.org/2000/svg">
<path d="M9.9834 12.2281C9.9834 12.8686 10.2407 13.4829 10.6988 13.9358C11.1568 14.3887 11.778 14.6431 12.4258 14.6431C13.0736 14.6431 13.6948 14.3887 14.1529 13.9358C14.6109 13.4829 14.8682 12.8686 14.8682 12.2281C14.8682 11.5876 14.6109 10.9734 14.1529 10.5205C13.6948 10.0676 13.0736 9.81317 12.4258 9.81317C11.778 9.81317 11.1568 10.0676 10.6988 10.5205C10.2407 10.9734 9.9834 11.5876 9.9834 12.2281Z" fill="#898989"/>
<path d="M19.2012 12.2281C19.2012 12.8686 19.4585 13.4829 19.9165 13.9358C20.3746 14.3887 20.9958 14.6431 21.6436 14.6431C22.2914 14.6431 22.9126 14.3887 23.3706 13.9358C23.8287 13.4829 24.086 12.8686 24.086 12.2281C24.086 11.5876 23.8287 10.9734 23.3706 10.5205C22.9126 10.0676 22.2914 9.81317 21.6436 9.81317C20.9958 9.81317 20.3746 10.0676 19.9165 10.5205C19.4585 10.9734 19.2012 11.5876 19.2012 12.2281Z" fill="#898989"/>
<path d="M9.9834 21.2161C9.9834 21.8566 10.2407 22.4708 10.6988 22.9237C11.1568 23.3766 11.778 23.6311 12.4258 23.6311C13.0736 23.6311 13.6948 23.3766 14.1529 22.9237C14.6109 22.4708 14.8682 21.8566 14.8682 21.2161C14.8682 20.5756 14.6109 19.9614 14.1529 19.5085C13.6948 19.0556 13.0736 18.8011 12.4258 18.8011C11.778 18.8011 11.1568 19.0556 10.6988 19.5085C10.2407 19.9614 9.9834 20.5756 9.9834 21.2161Z" fill="#898989"/>
<path d="M19.2012 21.2161C19.2012 21.8566 19.4585 22.4708 19.9165 22.9237C20.3746 23.3766 20.9958 23.6311 21.6436 23.6311C22.2914 23.6311 22.9126 23.3766 23.3706 22.9237C23.8287 22.4708 24.086 21.8566 24.086 21.2161C24.086 20.5756 23.8287 19.9614 23.3706 19.5085C22.9126 19.0556 22.2914 18.8011 21.6436 18.8011C20.9958 18.8011 20.3746 19.0556 19.9165 19.5085C19.4585 19.9614 19.2012 20.5756 19.2012 21.2161Z" fill="#898989"/>
<path d="M26.4926 69.0613H7.59594C5.73373 69.0613 3.94753 68.3311 2.62903 67.0308C1.31053 65.7306 0.567362 63.9664 0.5625 62.1251V6.99868C0.567362 5.15742 1.31053 3.39321 2.62903 2.09294C3.94753 0.792672 5.73373 0.0624763 7.59594 0.0624826H26.4926C27.4224 0.0504768 28.3453 0.220891 29.2081 0.563864C30.0709 0.906837 30.8563 1.41556 31.5189 2.06061C32.1815 2.70565 32.7082 3.47421 33.0685 4.32182C33.4288 5.16943 33.6155 6.07926 33.6178 6.99868V62.1251C33.6155 63.0445 33.4288 63.9544 33.0685 64.802C32.7082 65.6496 32.1815 66.4181 31.5189 67.0632C30.8563 67.7082 30.0709 68.2169 29.2081 68.5599C28.3453 68.9029 27.4224 69.0733 26.4926 69.0613ZM7.59594 3.694C6.70782 3.69399 5.8558 4.04158 5.22609 4.66081C4.59637 5.28004 4.24017 6.12056 4.23531 6.99868V62.1251C4.24017 63.0032 4.59637 63.8437 5.22609 64.463C5.8558 65.0822 6.70782 65.4298 7.59594 65.4298H26.4926C26.94 65.4419 27.3854 65.3655 27.8026 65.2051C28.2198 65.0446 28.6003 64.8034 28.9219 64.4956C29.2435 64.1877 29.4997 63.8195 29.6754 63.4124C29.8511 63.0053 29.9427 62.5677 29.945 62.1251V6.99868C29.9427 6.5561 29.8511 6.11844 29.6754 5.71137C29.4997 5.3043 29.2435 4.93604 28.9219 4.62821C28.6003 4.32037 28.2198 4.07916 27.8026 3.91873C27.3854 3.75831 26.94 3.6819 26.4926 3.694H7.59594Z" fill="#898989"/>
<path d="M21.5155 35.6514H44.5624V39.2829H21.5155V35.6514ZM15.1982 51.9206H18.8711V57.1136H15.1982V51.9206Z" fill="#898989"/>
</svg>
