<svg width="534" height="103" viewBox="0 0 534 103" fill="none" xmlns="http://www.w3.org/2000/svg">
<path d="M32.3134 97V102H35.9448L37.0682 98.5468L32.3134 97ZM13.035 97L8.30872 95.3684L6.01939 102H13.035V97ZM42.4097 11.9091V6.90909H38.8462L37.6834 10.2775L42.4097 11.9091ZM65.5936 11.9091L70.3206 10.2796L69.1587 6.90909H65.5936V11.9091ZM94.9267 97V102H101.939L99.6537 95.3705L94.9267 97ZM75.6483 97L70.8927 98.5441L72.0148 102H75.6483V97ZM54.334 31.3537L59.0896 29.8096L57.9676 26.3537H54.334V31.3537ZM53.6693 31.3537V26.3537H50.0379L48.9145 29.8069L53.6693 31.3537ZM31.1085 63.5536V58.5536H26.1085V63.5536H31.1085ZM76.6455 63.5536H81.6455V58.5536H76.6455V63.5536ZM76.6455 77.5969V82.5969H81.6455V77.5969H76.6455ZM31.1085 77.5969H26.1085V82.5969H31.1085V77.5969ZM32.3134 92H13.035V102H32.3134V92ZM17.7613 98.6316L47.136 13.5407L37.6834 10.2775L8.30872 95.3684L17.7613 98.6316ZM42.4097 16.9091H65.5936V6.90909H42.4097V16.9091ZM60.8666 13.5386L90.1997 98.6295L99.6537 95.3705L70.3206 10.2796L60.8666 13.5386ZM94.9267 92H75.6483V102H94.9267V92ZM80.4039 95.4559L59.0896 29.8096L49.5784 32.8978L70.8927 98.5441L80.4039 95.4559ZM54.334 26.3537H53.6693V36.3537H54.334V26.3537ZM48.9145 29.8069L27.5587 95.4532L37.0682 98.5468L58.424 32.9005L48.9145 29.8069ZM31.1085 68.5536H76.6455V58.5536H31.1085V68.5536ZM71.6455 63.5536V77.5969H81.6455V63.5536H71.6455ZM76.6455 72.5969H31.1085V82.5969H76.6455V72.5969ZM36.1085 77.5969V63.5536H26.1085V77.5969H36.1085ZM128.568 97H123.568V102H128.568V97ZM128.568 11.9091V6.90909H123.568V11.9091H128.568ZM178.302 14.6928L176.274 19.2631L176.274 19.2631L178.302 14.6928ZM187.733 22.4208L183.519 25.1121L183.524 25.1201L183.53 25.1282L187.733 22.4208ZM188.896 42.4886L193.308 44.8416L193.314 44.8315L193.319 44.8214L188.896 42.4886ZM183.412 48.6378L186.243 52.7595L186.253 52.7523L183.412 48.6378ZM175.518 52.0032L174.424 47.1244L170.518 48.0005V52.0032H175.518ZM175.518 52.8342H170.518V57.625L175.304 57.8296L175.518 52.8342ZM184.617 55.5763L182.051 59.8675L182.06 59.873L182.069 59.8785L184.617 55.5763ZM191.556 62.6811L187.234 65.1956L187.239 65.2042L187.244 65.2128L191.556 62.6811ZM190.849 85.5742L186.624 82.9005L186.619 82.9093L190.849 85.5742ZM181.002 93.9254L178.871 89.4026L178.871 89.4026L181.002 93.9254ZM146.559 82.2919H141.559V87.2919H146.559V82.2919ZM172.194 79.4251L175.39 83.27L175.404 83.2587L175.418 83.2472L172.194 79.4251ZM173.939 65.4648L169.71 68.1324L169.71 68.1324L173.939 65.4648ZM169.078 61.2269L166.866 65.7109L166.878 65.7167L166.889 65.7225L169.078 61.2269ZM146.559 59.6896V54.6896H141.559V59.6896H146.559ZM146.559 47.516H141.559V52.516H146.559V47.516ZM166.46 46.228L168.509 50.7888L168.524 50.7821L168.539 50.7754L166.46 46.228ZM171.031 42.4886L166.948 39.6025L166.931 39.6261L166.915 39.65L171.031 42.4886ZM169.452 29.2763L166.166 33.0451L166.178 33.0555L166.19 33.0658L169.452 29.2763ZM146.559 26.451V21.451H141.559V26.451H146.559ZM133.568 97V11.9091H123.568V97H133.568ZM128.568 16.9091H162.638V6.90909H128.568V16.9091ZM162.638 16.9091C168.441 16.9091 172.919 17.7745 176.274 19.2631L180.33 10.1225C175.319 7.89947 169.355 6.90909 162.638 6.90909V16.9091ZM176.274 19.2631C179.715 20.79 182.027 22.7762 183.519 25.1121L191.947 19.7296C189.229 15.4731 185.254 12.3073 180.33 10.1225L176.274 19.2631ZM183.53 25.1282C185.065 27.5116 185.891 30.3196 185.891 33.7219H195.891C195.891 28.593 194.612 23.867 191.937 19.7134L183.53 25.1282ZM185.891 33.7219C185.891 36.3684 185.366 38.4654 184.474 40.1559L193.319 44.8214C195.086 41.4707 195.891 37.7232 195.891 33.7219H185.891ZM184.485 40.1357C183.531 41.9239 182.242 43.3698 180.571 44.5233L186.253 52.7523C189.236 50.6927 191.603 48.0392 193.308 44.8416L184.485 40.1357ZM180.582 44.5161C178.853 45.7033 176.821 46.5866 174.424 47.1244L176.612 56.882C180.142 56.0902 183.373 54.7299 186.243 52.7594L180.582 44.5161ZM170.518 52.0032V52.8342H180.518V52.0032H170.518ZM175.304 57.8296C177.702 57.9321 179.928 58.598 182.051 59.8675L187.183 51.2852C183.656 49.1755 179.816 48.0133 175.731 47.8387L175.304 57.8296ZM182.069 59.8785C184.142 61.1058 185.862 62.8381 187.234 65.1956L195.877 60.1666C193.704 56.4304 190.798 53.4261 187.165 51.2742L182.069 59.8785ZM187.244 65.2128C188.485 67.3271 189.215 70.0173 189.215 73.4837H199.215C199.215 68.5849 198.171 64.0734 195.867 60.1495L187.244 65.2128ZM189.215 73.4837C189.215 77.127 188.323 80.2161 186.624 82.9005L195.074 88.2479C197.863 83.8414 199.215 78.8701 199.215 73.4837H189.215ZM186.619 82.9093C184.986 85.5004 182.495 87.6945 178.871 89.4026L183.134 98.4482C188.207 96.057 192.28 92.6835 195.08 88.2392L186.619 82.9093ZM178.871 89.4026C175.368 91.0533 170.785 92 164.923 92V102C171.802 102 177.939 100.897 183.134 98.4482L178.871 89.4026ZM164.923 92H128.568V102H164.923V92ZM146.559 87.2919H161.225V77.2919H146.559V87.2919ZM161.225 87.2919C166.68 87.2919 171.76 86.288 175.39 83.27L168.998 75.5802C168.03 76.3846 165.798 77.2919 161.225 77.2919V87.2919ZM175.418 83.2472C178.928 80.2867 180.643 76.269 180.643 71.6971H170.643C170.643 73.5514 170.058 74.6856 168.971 75.6029L175.418 83.2472ZM180.643 71.6971C180.643 68.5021 179.86 65.4796 178.168 62.7973L169.71 68.1324C170.29 69.051 170.643 70.1833 170.643 71.6971H180.643ZM178.168 62.7973C176.487 60.1319 174.122 58.1216 171.267 56.7314L166.889 65.7225C168.244 66.3819 169.12 67.1969 169.71 68.1324L178.168 62.7973ZM171.29 56.7429C168.378 55.3061 165.106 54.6896 161.641 54.6896V64.6896C163.937 64.6896 165.623 65.098 166.866 65.7109L171.29 56.7429ZM161.641 54.6896H146.559V64.6896H161.641V54.6896ZM141.559 59.6896V82.2919H151.559V59.6896H141.559ZM146.559 52.516H159.896V42.516H146.559V52.516ZM159.896 52.516C162.944 52.516 165.85 51.9836 168.509 50.7888L164.411 41.6671C163.248 42.1897 161.778 42.516 159.896 42.516V52.516ZM168.539 50.7754C171.221 49.5495 173.48 47.7447 175.147 45.3273L166.915 39.65C166.366 40.4457 165.578 41.1337 164.382 41.6806L168.539 50.7754ZM175.114 45.3748C176.927 42.809 177.734 39.8402 177.734 36.7134H167.734C167.734 38.0738 167.405 38.9552 166.948 39.6025L175.114 45.3748ZM177.734 36.7134C177.734 32.2902 176.084 28.388 172.714 25.4868L166.19 33.0658C167.196 33.9316 167.734 34.9875 167.734 36.7134H177.734ZM172.738 25.5074C169.365 22.567 164.953 21.451 160.228 21.451V31.451C163.48 31.451 165.218 32.2185 166.166 33.0451L172.738 25.5074ZM160.228 21.451H146.559V31.451H160.228V21.451ZM141.559 26.451V47.516H151.559V26.451H141.559ZM302.238 78.1371L297.839 75.7599L297.836 75.7671L297.832 75.7744L302.238 78.1371ZM287.946 93.0529L290.411 97.4027L290.418 97.399L287.946 93.0529ZM247.311 93.0114L249.792 88.6701L249.792 88.6701L247.311 93.0114ZM233.06 78.0955L228.654 80.4582L228.654 80.4582L233.06 78.0955ZM233.06 30.772L237.467 33.1347L237.467 33.1347L233.06 30.772ZM247.311 15.8977L249.777 20.2476L249.784 20.2433L249.792 20.2389L247.311 15.8977ZM287.946 15.8977L285.465 20.2389L285.477 20.2457L285.489 20.2524L287.946 15.8977ZM302.238 30.772L297.832 33.1347L297.836 33.142L297.839 33.1492L302.238 30.772ZM286.574 39.2479L281.98 41.2212L281.986 41.2342L281.992 41.2471L286.574 39.2479ZM279.054 29.858L276.305 34.0346L276.305 34.0346L279.054 29.858ZM256.286 29.858L259.034 34.0346L259.034 34.0346L256.286 29.858ZM248.724 39.2479L244.141 37.2486L244.135 37.2616L244.13 37.2746L248.724 39.2479ZM248.724 69.6612L244.13 71.6345L244.135 71.6475L244.141 71.6605L248.724 69.6612ZM256.286 79.0511L259.034 74.8745L259.034 74.8745L256.286 79.0511ZM279.054 79.0511L276.305 74.8745L276.305 74.8745L279.054 79.0511ZM286.574 69.6612L281.992 67.662L281.986 67.6749L281.98 67.6879L286.574 69.6612ZM302.515 54.4545C302.515 63.1107 300.875 70.1436 297.839 75.7599L306.637 80.5143C310.637 73.1121 312.515 64.3566 312.515 54.4545H302.515ZM297.832 75.7744C294.757 81.5083 290.641 85.7677 285.473 88.7068L290.418 97.399C297.327 93.4688 302.739 87.7843 306.645 80.4997L297.832 75.7744ZM285.48 88.7031C280.285 91.6475 274.389 93.1634 267.67 93.1634V103.163C275.964 103.163 283.584 101.272 290.411 97.4027L285.48 88.7031ZM267.67 93.1634C260.896 93.1634 254.979 91.6339 249.792 88.6701L244.831 97.3526C251.665 101.258 259.321 103.163 267.67 103.163V93.1634ZM249.792 88.6701C244.651 85.7326 240.544 81.4726 237.467 75.7329L228.654 80.4582C232.556 87.7369 237.95 93.4208 244.831 97.3526L249.792 88.6701ZM237.467 75.7329C234.453 70.1112 232.825 63.0859 232.825 54.4545H222.825C222.825 64.326 224.688 73.0614 228.654 80.4582L237.467 75.7329ZM232.825 54.4545C232.825 45.7927 234.454 38.7544 237.467 33.1347L228.654 28.4093C224.687 35.8081 222.825 44.5582 222.825 54.4545H232.825ZM237.467 33.1347C240.543 27.3979 244.645 23.1563 249.777 20.2476L244.846 11.5479C237.956 15.4531 232.558 21.1277 228.654 28.4094L237.467 33.1347ZM249.792 20.2389C254.979 17.2752 260.896 15.7457 267.67 15.7457V5.74574C259.321 5.74574 251.665 7.65094 244.831 11.5565L249.792 20.2389ZM267.67 15.7457C274.382 15.7457 280.273 17.272 285.465 20.2389L290.426 11.5565C283.597 7.65413 275.971 5.74574 267.67 5.74574V15.7457ZM285.489 20.2524C290.647 23.1628 294.759 27.4038 297.832 33.1347L306.645 28.4094C302.737 21.1218 297.321 15.4466 290.403 11.5431L285.489 20.2524ZM297.839 33.1492C300.875 38.7655 302.515 45.7984 302.515 54.4545H312.515C312.515 44.5524 310.637 35.797 306.637 28.3948L297.839 33.1492ZM294.275 54.4545C294.275 47.9742 293.308 42.1797 291.157 37.2486L281.992 41.2471C283.441 44.5703 284.275 48.9136 284.275 54.4545H294.275ZM291.169 37.2746C289.072 32.3936 285.984 28.433 281.803 25.6813L276.305 34.0346C278.606 35.5485 280.531 37.8479 281.98 41.2212L291.169 37.2746ZM281.803 25.6813C277.65 22.9479 272.874 21.6587 267.67 21.6587V31.6587C271.164 31.6587 273.977 32.5024 276.305 34.0346L281.803 25.6813ZM267.67 21.6587C262.466 21.6587 257.69 22.9479 253.537 25.6813L259.034 34.0346C261.363 32.5024 264.176 31.6587 267.67 31.6587V21.6587ZM253.537 25.6813C249.363 28.4281 246.265 32.3792 244.141 37.2486L253.307 41.2471C254.783 37.8623 256.727 35.5534 259.034 34.0346L253.537 25.6813ZM244.13 37.2746C242.015 42.1976 241.065 47.9824 241.065 54.4545H251.065C251.065 48.9054 251.887 44.5524 253.318 41.2212L244.13 37.2746ZM241.065 54.4545C241.065 60.9267 242.015 66.7115 244.13 71.6345L253.318 67.6879C251.887 64.3567 251.065 60.0037 251.065 54.4545H241.065ZM244.141 71.6605C246.265 76.5299 249.363 80.481 253.537 83.2278L259.034 74.8745C256.727 73.3556 254.783 71.0468 253.307 67.662L244.141 71.6605ZM253.537 83.2278C257.69 85.9612 262.466 87.2504 267.67 87.2504V77.2504C264.176 77.2504 261.363 76.4067 259.034 74.8745L253.537 83.2278ZM267.67 87.2504C272.874 87.2504 277.65 85.9612 281.803 83.2278L276.305 74.8745C273.977 76.4067 271.164 77.2504 267.67 77.2504V87.2504ZM281.803 83.2278C285.984 80.4761 289.072 76.5155 291.169 71.6345L281.98 67.6879C280.531 71.0612 278.606 73.3606 276.305 74.8745L281.803 83.2278ZM291.157 71.6605C293.308 66.7294 294.275 60.9349 294.275 54.4545H284.275C284.275 59.9955 283.441 64.3388 281.992 67.662L291.157 71.6605ZM396.8 11.9091V6.90909H391.8V11.9091H396.8ZM414.79 11.9091H419.79V6.90909H414.79V11.9091ZM410.345 83.4553L406.127 80.7693L406.122 80.7782L406.116 80.7872L410.345 83.4553ZM398.005 94.3409L400.194 98.8363L400.203 98.8317L400.213 98.827L398.005 94.3409ZM360.985 94.3409L358.778 98.827L358.787 98.8317L358.797 98.8363L360.985 94.3409ZM348.646 83.4553L344.417 86.1233L344.417 86.1233L348.646 83.4553ZM344.241 11.9091V6.90909H339.241V11.9091H344.241ZM362.232 11.9091H367.232V6.90909H362.232V11.9091ZM364.351 74.2731L359.989 76.7176L359.999 76.7357L360.01 76.7538L364.351 74.2731ZM370.417 80.2145L367.997 84.5897L367.997 84.5897L370.417 80.2145ZM388.615 80.2145L386.195 75.8393L386.185 75.8448L386.175 75.8504L388.615 80.2145ZM394.64 74.2731L390.298 71.7924L390.288 71.8105L390.278 71.8286L394.64 74.2731ZM396.8 16.9091H414.79V6.90909H396.8V16.9091ZM409.79 11.9091V67.1683H419.79V11.9091H409.79ZM409.79 67.1683C409.79 72.5434 408.518 77.0156 406.127 80.7693L414.562 86.1413C418.099 80.5881 419.79 74.2023 419.79 67.1683H409.79ZM406.116 80.7872C403.708 84.6033 400.321 87.6285 395.797 89.8548L400.213 98.827C406.27 95.846 411.109 91.614 414.573 86.1233L406.116 80.7872ZM395.816 89.8455C391.328 92.0307 385.94 93.2049 379.516 93.2049V103.205C387.163 103.205 394.101 101.803 400.194 98.8363L395.816 89.8455ZM379.516 93.2049C373.061 93.2049 367.66 92.0295 363.174 89.8455L358.797 98.8363C364.892 101.804 371.844 103.205 379.516 103.205V93.2049ZM363.193 89.8548C358.67 87.6285 355.282 84.6033 352.874 80.7872L344.417 86.1233C347.881 91.614 352.72 95.846 358.778 98.827L363.193 89.8548ZM352.874 80.7872C350.504 77.0312 349.241 72.5525 349.241 67.1683H339.241C339.241 74.1933 340.915 80.5725 344.417 86.1233L352.874 80.7872ZM349.241 67.1683V11.9091H339.241V67.1683H349.241ZM344.241 16.9091H362.232V6.90909H344.241V16.9091ZM357.232 11.9091V65.631H367.232V11.9091H357.232ZM357.232 65.631C357.232 69.6218 358.109 73.3629 359.989 76.7176L368.713 71.8286C367.767 70.1421 367.232 68.1218 367.232 65.631H357.232ZM360.01 76.7538C361.916 80.0906 364.612 82.7174 367.997 84.5897L372.837 75.8393C371.014 74.8309 369.666 73.4968 368.692 71.7924L360.01 76.7538ZM367.997 84.5897C371.454 86.5024 375.346 87.375 379.516 87.375V77.375C376.761 77.375 374.587 76.8072 372.837 75.8393L367.997 84.5897ZM379.516 87.375C383.704 87.375 387.608 86.5061 391.055 84.5786L386.175 75.8504C384.47 76.8036 382.308 77.375 379.516 77.375V87.375ZM391.035 84.5897C394.428 82.713 397.12 80.0749 399.001 76.7176L390.278 71.8286C389.334 73.5125 388.01 74.8352 386.195 75.8393L391.035 84.5897ZM398.981 76.7538C400.901 73.3927 401.8 69.6385 401.8 65.631H391.8C391.8 68.1051 391.258 70.1123 390.298 71.7924L398.981 76.7538ZM401.8 65.631V11.9091H391.8V65.631H401.8ZM449.751 26.7418H444.751V31.7418H449.751V26.7418ZM449.751 11.9091V6.90909H444.751V11.9091H449.751ZM519.635 11.9091H524.635V6.90909H519.635V11.9091ZM519.635 26.7418V31.7418H524.635V26.7418H519.635ZM493.585 26.7418V21.7418H488.585V26.7418H493.585ZM493.585 97V102H498.585V97H493.585ZM475.802 97H470.802V102H475.802V97ZM475.802 26.7418H480.802V21.7418H475.802V26.7418ZM454.751 26.7418V11.9091H444.751V26.7418H454.751ZM449.751 16.9091H519.635V6.90909H449.751V16.9091ZM514.635 11.9091V26.7418H524.635V11.9091H514.635ZM519.635 21.7418H493.585V31.7418H519.635V21.7418ZM488.585 26.7418V97H498.585V26.7418H488.585ZM493.585 92H475.802V102H493.585V92ZM480.802 97V26.7418H470.802V97H480.802ZM475.802 21.7418H449.751V31.7418H475.802V21.7418Z" fill="#10325A"/>
</svg>
