<svg width="44" height="69" viewBox="0 0 44 69" fill="none" xmlns="http://www.w3.org/2000/svg">
<path d="M9.86035 12.2062C9.86035 12.8456 10.1143 13.4587 10.5664 13.9108C11.0185 14.3629 11.6316 14.6169 12.271 14.6169C12.9103 14.6169 13.5235 14.3629 13.9755 13.9108C14.4276 13.4587 14.6816 12.8456 14.6816 12.2062C14.6816 11.5669 14.4276 10.9538 13.9755 10.5017C13.5235 10.0496 12.9103 9.79562 12.271 9.79562C11.6316 9.79562 11.0185 10.0496 10.5664 10.5017C10.1143 10.9538 9.86035 11.5669 9.86035 12.2062Z" fill="#10325A"/>
<path d="M18.959 12.2062C18.959 12.8456 19.213 13.4587 19.665 13.9108C20.1171 14.3629 20.7303 14.6169 21.3696 14.6169C22.0089 14.6169 22.6221 14.3629 23.0742 13.9108C23.5263 13.4587 23.7802 12.8456 23.7802 12.2062C23.7802 11.5669 23.5263 10.9538 23.0742 10.5017C22.6221 10.0496 22.0089 9.79562 21.3696 9.79562C20.7303 9.79562 20.1171 10.0496 19.665 10.5017C19.213 10.9538 18.959 11.5669 18.959 12.2062Z" fill="#10325A"/>
<path d="M9.86035 21.1781C9.86035 21.8175 10.1143 22.4306 10.5664 22.8827C11.0185 23.3348 11.6316 23.5888 12.271 23.5888C12.9103 23.5888 13.5235 23.3348 13.9755 22.8827C14.4276 22.4306 14.6816 21.8175 14.6816 21.1781C14.6816 20.5388 14.4276 19.9257 13.9755 19.4736C13.5235 19.0215 12.9103 18.7675 12.271 18.7675C11.6316 18.7675 11.0185 19.0215 10.5664 19.4736C10.1143 19.9257 9.86035 20.5388 9.86035 21.1781Z" fill="#10325A"/>
<path d="M18.959 21.1781C18.959 21.8175 19.213 22.4306 19.665 22.8827C20.1171 23.3348 20.7303 23.5888 21.3696 23.5888C22.0089 23.5888 22.6221 23.3348 23.0742 22.8827C23.5263 22.4306 23.7802 21.8175 23.7802 21.1781C23.7802 20.5388 23.5263 19.9257 23.0742 19.4736C22.6221 19.0215 22.0089 18.7675 21.3696 18.7675C20.7303 18.7675 20.1171 19.0215 19.665 19.4736C19.213 19.9257 18.959 20.5388 18.959 21.1781Z" fill="#10325A"/>
<path d="M26.155 68.9375H7.50437C5.66641 68.9375 3.90346 68.2086 2.60213 66.9107C1.30079 65.6128 0.567299 63.8517 0.5625 62.0138V6.98626C0.567299 5.14831 1.30079 3.38726 2.60213 2.08933C3.90346 0.791392 5.66641 0.0625058 7.50437 0.0625121H26.155C27.0727 0.0505278 27.9837 0.220636 28.8352 0.562994C29.6867 0.905351 30.4619 1.41316 31.1159 2.05705C31.7699 2.70094 32.2897 3.46812 32.6453 4.3142C33.0009 5.16029 33.1852 6.06849 33.1875 6.98626V62.0138C33.1852 62.9315 33.0009 63.8397 32.6453 64.6858C32.2897 65.5319 31.7699 66.2991 31.1159 66.943C30.4619 67.5869 29.6867 68.0947 28.8352 68.437C27.9837 68.7794 27.0727 68.9495 26.155 68.9375ZM7.50437 3.68751C6.62782 3.6875 5.78689 4.03447 5.16537 4.65259C4.54386 5.27071 4.19229 6.10972 4.1875 6.98626V62.0138C4.19229 62.8903 4.54386 63.7293 5.16537 64.3474C5.78689 64.9656 6.62782 65.3125 7.50437 65.3125H26.155C26.5966 65.3246 27.0362 65.2483 27.448 65.0882C27.8597 64.9281 28.2353 64.6873 28.5527 64.38C28.8701 64.0727 29.123 63.7051 29.2964 63.2988C29.4698 62.8924 29.5603 62.4555 29.5625 62.0138V6.98626C29.5603 6.54448 29.4698 6.1076 29.2964 5.70126C29.123 5.29493 28.8701 4.92733 28.5527 4.62004C28.2353 4.31276 27.8597 4.07198 27.448 3.91184C27.0362 3.75171 26.5966 3.67544 26.155 3.68751H7.50437Z" fill="#10325A"/>
<path d="M21.2428 35.5875H43.9897V39.2125H21.2428V35.5875ZM15.0078 51.8275H18.6328V57.0112H15.0078V51.8275Z" fill="#10325A"/>
</svg>
