<svg width="508" height="89" viewBox="0 0 508 89" fill="none" xmlns="http://www.w3.org/2000/svg">
<path d="M20.0621 87V92H23.6935L24.8169 88.5468L20.0621 87ZM0.783736 87L-3.94256 85.3684L-6.23189 92H0.783736V87ZM30.1584 1.90909V-3.09091H26.5949L25.4321 0.277499L30.1584 1.90909ZM53.3423 1.90909L58.0693 0.279562L56.9075 -3.09091H53.3423V1.90909ZM82.6754 87V92H89.6878L87.4024 85.3705L82.6754 87ZM63.397 87L58.6414 88.5441L59.7635 92H63.397V87ZM42.0827 21.3537L46.8384 19.8096L45.7163 16.3537H42.0827V21.3537ZM41.418 21.3537V16.3537H37.7866L36.6632 19.8069L41.418 21.3537ZM18.8572 53.5536V48.5536H13.8572V53.5536H18.8572ZM64.3942 53.5536H69.3942V48.5536H64.3942V53.5536ZM64.3942 67.5969V72.5969H69.3942V67.5969H64.3942ZM18.8572 67.5969H13.8572V72.5969H18.8572V67.5969ZM20.0621 82H0.783736V92H20.0621V82ZM5.51004 88.6316L34.8847 3.54068L25.4321 0.277499L-3.94256 85.3684L5.51004 88.6316ZM30.1584 6.90909H53.3423V-3.09091H30.1584V6.90909ZM48.6153 3.53862L77.9484 88.6295L87.4024 85.3705L58.0693 0.279562L48.6153 3.53862ZM82.6754 82H63.397V92H82.6754V82ZM68.1526 85.4559L46.8384 19.8096L37.3271 22.8978L58.6414 88.5441L68.1526 85.4559ZM42.0827 16.3537H41.418V26.3537H42.0827V16.3537ZM36.6632 19.8069L15.3074 85.4532L24.8169 88.5468L46.1727 22.9005L36.6632 19.8069ZM18.8572 58.5536H64.3942V48.5536H18.8572V58.5536ZM59.3942 53.5536V67.5969H69.3942V53.5536H59.3942ZM64.3942 62.5969H18.8572V72.5969H64.3942V62.5969ZM23.8572 67.5969V53.5536H13.8572V67.5969H23.8572ZM116.317 87H111.317V92H116.317V87ZM116.317 1.90909V-3.09091H111.317V1.90909H116.317ZM166.05 4.69283L164.023 9.26313L166.05 4.69283ZM175.482 12.4208L171.268 15.1121L171.273 15.1201L171.278 15.1282L175.482 12.4208ZM176.645 32.4886L181.057 34.8416L181.062 34.8315L181.068 34.8214L176.645 32.4886ZM171.161 38.6378L173.991 42.7595L174.002 42.7523L171.161 38.6378ZM163.267 42.0032L162.172 37.1244L158.267 38.0005V42.0032H163.267ZM163.267 42.8342H158.267V47.625L163.053 47.8296L163.267 42.8342ZM172.366 45.5763L169.799 49.8675L169.809 49.873L169.818 49.8785L172.366 45.5763ZM179.304 52.6811L174.983 55.1956L174.988 55.2042L174.993 55.2128L179.304 52.6811ZM178.598 75.5742L174.373 72.9005L174.367 72.9093L178.598 75.5742ZM168.751 83.9254L166.619 79.4026H166.619L168.751 83.9254ZM134.307 72.2919H129.307V77.2919H134.307V72.2919ZM159.943 69.4251L163.139 73.27L163.153 73.2587L163.166 73.2472L159.943 69.4251ZM161.688 55.4648L157.459 58.1324V58.1324L161.688 55.4648ZM156.827 51.2269L154.615 55.7109L154.626 55.7167L154.638 55.7225L156.827 51.2269ZM134.307 49.6896V44.6896H129.307V49.6896H134.307ZM134.307 37.516H129.307V42.516H134.307V37.516ZM154.209 36.228L156.258 40.7888L156.273 40.7821L156.288 40.7754L154.209 36.228ZM158.779 32.4886L154.697 29.6025L154.68 29.6261L154.663 29.65L158.779 32.4886ZM157.201 19.2763L153.915 23.0451L153.927 23.0555L153.939 23.0658L157.201 19.2763ZM134.307 16.451V11.451H129.307V16.451H134.307ZM121.317 87V1.90909H111.317V87H121.317ZM116.317 6.90909H150.387V-3.09091H116.317V6.90909ZM150.387 6.90909C156.19 6.90909 160.668 7.77453 164.023 9.26313L168.078 0.12252C163.068 -2.10053 157.103 -3.09091 150.387 -3.09091V6.90909ZM164.023 9.26313C167.464 10.79 169.776 12.7762 171.268 15.1121L179.696 9.72956C176.977 5.47312 173.002 2.30734 168.078 0.12252L164.023 9.26313ZM171.278 15.1282C172.813 17.5116 173.64 20.3196 173.64 23.7219H183.64C183.64 18.593 182.361 13.867 179.685 9.71342L171.278 15.1282ZM173.64 23.7219C173.64 26.3684 173.114 28.4654 172.223 30.1559L181.068 34.8214C182.835 31.4707 183.64 27.7232 183.64 23.7219H173.64ZM172.233 30.1357C171.28 31.9239 169.99 33.3698 168.32 34.5233L174.002 42.7523C176.985 40.6927 179.352 38.0392 181.057 34.8416L172.233 30.1357ZM168.33 34.5161C166.602 35.7033 164.57 36.5866 162.172 37.1244L164.361 46.882C167.891 46.0902 171.122 44.7299 173.991 42.7594L168.33 34.5161ZM158.267 42.0032V42.8342H168.267V42.0032H158.267ZM163.053 47.8296C165.451 47.932 167.677 48.598 169.799 49.8675L174.932 41.2852C171.404 39.1755 167.564 38.0133 163.48 37.8387L163.053 47.8296ZM169.818 49.8785C171.89 51.1058 173.611 52.8381 174.983 55.1956L183.626 50.1666C181.452 46.4304 178.547 43.4261 174.914 41.2742L169.818 49.8785ZM174.993 55.2128C176.234 57.3271 176.963 60.0173 176.963 63.4837H186.963C186.963 58.5849 185.92 54.0734 183.616 50.1495L174.993 55.2128ZM176.963 63.4837C176.963 67.127 176.072 70.2161 174.373 72.9005L182.823 78.2479C185.612 73.8414 186.963 68.8701 186.963 63.4837H176.963ZM174.367 72.9093C172.735 75.5004 170.243 77.6945 166.619 79.4026L170.883 88.4482C175.956 86.057 180.029 82.6835 182.829 78.2392L174.367 72.9093ZM166.619 79.4026C163.117 81.0533 158.534 82 152.672 82V92C159.551 92 165.688 90.8969 170.883 88.4482L166.619 79.4026ZM152.672 82H116.317V92H152.672V82ZM134.307 77.2919H148.974V67.2919H134.307V77.2919ZM148.974 77.2919C154.429 77.2919 159.509 76.288 163.139 73.27L156.746 65.5802C155.779 66.3846 153.546 67.2919 148.974 67.2919V77.2919ZM163.166 73.2472C166.677 70.2867 168.391 66.269 168.391 61.6971H158.391C158.391 63.5514 157.807 64.6856 156.719 65.6029L163.166 73.2472ZM168.391 61.6971C168.391 58.5021 167.609 55.4796 165.917 52.7973L157.459 58.1324C158.038 59.051 158.391 60.1833 158.391 61.6971H168.391ZM165.917 52.7973C164.236 50.1319 161.871 48.1216 159.015 46.7314L154.638 55.7225C155.993 56.3819 156.869 57.1969 157.459 58.1324L165.917 52.7973ZM159.039 46.7429C156.126 45.3061 152.855 44.6896 149.39 44.6896V54.6896C151.686 54.6896 153.372 55.098 154.615 55.7109L159.039 46.7429ZM149.39 44.6896H134.307V54.6896H149.39V44.6896ZM129.307 49.6896V72.2919H139.307V49.6896H129.307ZM134.307 42.516H147.645V32.516H134.307V42.516ZM147.645 42.516C150.693 42.516 153.599 41.9836 156.258 40.7888L152.16 31.6671C150.997 32.1897 149.527 32.516 147.645 32.516V42.516ZM156.288 40.7754C158.969 39.5495 161.228 37.7447 162.896 35.3273L154.663 29.65C154.115 30.4457 153.327 31.1337 152.13 31.6806L156.288 40.7754ZM162.862 35.3748C164.676 32.809 165.483 29.8402 165.483 26.7134H155.483C155.483 28.0738 155.154 28.9552 154.697 29.6025L162.862 35.3748ZM165.483 26.7134C165.483 22.2902 163.833 18.388 160.462 15.4868L153.939 23.0658C154.945 23.9316 155.483 24.9875 155.483 26.7134H165.483ZM160.486 15.5074C157.113 12.567 152.702 11.451 147.977 11.451V21.451C151.229 21.451 152.967 22.2185 153.915 23.0451L160.486 15.5074ZM147.977 11.451H134.307V21.451H147.977V11.451ZM129.307 16.451V37.516H139.307V16.451H129.307ZM289.987 68.1371L285.588 65.7599L285.584 65.7671L285.58 65.7744L289.987 68.1371ZM275.694 83.0529L278.16 87.4027L278.166 87.399L275.694 83.0529ZM235.06 83.0114L237.541 78.6702L235.06 83.0114ZM220.809 68.0955L216.402 70.4582L220.809 68.0955ZM220.809 20.772L225.216 23.1347L220.809 20.772ZM235.06 5.89773L237.526 10.2476L237.533 10.2433L237.541 10.2389L235.06 5.89773ZM275.694 5.89773L273.214 10.2389L273.225 10.2457L273.237 10.2524L275.694 5.89773ZM289.987 20.772L285.58 23.1347L285.584 23.142L285.588 23.1492L289.987 20.772ZM274.323 29.2479L269.729 31.2212L269.735 31.2342L269.74 31.2471L274.323 29.2479ZM266.803 19.858L264.054 24.0346L266.803 19.858ZM244.034 19.858L246.783 24.0346L244.034 19.858ZM236.473 29.2479L231.89 27.2486L231.884 27.2616L231.879 27.2746L236.473 29.2479ZM236.473 59.6612L231.879 61.6345L231.884 61.6475L231.89 61.6605L236.473 59.6612ZM244.034 69.0511L246.783 64.8745L244.034 69.0511ZM266.803 69.0511L264.054 64.8745L266.803 69.0511ZM274.323 59.6612L269.74 57.662L269.735 57.6749L269.729 57.6879L274.323 59.6612ZM290.264 44.4545C290.264 53.1107 288.623 60.1436 285.588 65.7599L294.386 70.5143C298.386 63.1121 300.264 54.3566 300.264 44.4545H290.264ZM285.58 65.7744C282.506 71.5083 278.389 75.7677 273.222 78.7068L278.166 87.399C285.076 83.4688 290.488 77.7843 294.393 70.4997L285.58 65.7744ZM273.229 78.7031C268.034 81.6475 262.138 83.1634 255.419 83.1634V93.1634C263.712 93.1634 271.333 91.2722 278.16 87.4027L273.229 78.7031ZM255.419 83.1634C248.644 83.1634 242.727 81.6339 237.541 78.6702L232.579 87.3526C239.414 91.2582 247.069 93.1634 255.419 93.1634V83.1634ZM237.541 78.6702C232.4 75.7326 228.293 71.4726 225.216 65.7329L216.402 70.4582C220.305 77.7369 225.699 83.4208 232.579 87.3526L237.541 78.6702ZM225.216 65.7329C222.201 60.1112 220.574 53.0859 220.574 44.4545H210.574C210.574 54.326 212.436 63.0614 216.402 70.4582L225.216 65.7329ZM220.574 44.4545C220.574 35.7927 222.202 28.7544 225.216 23.1347L216.402 18.4093C212.435 25.8081 210.574 34.5582 210.574 44.4545H220.574ZM225.216 23.1347C228.291 17.3979 232.394 13.1563 237.526 10.2476L232.594 1.5479C225.705 5.45307 220.307 11.1277 216.402 18.4094L225.216 23.1347ZM237.541 10.2389C242.727 7.2752 248.644 5.74574 255.419 5.74574V-4.25426C247.069 -4.25426 239.414 -2.34906 232.579 1.55651L237.541 10.2389ZM255.419 5.74574C262.131 5.74574 268.021 7.272 273.214 10.2389L278.175 1.55651C271.346 -2.34587 263.72 -4.25426 255.419 -4.25426V5.74574ZM273.237 10.2524C278.396 13.1628 282.508 17.4038 285.58 23.1347L294.393 18.4094C290.486 11.1218 285.07 5.4466 278.151 1.54305L273.237 10.2524ZM285.588 23.1492C288.623 28.7655 290.264 35.7984 290.264 44.4545H300.264C300.264 34.5524 298.386 25.797 294.386 18.3948L285.588 23.1492ZM282.024 44.4545C282.024 37.9742 281.057 32.1797 278.906 27.2486L269.74 31.2471C271.19 34.5703 272.024 38.9136 272.024 44.4545H282.024ZM278.917 27.2746C276.821 22.3936 273.733 18.433 269.552 15.6813L264.054 24.0346C266.355 25.5485 268.28 27.8479 269.729 31.2212L278.917 27.2746ZM269.552 15.6813C265.398 12.9479 260.622 11.6587 255.419 11.6587V21.6587C258.913 21.6587 261.726 22.5024 264.054 24.0346L269.552 15.6813ZM255.419 11.6587C250.215 11.6587 245.439 12.9479 241.286 15.6813L246.783 24.0346C249.111 22.5024 251.925 21.6587 255.419 21.6587V11.6587ZM241.286 15.6813C237.112 18.4281 234.014 22.3792 231.89 27.2486L241.056 31.2471C242.532 27.8623 244.475 25.5534 246.783 24.0346L241.286 15.6813ZM231.879 27.2746C229.764 32.1976 228.814 37.9824 228.814 44.4545H238.814C238.814 38.9054 239.636 34.5524 241.067 31.2212L231.879 27.2746ZM228.814 44.4545C228.814 50.9267 229.764 56.7115 231.879 61.6345L241.067 57.6879C239.636 54.3567 238.814 50.0037 238.814 44.4545H228.814ZM231.89 61.6605C234.014 66.5299 237.112 70.481 241.286 73.2278L246.783 64.8745C244.475 63.3556 242.532 61.0468 241.056 57.662L231.89 61.6605ZM241.286 73.2278C245.439 75.9612 250.215 77.2504 255.419 77.2504V67.2504C251.925 67.2504 249.111 66.4067 246.783 64.8745L241.286 73.2278ZM255.419 77.2504C260.622 77.2504 265.398 75.9612 269.552 73.2278L264.054 64.8745C261.726 66.4067 258.913 67.2504 255.419 67.2504V77.2504ZM269.552 73.2278C273.733 70.4761 276.821 66.5155 278.917 61.6345L269.729 57.6879C268.28 61.0612 266.355 63.3605 264.054 64.8745L269.552 73.2278ZM278.906 61.6605C281.057 56.7294 282.024 50.9349 282.024 44.4545H272.024C272.024 49.9955 271.19 54.3388 269.74 57.662L278.906 61.6605ZM384.549 1.90909V-3.09091H379.549V1.90909H384.549ZM402.539 1.90909H407.539V-3.09091H402.539V1.90909ZM398.093 73.4553L393.876 70.7693L393.871 70.7782L393.865 70.7872L398.093 73.4553ZM385.754 84.3409L387.943 88.8363L387.952 88.8317L387.961 88.827L385.754 84.3409ZM348.734 84.3409L346.526 88.827L346.536 88.8317L346.545 88.8363L348.734 84.3409ZM336.394 73.4553L332.166 76.1233L336.394 73.4553ZM331.99 1.90909V-3.09091H326.99V1.90909H331.99ZM349.981 1.90909H354.981V-3.09091H349.981V1.90909ZM352.1 64.2731L347.738 66.7176L347.748 66.7357L347.758 66.7538L352.1 64.2731ZM358.166 70.2145L355.745 74.5897L358.166 70.2145ZM376.364 70.2145L373.943 65.8393L373.933 65.8448L373.924 65.8504L376.364 70.2145ZM382.388 64.2731L378.047 61.7924L378.037 61.8105L378.027 61.8286L382.388 64.2731ZM384.549 6.90909H402.539V-3.09091H384.549V6.90909ZM397.539 1.90909V57.1683H407.539V1.90909H397.539ZM397.539 57.1683C397.539 62.5434 396.267 67.0156 393.876 70.7693L402.311 76.1413C405.848 70.5881 407.539 64.2023 407.539 57.1683H397.539ZM393.865 70.7872C391.457 74.6033 388.069 77.6285 383.546 79.8548L387.961 88.827C394.019 85.846 398.858 81.614 402.322 76.1233L393.865 70.7872ZM383.565 79.8455C379.077 82.0307 373.688 83.2049 367.265 83.2049V93.2049C374.912 93.2049 381.849 91.8031 387.943 88.8363L383.565 79.8455ZM367.265 83.2049C360.81 83.2049 355.408 82.0295 350.923 79.8455L346.545 88.8363C352.641 91.8043 359.593 93.2049 367.265 93.2049V83.2049ZM350.942 79.8548C346.418 77.6285 343.031 74.6033 340.623 70.7872L332.166 76.1233C335.63 81.614 340.469 85.846 346.526 88.827L350.942 79.8548ZM340.623 70.7872C338.253 67.0312 336.99 62.5525 336.99 57.1683H326.99C326.99 64.1933 328.663 70.5725 332.166 76.1233L340.623 70.7872ZM336.99 57.1683V1.90909H326.99V57.1683H336.99ZM331.99 6.90909H349.981V-3.09091H331.99V6.90909ZM344.981 1.90909V55.631H354.981V1.90909H344.981ZM344.981 55.631C344.981 59.6218 345.858 63.3629 347.738 66.7176L356.461 61.8286C355.516 60.1421 354.981 58.1218 354.981 55.631H344.981ZM347.758 66.7538C349.665 70.0906 352.361 72.7174 355.745 74.5897L360.586 65.8393C358.763 64.8309 357.415 63.4968 356.441 61.7924L347.758 66.7538ZM355.745 74.5897C359.203 76.5024 363.095 77.375 367.265 77.375V67.375C364.509 67.375 362.336 66.8072 360.586 65.8393L355.745 74.5897ZM367.265 77.375C371.453 77.375 375.357 76.5061 378.804 74.5786L373.924 65.8504C372.219 66.8036 370.057 67.375 367.265 67.375V77.375ZM378.784 74.5897C382.176 72.713 384.868 70.0749 386.75 66.7176L378.027 61.8286C377.083 63.5125 375.758 64.8353 373.943 65.8393L378.784 74.5897ZM386.729 66.7538C388.65 63.3927 389.549 59.6385 389.549 55.631H379.549C379.549 58.1051 379.007 60.1123 378.047 61.7924L386.729 66.7538ZM389.549 55.631V1.90909H379.549V55.631H389.549ZM437.5 16.7418H432.5V21.7418H437.5V16.7418ZM437.5 1.90909V-3.09091H432.5V1.90909H437.5ZM507.384 1.90909H512.384V-3.09091H507.384V1.90909ZM507.384 16.7418V21.7418H512.384V16.7418H507.384ZM481.333 16.7418V11.7418H476.333V16.7418H481.333ZM481.333 87V92H486.333V87H481.333ZM463.551 87H458.551V92H463.551V87ZM463.551 16.7418H468.551V11.7418H463.551V16.7418ZM442.5 16.7418V1.90909H432.5V16.7418H442.5ZM437.5 6.90909H507.384V-3.09091H437.5V6.90909ZM502.384 1.90909V16.7418H512.384V1.90909H502.384ZM507.384 11.7418H481.333V21.7418H507.384V11.7418ZM476.333 16.7418V87H486.333V16.7418H476.333ZM481.333 82H463.551V92H481.333V82ZM468.551 87V16.7418H458.551V87H468.551ZM463.551 11.7418H437.5V21.7418H463.551V11.7418Z" fill="#10325A"/>
</svg>
