<svg width="27" height="27" viewBox="0 0 27 27" fill="none" xmlns="http://www.w3.org/2000/svg">
<g clip-path="url(#clip0_567_452)">
<mask id="mask0_567_452" style="mask-type:luminance" maskUnits="userSpaceOnUse" x="0" y="0" width="27" height="27">
<path d="M27 0H0V27H27V0Z" fill="white"/>
</mask>
<g mask="url(#mask0_567_452)">
<path d="M23.0466 3.95413C20.6027 1.51037 17.2253 0 13.5037 0C9.77474 0 6.39689 1.51037 3.95334 3.95413C1.51691 6.39874 0 9.77731 0 13.4999C0 17.2301 1.51691 20.6012 3.95334 23.0458C6.39689 25.4898 9.77474 27 13.5037 27C17.2252 27 20.6027 25.4898 23.0466 23.0458C25.4828 20.6012 27 17.2301 27 13.4999C27 9.77731 25.4828 6.39874 23.0466 3.95413Z" fill="white"/>
<path fill-rule="evenodd" clip-rule="evenodd" d="M14.6018 8.86582C14.3031 8.82802 13.9219 8.70105 13.8547 9.09721C13.7801 9.50828 14.2058 9.47872 14.4823 9.53832C16.3657 9.94966 17.0083 10.6219 17.3221 12.4464C17.3368 12.5213 17.3447 12.6182 17.3447 12.7004C17.367 12.9171 17.4193 13.1112 17.748 13.0518C17.9126 13.0292 17.9723 12.9398 17.9798 12.8128C18.0022 12.7004 17.9798 12.5508 17.9948 12.4464C18.0022 10.6893 16.4702 9.09721 14.6018 8.86582ZM14.7739 10.3083C14.5796 10.3083 14.3851 10.3307 14.3106 10.5402C14.1983 10.8392 14.4302 10.9212 14.6616 10.9585C15.4315 11.0708 15.8351 11.5194 15.9173 12.2667C15.9247 12.3714 15.9623 12.4537 16.0069 12.5213C16.0743 12.5953 16.1563 12.6257 16.261 12.6182C16.3282 12.6182 16.3805 12.5953 16.4251 12.5732C16.5526 12.476 16.5748 12.2966 16.5599 12.1097C16.5748 11.2654 15.6033 10.2857 14.7739 10.3083ZM18.6747 16.2284C18.2937 15.9291 17.875 15.6602 17.4866 15.3835C16.687 14.8452 15.9546 14.801 15.3643 15.6751C15.028 16.1687 14.557 16.1911 14.0714 15.974C12.7188 15.3835 11.68 14.4642 11.0673 13.1112C10.9775 12.902 10.9179 12.7004 10.9102 12.5135C10.8878 12.1546 11.0372 11.841 11.4409 11.5641C11.7771 11.3474 12.1058 11.0857 12.0835 10.5998C12.0538 9.96451 10.4841 7.84906 9.85677 7.61713C9.60243 7.52736 9.34836 7.54255 9.08686 7.61713C7.6296 8.10273 7.03176 9.2694 7.60713 10.6519C7.93592 11.4297 8.28726 12.1546 8.70569 12.8346C10.4918 15.8247 13.1221 18.0076 16.515 19.4352C16.7467 19.5324 17.0083 19.5773 17.1501 19.6072C18.0993 19.6221 19.2051 18.7176 19.5265 17.8353C19.8405 16.9759 19.183 16.6472 18.6747 16.2284ZM14.0043 8.04367C17.0454 8.50665 18.443 9.92678 18.8314 12.9247C18.8314 12.9547 18.8314 12.9771 18.8314 12.9989C18.8541 13.2755 18.8019 13.6347 19.1678 13.6347C19.4894 13.6422 19.5043 13.403 19.5043 13.1712C19.4894 13.0892 19.4894 13.0218 19.4894 12.9548C19.5267 10.1212 17.0083 7.4905 14.0939 7.40046C13.8622 7.43779 13.4137 7.25088 13.3766 7.73681C13.3689 8.05858 13.75 8.01329 14.0043 8.04367Z" fill="#898989"/>
</g>
</g>
<defs>
<clipPath id="clip0_567_452">
<rect width="27" height="27" fill="white"/>
</clipPath>
</defs>
</svg>
