<svg width="27" height="21" viewBox="0 0 27 21" fill="none" xmlns="http://www.w3.org/2000/svg">
<path d="M2.53125 0.375C1.13379 0.375 0 1.50879 0 2.90625C0 3.70254 0.374414 4.45137 1.0125 4.93125L12.4875 13.5375C13.0887 13.9857 13.9113 13.9857 14.5125 13.5375L25.9875 4.93125C26.6256 4.45137 27 3.70254 27 2.90625C27 1.50879 25.8662 0.375 24.4688 0.375H2.53125ZM0 6.28125V17.25C0 19.1115 1.51348 20.625 3.375 20.625H23.625C25.4865 20.625 27 19.1115 27 17.25V6.28125L15.525 14.8875C14.3227 15.7893 12.6773 15.7893 11.475 14.8875L0 6.28125Z" fill="white"/>
</svg>
