<svg width="21" height="21" viewBox="0 0 21 21" fill="none" xmlns="http://www.w3.org/2000/svg">
<path d="M15.5056 5.33067C15.5056 2.38641 13.1192 0 10.1745 0C7.22975 0 4.84375 2.38641 4.84375 5.33067C4.84375 9.54907 10.1745 15.7908 10.1745 15.7908C10.1745 15.7908 15.5056 9.52735 15.5056 5.33067ZM7.54547 5.01237C7.54547 3.56003 8.72295 2.38301 10.1749 2.38301C11.6268 2.38301 12.8043 3.56003 12.8043 5.01237C12.8043 6.46478 11.6268 7.64178 10.1749 7.64178C8.72295 7.64178 7.54547 6.46478 7.54547 5.01237Z" fill="white"/>
<path d="M10.1746 6.30517C10.8886 6.30517 11.4674 5.72637 11.4674 5.01242C11.4674 4.2984 10.8886 3.7196 10.1746 3.7196C9.46064 3.7196 8.88184 4.2984 8.88184 5.01242C8.88184 5.72637 9.46064 6.30517 10.1746 6.30517Z" fill="white"/>
<path d="M13.1891 13.9367C12.7546 14.5644 12.347 15.1117 12.0074 15.5508C15.3759 15.7529 17.5836 16.4802 18.4049 17.0215C17.4428 17.6559 14.5836 18.5478 10.1758 18.5478C5.76817 18.5478 2.90897 17.6555 1.94684 17.0215C2.76812 16.4806 4.97408 15.7538 8.33923 15.5512C7.9988 15.1121 7.59076 14.5653 7.15583 13.9376C3.01068 14.3457 0 15.5721 0 17.021C0 18.804 4.55624 20.25 10.1758 20.25C15.7959 20.25 20.3513 18.8044 20.3513 17.021C20.3522 15.5712 17.3381 14.3444 13.1891 13.9367Z" fill="white"/>
</svg>
