<svg width="27" height="27" viewBox="0 0 27 27" fill="none" xmlns="http://www.w3.org/2000/svg">
<g clip-path="url(#clip0_163_408)">
<path d="M15.5555 11.4261H15.0453C15.0267 11.4261 15.0083 11.4297 14.9911 11.4367C14.9739 11.4436 14.9582 11.4538 14.945 11.4666C14.9319 11.4795 14.9215 11.4948 14.9143 11.5116C14.9072 11.5283 14.9036 11.5463 14.9036 11.5644V13.4526L13.4151 11.5079C13.3957 11.4826 13.3705 11.462 13.3416 11.4479C13.3127 11.4337 13.2808 11.4263 13.2484 11.4263H12.7769C12.7583 11.4263 12.7399 11.43 12.7227 11.4369C12.7055 11.4439 12.6899 11.4541 12.6768 11.4669C12.6636 11.4798 12.6531 11.495 12.6461 11.5118C12.6389 11.5286 12.6353 11.5465 12.6353 11.5646V14.7052C12.6353 14.7419 12.6502 14.777 12.6768 14.803C12.7033 14.8289 12.7393 14.8435 12.7769 14.8435H13.2872C13.3248 14.8435 13.3609 14.8289 13.3875 14.803C13.4141 14.777 13.429 14.7419 13.429 14.7052V12.8348L14.9036 14.7616C14.9229 14.7869 14.948 14.8074 14.977 14.8216C15.0059 14.8357 15.0378 14.843 15.0701 14.843H15.5555C15.5931 14.843 15.6291 14.8285 15.6557 14.8025C15.6823 14.7766 15.6973 14.7414 15.6973 14.7047V11.5642C15.6973 11.5276 15.6823 11.4925 15.6557 11.4666C15.6291 11.4407 15.5931 11.4261 15.5555 11.4261Z" fill="white"/>
<path d="M10.7308 14.0686H9.32108V11.5642C9.32108 11.5461 9.31736 11.5281 9.31028 11.5113C9.30319 11.4945 9.29273 11.4793 9.27956 11.4664C9.2664 11.4536 9.25081 11.4434 9.2336 11.4364C9.21638 11.4295 9.19796 11.4259 9.17933 11.4259H8.66903C8.6504 11.4259 8.63197 11.4295 8.61482 11.4364C8.59761 11.4434 8.58202 11.4536 8.56886 11.4664C8.55569 11.4793 8.54523 11.4945 8.53814 11.5113C8.53099 11.5281 8.52734 11.5461 8.52734 11.5642V14.7047C8.52734 14.7414 8.54226 14.7766 8.56886 14.8025C8.59538 14.8285 8.63143 14.843 8.66903 14.843H10.7309C10.7685 14.843 10.8046 14.8285 10.8312 14.8025C10.8578 14.7766 10.8728 14.7415 10.8728 14.7047V14.2069C10.8728 14.1888 10.8691 14.1708 10.862 14.154C10.8548 14.1372 10.8443 14.1219 10.8312 14.1091C10.818 14.0962 10.8024 14.086 10.7851 14.0791C10.7679 14.0722 10.7494 14.0686 10.7308 14.0686Z" fill="white"/>
<path d="M11.4689 11.4259H11.9791C12.0167 11.4259 12.0528 11.4405 12.0794 11.4664C12.106 11.4924 12.1209 11.5275 12.1209 11.5642V14.7047C12.1209 14.7414 12.106 14.7766 12.0794 14.8025C12.0528 14.8285 12.0167 14.843 11.9791 14.843H11.4689C11.4313 14.843 11.3953 14.8285 11.3687 14.8025C11.3421 14.7766 11.3271 14.7414 11.3271 14.7047V11.5642C11.3271 11.5275 11.3421 11.4923 11.3687 11.4664C11.3953 11.4405 11.4313 11.4259 11.4689 11.4259Z" fill="white"/>
<path d="M13.5 1C6.04415 1 0 6.82029 0 14C0 21.1797 6.04415 27 13.5 27C20.9558 27 27 21.1797 27 14C27 6.82029 20.9558 1 13.5 1ZM17.3184 18.6116C15.3461 20.1268 13.9514 20.8134 13.2397 21.1029C13.1898 21.1232 13.1351 21.13 13.0815 21.1224C13.028 21.1149 12.9775 21.0935 12.9357 21.0603C12.8939 21.0272 12.8623 20.9836 12.8444 20.9344C12.8265 20.8852 12.8228 20.8322 12.834 20.7812C12.9077 20.4345 12.9626 20.0843 12.9986 19.7321C13.0159 19.5681 12.9659 19.4042 12.8595 19.2751C12.753 19.1461 12.5984 19.0623 12.4286 19.0415C8.89589 18.6058 6.11719 16.2375 6.11719 13.3477C6.11719 10.1463 9.4226 7.55103 13.5 7.55103C17.5774 7.55103 20.8828 10.1463 20.8828 13.3477C20.8828 15.5464 19.3809 17.0269 17.3184 18.6116Z" fill="white"/>
<path d="M18.4088 11.4261H16.3468C16.3283 11.4261 16.3098 11.4297 16.2926 11.4367C16.2754 11.4436 16.2598 11.4538 16.2466 11.4666C16.2334 11.4795 16.223 11.4948 16.2159 11.5115C16.2087 11.5283 16.2051 11.5463 16.2051 11.5644V14.705C16.2051 14.7417 16.22 14.7768 16.2466 14.8028C16.2732 14.8287 16.3092 14.8433 16.3468 14.8433H18.4088C18.4274 14.8433 18.4458 14.8397 18.463 14.8328C18.4802 14.8258 18.4959 14.8156 18.5091 14.8028C18.5222 14.79 18.5327 14.7747 18.5398 14.7579C18.5469 14.7411 18.5506 14.7231 18.5506 14.7049V14.207C18.5506 14.1888 18.5469 14.1708 18.5398 14.154C18.5327 14.1372 18.5222 14.122 18.5091 14.1092C18.4959 14.0963 18.4802 14.0861 18.463 14.0792C18.4458 14.0722 18.4274 14.0687 18.4088 14.0687H16.999V13.5217H18.4088C18.4463 13.5217 18.4825 13.5071 18.5091 13.4812C18.5356 13.4552 18.5506 13.4201 18.5506 13.3834V12.8855C18.5506 12.8674 18.5469 12.8494 18.5398 12.8326C18.5327 12.8158 18.5222 12.8006 18.5091 12.7877C18.4959 12.7749 18.4802 12.7647 18.463 12.7577C18.4458 12.7508 18.4274 12.7472 18.4088 12.7472H16.999V12.2003H18.4088C18.4274 12.2003 18.4458 12.1967 18.463 12.1898C18.4802 12.1828 18.4959 12.1727 18.5091 12.1598C18.5222 12.1469 18.5327 12.1317 18.5398 12.1149C18.5469 12.0981 18.5506 12.0801 18.5506 12.062V11.5642C18.5505 11.5276 18.5355 11.4925 18.5089 11.4666C18.4823 11.4407 18.4463 11.4261 18.4088 11.4261Z" fill="white"/>
</g>
<defs>
<clipPath id="clip0_163_408">
<rect width="27" height="27" fill="white"/>
</clipPath>
</defs>
</svg>
