<svg width="27" height="27" viewBox="0 0 27 27" fill="none" xmlns="http://www.w3.org/2000/svg">
<g clip-path="url(#clip0_72_745)">
<path d="M27 13.5C27 6.04415 20.9558 0 13.5 0C6.04415 0 0 6.04415 0 13.5C0 20.2383 4.93678 25.8232 11.3906 26.836V17.4023H7.96291V13.5H11.3906V10.5258C11.3906 7.14231 13.4061 5.27344 16.4898 5.27344C17.9668 5.27344 19.5117 5.53711 19.5117 5.53711V8.85938H17.8094C16.1324 8.85938 15.6094 9.89996 15.6094 10.9676V13.5H19.3535L18.755 17.4023H15.6094V26.836C22.0633 25.8232 27 20.2383 27 13.5Z" fill="white"/>
</g>
<defs>
<clipPath id="clip0_72_745">
<rect width="27" height="27" fill="white"/>
</clipPath>
</defs>
</svg>
