<svg width="27" height="27" viewBox="0 0 27 27" fill="none" xmlns="http://www.w3.org/2000/svg">
<path d="M23.0466 3.95413C20.6027 1.51037 17.2253 0 13.5037 0C9.77474 0 6.39689 1.51037 3.95334 3.95413C1.51691 6.39874 0 9.77731 0 13.4999C0 17.2301 1.51691 20.6012 3.95334 23.0458C6.39689 25.4898 9.77474 27 13.5037 27C17.2252 27 20.6027 25.4898 23.0466 23.0458C25.4828 20.6012 27 17.2301 27 13.4999C27 9.77731 25.4828 6.39874 23.0466 3.95413Z" fill="white"/>
<path fill-rule="evenodd" clip-rule="evenodd" d="M14.6023 8.86569C14.3035 8.82789 13.9224 8.70093 13.8552 9.09708C13.7806 9.50816 14.2063 9.47859 14.4828 9.5382C16.3661 9.94954 17.0087 10.6218 17.3226 12.4463C17.3373 12.5212 17.3452 12.6181 17.3452 12.7003C17.3675 12.917 17.4198 13.1111 17.7485 13.0517C17.913 13.0291 17.9728 12.9397 17.9803 12.8127C18.0027 12.7003 17.9803 12.5507 17.9953 12.4463C18.0027 10.6891 16.4707 9.09708 14.6023 8.86569ZM14.7744 10.3082C14.5801 10.3082 14.3856 10.3306 14.311 10.5401C14.1988 10.8391 14.4307 10.9211 14.6621 10.9583C15.4319 11.0707 15.8356 11.5193 15.9177 12.2666C15.9252 12.3712 15.9628 12.4536 16.0074 12.5212C16.0747 12.5952 16.1568 12.6256 16.2615 12.6181C16.3287 12.6181 16.381 12.5952 16.4256 12.5731C16.5531 12.4759 16.5753 12.2965 16.5603 12.1095C16.5753 11.2653 15.6038 10.2856 14.7744 10.3082ZM18.6752 16.2283C18.2941 15.929 17.8755 15.6601 17.487 15.3834C16.6875 14.8451 15.9551 14.8009 15.3648 15.675C15.0285 16.1686 14.5575 16.1909 14.0719 15.9739C12.7193 15.3834 11.6805 14.4641 11.0678 13.1111C10.978 12.9019 10.9184 12.7003 10.9107 12.5134C10.8882 12.1545 11.0377 11.8409 11.4414 11.5639C11.7776 11.3473 12.1063 11.0856 12.084 10.5996C12.0542 9.96439 10.4846 7.84894 9.85725 7.61701C9.60291 7.52724 9.34884 7.54242 9.08735 7.61701C7.63009 8.10261 7.03224 9.26928 7.60761 10.6518C7.93641 11.4295 8.28774 12.1545 8.70618 12.8345C10.4923 15.8246 13.1226 18.0075 16.5155 19.435C16.7472 19.5322 17.0087 19.5772 17.1506 19.607C18.0998 19.622 19.2056 18.7175 19.527 17.8352C19.841 16.9758 19.1835 16.6471 18.6752 16.2283ZM14.0048 8.04354C17.0459 8.50653 18.4435 9.92666 18.8319 12.9245C18.8319 12.9546 18.8319 12.977 18.8319 12.9988C18.8546 13.2754 18.8024 13.6346 19.1683 13.6346C19.4899 13.6421 19.5048 13.4029 19.5048 13.171C19.4899 13.089 19.4899 13.0217 19.4899 12.9546C19.5272 10.1211 17.0088 7.49038 14.0944 7.40034C13.8627 7.43766 13.4142 7.25076 13.377 7.73669C13.3693 8.05846 13.7505 8.01317 14.0048 8.04354Z" fill="#10325A"/>
</svg>
