<svg width="680" height="278" viewBox="0 0 680 278" fill="none" xmlns="http://www.w3.org/2000/svg">
<path d="M0 61.9639H59.4778V254.068H0V61.9639Z" fill="#F2F2F2"/>
<path d="M91.7915 198.319L145.055 187.666C146.298 196.898 149.671 204 154.998 210.037C161.922 215.896 170.622 219.624 181.985 219.624C190.507 219.624 197.076 217.671 201.515 213.588C206.131 209.682 208.439 205.065 208.439 199.739C208.439 194.768 206.309 190.329 201.87 186.423C197.431 182.517 187.311 178.789 171.51 175.238C145.41 169.379 126.946 161.567 115.76 151.979C104.575 142.214 98.8933 129.964 98.8933 114.872C98.8933 104.93 101.734 95.6972 107.416 86.8199C113.097 78.1201 121.797 71.1958 133.16 66.047C144.7 61.0757 160.324 58.5901 180.387 58.5901C204.888 58.5901 223.708 63.2063 236.491 72.2611C249.452 81.316 256.021 92.3238 259.572 106.527L203.645 119.133C202.225 110.433 199.029 104.219 194.235 100.313C189.442 96.4073 182.872 94.4543 174.528 94.4543C167.604 94.4543 162.455 95.8747 158.904 98.893C155.353 101.734 153.577 105.462 153.577 109.546C153.577 112.564 154.998 115.405 157.839 117.89C160.679 120.376 167.248 122.862 177.724 124.992C203.645 130.674 222.288 136.178 233.473 142.037C244.658 147.718 252.826 154.82 257.974 163.342C263.123 171.864 265.609 181.274 265.609 191.749C265.609 204 262.235 215.363 255.311 225.838C248.564 236.313 238.977 244.125 226.726 249.452C214.476 254.778 199.029 257.441 180.387 257.441C147.718 257.441 124.993 251.227 112.564 238.622C100.136 226.016 95.1649 217.494 91.7915 198.319Z" fill="#FFF3F6"/>
<path d="M306.088 61.9639H454.872V102.977H355.269V133.515H438.715V172.752H355.269V210.57H457.712V254.068H306.088V61.9639Z" fill="#F2F2F2"/>
<path d="M482.392 158.193C482.392 126.768 490.914 102.444 507.959 84.8669C525.003 67.4674 548.794 58.5901 579.155 58.5901C610.403 58.5901 634.371 67.1123 651.238 84.3342C668.105 101.556 676.627 125.525 676.627 156.418C676.627 178.966 672.899 197.253 665.619 211.635C658.162 226.016 647.51 237.201 633.661 245.191C619.635 253.18 602.413 257.264 581.463 257.264C560.335 257.264 542.758 253.89 528.909 246.966C515.06 240.042 503.875 229.212 495.175 214.12C486.653 199.384 482.392 180.742 482.392 158.193ZM547.729 158.548C547.729 177.901 550.57 191.927 556.251 200.449C561.933 208.971 569.745 213.232 579.51 213.232C589.63 213.232 597.442 209.149 602.946 200.804C608.45 192.46 611.29 177.546 611.29 156.063C611.29 137.953 608.45 124.815 602.591 116.47C596.909 108.125 588.92 103.864 579.155 103.864C569.745 103.864 562.11 108.125 556.429 116.648C550.57 124.815 547.729 138.841 547.729 158.548Z" fill="#F2F2F2"/>
<path d="M266.141 0H0V40.3029H266.141V0Z" fill="#FFF3F6"/>
<path d="M668.815 77.4101C662.601 77.4101 657.629 72.4388 657.629 66.2247C657.629 60.0106 662.601 55.0393 668.815 55.0393C675.029 55.0393 680 60.0106 680 66.2247C680 72.2613 675.029 77.4101 668.815 77.4101ZM668.815 55.927C663.311 55.927 658.695 60.5432 658.695 66.0471C658.695 71.5511 663.311 76.1673 668.815 76.1673C674.319 76.1673 678.935 71.5511 678.935 66.0471C678.935 60.5432 674.496 55.927 668.815 55.927Z" fill="#F2F2F2"/>
<path d="M665.797 60.3655H670.413C671.123 60.3655 671.656 60.5431 672.011 60.7206C672.721 61.0757 673.076 61.7859 673.076 62.8512C673.076 63.7389 672.898 64.4491 672.366 64.8042C671.833 65.1593 671.123 65.3368 670.235 65.3368H665.797V60.3655ZM665.797 72.9713V66.9347H670.235C670.945 66.9347 671.656 66.9347 672.011 67.1123C672.721 67.4674 673.076 68 673.076 68.8877L673.254 71.1958C673.254 71.7285 673.254 72.0836 673.431 72.2611C673.431 72.4387 673.609 72.6162 673.609 72.7937H675.917V72.6162C675.562 72.4387 675.384 72.2611 675.384 71.7285C675.384 71.5509 675.207 71.0183 675.207 70.4857V68.5327C675.207 67.6449 675.029 67.1123 674.674 66.7572C674.319 66.4021 673.964 66.047 673.431 65.8695C674.141 65.5144 674.496 65.1593 674.851 64.6266C675.207 64.094 675.384 63.3838 675.384 62.4961C675.384 60.8982 674.674 59.8329 673.431 59.1227C672.721 58.7676 671.833 58.5901 670.768 58.5901H664.199V72.7937H665.797V72.9713Z" fill="#F2F2F2"/>
</svg>
