<svg width="58" height="58" viewBox="0 0 58 58" fill="none" xmlns="http://www.w3.org/2000/svg">
<path d="M5.4375 7.25C2.43555 7.25 0 9.68555 0 12.6875C0 14.398 0.804297 16.0066 2.175 17.0375L26.825 35.525C28.1164 36.4879 29.8836 36.4879 31.175 35.525L55.825 17.0375C57.1957 16.0066 58 14.398 58 12.6875C58 9.68555 55.5645 7.25 52.5625 7.25H5.4375ZM0 19.9375V43.5C0 47.4988 3.25117 50.75 7.25 50.75H50.75C54.7488 50.75 58 47.4988 58 43.5V19.9375L33.35 38.425C30.7672 40.3621 27.2328 40.3621 24.65 38.425L0 19.9375Z" fill="#10325A"/>
</svg>
