<svg width="58" height="58" viewBox="0 0 58 58" fill="none" xmlns="http://www.w3.org/2000/svg">
<mask id="mask0_568_491" style="mask-type:luminance" maskUnits="userSpaceOnUse" x="0" y="0" width="58" height="58">
<path d="M58 0H0V58H58V0Z" fill="white"/>
</mask>
<g mask="url(#mask0_568_491)">
<path d="M33.4157 24.0609H32.3198C32.2798 24.0609 32.2402 24.0687 32.2032 24.0841C32.1662 24.0993 32.1326 24.1218 32.1043 24.1501C32.0761 24.1784 32.0537 24.212 32.0384 24.249C32.0231 24.2858 32.0153 24.3254 32.0153 24.3654V28.5229L28.8178 24.2409C28.7761 24.1852 28.7221 24.1399 28.66 24.1088C28.5978 24.0776 28.5292 24.0614 28.4598 24.0614H27.4469C27.4069 24.0614 27.3673 24.0693 27.3305 24.0845C27.2935 24.0999 27.2599 24.1224 27.2318 24.1507C27.2035 24.1789 27.181 24.2124 27.1658 24.2494C27.1504 24.2864 27.1426 24.326 27.1426 24.3658V31.2809C27.1426 31.3617 27.1746 31.4391 27.2318 31.4962C27.2887 31.5534 27.3662 31.5854 27.4469 31.5854H28.5431C28.6239 31.5854 28.7013 31.5534 28.7585 31.4962C28.8156 31.4391 28.8476 31.3617 28.8476 31.2809V27.1625L32.0153 31.405C32.0568 31.4607 32.1107 31.5059 32.1729 31.5371C32.235 31.5681 32.3036 31.5844 32.373 31.5844H33.4157C33.4965 31.5844 33.5739 31.5523 33.631 31.4952C33.6882 31.4381 33.7204 31.3606 33.7204 31.2799V24.3648C33.7202 24.2842 33.688 24.2069 33.6309 24.1499C33.5738 24.093 33.4965 24.0609 33.4157 24.0609Z" fill="#898989"/>
<path d="M23.0517 29.8793H20.0234V24.3649C20.0234 24.3249 20.0154 24.2853 20.0002 24.2483C19.985 24.2114 19.9625 24.1779 19.9342 24.1496C19.906 24.1213 19.8725 24.0988 19.8355 24.0835C19.7985 24.0683 19.7589 24.0604 19.7189 24.0604H18.6227C18.5827 24.0604 18.5431 24.0683 18.5063 24.0835C18.4693 24.0988 18.4358 24.1213 18.4075 24.1496C18.3793 24.1779 18.3568 24.2114 18.3416 24.2483C18.3262 24.2853 18.3184 24.3249 18.3184 24.3649V31.2798C18.3184 31.3606 18.3504 31.438 18.4075 31.4952C18.4645 31.5523 18.5419 31.5843 18.6227 31.5843H23.052C23.1328 31.5843 23.2102 31.5523 23.2674 31.4952C23.3245 31.4382 23.3567 31.3607 23.3567 31.2798V30.1838C23.3567 30.1438 23.3487 30.1042 23.3335 30.0672C23.3181 30.0302 23.2956 29.9966 23.2674 29.9683C23.2389 29.94 23.2054 29.9176 23.1683 29.9023C23.1313 29.8871 23.0918 29.8793 23.0517 29.8793Z" fill="#898989"/>
<path d="M24.6368 24.0604H25.7328C25.8136 24.0604 25.891 24.0925 25.9482 24.1496C26.0053 24.2067 26.0373 24.2842 26.0373 24.3649V31.2798C26.0373 31.3606 26.0053 31.4382 25.9482 31.4952C25.891 31.5523 25.8136 31.5843 25.7328 31.5843H24.6368C24.556 31.5843 24.4786 31.5523 24.4215 31.4952C24.3643 31.438 24.3323 31.3606 24.3323 31.2798V24.3649C24.3323 24.2842 24.3643 24.2066 24.4215 24.1496C24.4786 24.0925 24.556 24.0604 24.6368 24.0604Z" fill="#898989"/>
<path d="M29 0C12.9837 0 0 12.9837 0 29C0 45.0163 12.9837 58 29 58C45.0163 58 58 45.0163 58 29C58 12.9837 45.0163 0 29 0ZM37.2025 39.2873C32.9658 42.6676 29.9698 44.1991 28.4409 44.845C28.3337 44.8903 28.2161 44.9053 28.101 44.8885C27.986 44.8717 27.8777 44.8239 27.7878 44.7499C27.698 44.676 27.6302 44.5788 27.5918 44.469C27.5532 44.3593 27.5454 44.2411 27.5693 44.1273C27.7276 43.3538 27.8457 42.5726 27.9229 41.787C27.9601 41.4211 27.8528 41.0555 27.6241 40.7676C27.3954 40.4798 27.0632 40.2928 26.6986 40.2464C19.1097 39.2746 13.1406 33.9913 13.1406 27.5448C13.1406 20.4033 20.2411 14.6138 29 14.6138C37.7589 14.6138 44.8594 20.4033 44.8594 27.5448C44.8594 32.4497 41.6331 35.7524 37.2025 39.2873Z" fill="#898989"/>
<path d="M39.5449 24.0609H35.1155C35.0757 24.0609 35.0359 24.0687 34.9991 24.0841C34.9621 24.0993 34.9285 24.1218 34.9002 24.1501C34.8719 24.1784 34.8495 24.212 34.8342 24.2488C34.8189 24.2858 34.811 24.3254 34.811 24.3654V31.2805C34.811 31.3612 34.8431 31.4387 34.9002 31.4958C34.9573 31.5529 35.0348 31.585 35.1155 31.585H39.5449C39.5849 31.585 39.6245 31.5771 39.6614 31.5618C39.6984 31.5465 39.732 31.5241 39.7603 31.4958C39.7886 31.4675 39.8111 31.4339 39.8263 31.3969C39.8417 31.3599 39.8495 31.3203 39.8495 31.2803V30.1838C39.8495 30.1438 39.8417 30.1042 39.8263 30.0672C39.8111 30.0303 39.7886 29.9968 39.7603 29.9685C39.732 29.9402 39.6984 29.9178 39.6614 29.9025C39.6245 29.8872 39.5849 29.8793 39.5449 29.8793H36.5165V28.675H39.5449C39.6256 28.675 39.7032 28.6428 39.7603 28.5858C39.8173 28.5287 39.8495 28.4512 39.8495 28.3705V27.2743C39.8495 27.2342 39.8417 27.1947 39.8263 27.1577C39.8111 27.1207 39.7886 27.0872 39.7603 27.0589C39.732 27.0307 39.6984 27.0082 39.6614 26.9928C39.6245 26.9776 39.5849 26.9696 39.5449 26.9696H36.5165V25.7655H39.5449C39.5849 25.7655 39.6245 25.7576 39.6614 25.7423C39.6984 25.727 39.732 25.7046 39.7603 25.6762C39.7886 25.6479 39.8111 25.6144 39.8263 25.5775C39.8417 25.5405 39.8495 25.5009 39.8495 25.4609V24.3648C39.8494 24.2842 39.8172 24.2069 39.76 24.1499C39.7029 24.093 39.6256 24.0609 39.5449 24.0609Z" fill="#898989"/>
</g>
</svg>
