<svg width="58" height="59" viewBox="0 0 58 59" fill="none" xmlns="http://www.w3.org/2000/svg">
<mask id="mask0_353_27" style="mask-type:luminance" maskUnits="userSpaceOnUse" x="0" y="0" width="58" height="59">
<path d="M58 0.0977783H0V58.0978H58V0.0977783Z" fill="white"/>
</mask>
<g mask="url(#mask0_353_27)">
<path d="M33.4157 24.1587H32.3198C32.2798 24.1587 32.2402 24.1665 32.2032 24.1819C32.1662 24.1971 32.1326 24.2196 32.1043 24.2478C32.0761 24.2761 32.0537 24.3098 32.0384 24.3467C32.0231 24.3836 32.0153 24.4231 32.0153 24.4632V28.6206L28.8178 24.3386C28.7761 24.2829 28.7221 24.2377 28.66 24.2065C28.5978 24.1753 28.5292 24.1591 28.4598 24.1591H27.4469C27.4069 24.1591 27.3673 24.1671 27.3305 24.1823C27.2935 24.1977 27.2599 24.2201 27.2318 24.2484C27.2035 24.2767 27.181 24.3102 27.1658 24.3472C27.1504 24.3841 27.1426 24.4237 27.1426 24.4636V31.3786C27.1426 31.4594 27.1746 31.5368 27.2318 31.594C27.2887 31.6511 27.3662 31.6831 27.4469 31.6831H28.5431C28.6239 31.6831 28.7013 31.6511 28.7585 31.594C28.8156 31.5368 28.8476 31.4594 28.8476 31.3786V27.2602L32.0153 31.5028C32.0568 31.5584 32.1107 31.6037 32.1729 31.6349C32.235 31.6659 32.3036 31.6821 32.373 31.6821H33.4157C33.4965 31.6821 33.5739 31.6501 33.631 31.593C33.6882 31.5358 33.7204 31.4584 33.7204 31.3776V24.4626C33.7202 24.382 33.688 24.3047 33.6309 24.2477C33.5738 24.1907 33.4965 24.1587 33.4157 24.1587Z" fill="#10325A"/>
<path d="M23.0516 29.9771H20.0233V24.4627C20.0233 24.4227 20.0153 24.3831 20.0001 24.3462C19.9849 24.3092 19.9624 24.2757 19.9341 24.2474C19.9058 24.2191 19.8723 24.1967 19.8354 24.1813C19.7984 24.1661 19.7588 24.1582 19.7188 24.1582H18.6226C18.5826 24.1582 18.543 24.1661 18.5062 24.1813C18.4692 24.1967 18.4357 24.2191 18.4074 24.2474C18.3791 24.2757 18.3567 24.3092 18.3414 24.3462C18.3261 24.3831 18.3182 24.4227 18.3182 24.4627V31.3776C18.3182 31.4584 18.3503 31.5358 18.4074 31.593C18.4644 31.6501 18.5418 31.6821 18.6226 31.6821H23.0519C23.1327 31.6821 23.2101 31.6501 23.2672 31.593C23.3244 31.536 23.3566 31.4585 23.3566 31.3776V30.2816C23.3566 30.2416 23.3486 30.202 23.3333 30.165C23.318 30.128 23.2955 30.0944 23.2672 30.0661C23.2388 30.0378 23.2053 30.0154 23.1682 30.0001C23.1312 29.9849 23.0916 29.9771 23.0516 29.9771Z" fill="#10325A"/>
<path d="M24.6367 24.1582H25.7327C25.8135 24.1582 25.8909 24.1903 25.948 24.2474C26.0052 24.3045 26.0372 24.382 26.0372 24.4627V31.3776C26.0372 31.4584 26.0052 31.536 25.948 31.593C25.8909 31.6501 25.8135 31.6821 25.7327 31.6821H24.6367C24.5559 31.6821 24.4785 31.6501 24.4213 31.593C24.3642 31.5358 24.3322 31.4584 24.3322 31.3776V24.4627C24.3322 24.382 24.3642 24.3044 24.4213 24.2474C24.4785 24.1903 24.5559 24.1582 24.6367 24.1582Z" fill="#10325A"/>
<path d="M29 0.0977783C12.9837 0.0977783 0 13.0815 0 29.0978C0 45.1141 12.9837 58.0978 29 58.0978C45.0163 58.0978 58 45.1141 58 29.0978C58 13.0815 45.0163 0.0977783 29 0.0977783ZM37.2025 39.3851C32.9658 42.7653 29.9698 44.2968 28.4409 44.9428C28.3337 44.988 28.2161 45.0031 28.101 44.9863C27.986 44.9695 27.8777 44.9216 27.7878 44.8477C27.698 44.7737 27.6302 44.6766 27.5918 44.5668C27.5532 44.4571 27.5454 44.3389 27.5693 44.2251C27.7276 43.4516 27.8457 42.6704 27.9229 41.8848C27.9601 41.5189 27.8528 41.1532 27.6241 40.8654C27.3954 40.5776 27.0632 40.3905 26.6986 40.3441C19.1097 39.3723 13.1406 34.0891 13.1406 27.6426C13.1406 20.501 20.2411 14.7116 29 14.7116C37.7589 14.7116 44.8594 20.501 44.8594 27.6426C44.8594 32.5475 41.6331 35.8502 37.2025 39.3851Z" fill="#10325A"/>
<path d="M39.5449 24.1587H35.1155C35.0757 24.1587 35.0359 24.1665 34.9991 24.1819C34.9621 24.1971 34.9285 24.2196 34.9002 24.2478C34.8719 24.2761 34.8495 24.3098 34.8342 24.3466C34.8189 24.3836 34.811 24.4231 34.811 24.4632V31.3782C34.811 31.459 34.8431 31.5364 34.9002 31.5935C34.9573 31.6507 35.0348 31.6827 35.1155 31.6827H39.5449C39.5849 31.6827 39.6245 31.6749 39.6614 31.6595C39.6984 31.6443 39.732 31.6218 39.7603 31.5935C39.7886 31.5653 39.8111 31.5316 39.8263 31.4946C39.8417 31.4577 39.8495 31.4181 39.8495 31.3781V30.2816C39.8495 30.2416 39.8417 30.202 39.8263 30.165C39.8111 30.128 39.7886 30.0945 39.7603 30.0662C39.732 30.038 39.6984 30.0155 39.6614 30.0003C39.6245 29.9849 39.5849 29.9771 39.5449 29.9771H36.5165V28.7727H39.5449C39.6256 28.7727 39.7032 28.7405 39.7603 28.6835C39.8173 28.6264 39.8495 28.549 39.8495 28.4682V27.372C39.8495 27.332 39.8417 27.2924 39.8263 27.2554C39.8111 27.2185 39.7886 27.185 39.7603 27.1567C39.732 27.1284 39.6984 27.1059 39.6614 27.0906C39.6245 27.0753 39.5849 27.0674 39.5449 27.0674H36.5165V25.8633H39.5449C39.5849 25.8633 39.6245 25.8553 39.6614 25.8401C39.6984 25.8247 39.732 25.8024 39.7603 25.774C39.7886 25.7457 39.8111 25.7122 39.8263 25.6752C39.8417 25.6382 39.8495 25.5987 39.8495 25.5586V24.4626C39.8494 24.382 39.8172 24.3047 39.76 24.2477C39.7029 24.1907 39.6256 24.1587 39.5449 24.1587Z" fill="#10325A"/>
</g>
</svg>
