<svg width="251" height="61" viewBox="0 0 251 61" fill="none" xmlns="http://www.w3.org/2000/svg">
<g clip-path="url(#clip0_545_47)">
<path d="M34.317 14.0857C35.3894 13.2337 36.9698 12.7793 39.0582 12.7793H44.5896C46.8473 12.7793 48.4841 13.1769 49.5565 13.9721L83.7607 41.9162C84.7202 42.7682 84.0993 43.2225 81.8416 43.2225H72.8108C70.5531 43.2225 68.9163 42.825 67.8439 42.0298C65.5297 40.2691 63.272 38.4516 61.1837 36.6341C60.2806 36.0093 58.926 35.6685 57.1198 35.6685H27.2053C25.3991 35.6685 23.9316 36.0661 22.8027 36.8613L16.4812 42.0298C15.4088 42.825 13.7719 43.2225 11.5142 43.2225H2.48342C0.225717 43.2225 -0.451593 42.825 0.451488 42.0298L34.317 14.0857ZM43.3478 21.6965C42.5012 20.9581 41.6545 21.0149 40.7515 21.7533C37.5907 24.3091 34.5992 26.8082 31.7207 29.3641C30.8176 30.216 31.2691 30.6704 33.0753 30.6704H51.1369C52.9995 30.6704 53.451 30.2728 52.4915 29.4209L43.3478 21.6965Z" fill="black"/>
<path d="M92.9609 14.0857C92.9609 13.2337 94.0333 12.7793 96.1217 12.7793H120.731C131.737 12.8361 140.711 14.0289 147.823 16.3007C152.734 18.4022 154.766 20.9013 153.919 23.7412C153.637 26.2402 150.758 28.4553 145.34 30.3296C136.478 32.5447 124.907 33.4534 110.571 33.1127C108.708 33.1127 107.749 33.4534 107.749 34.0782V41.973C107.749 42.825 106.62 43.2225 104.362 43.2225H96.4604C94.1462 43.2225 92.9609 42.825 92.9609 42.0298V14.0857ZM138.228 24.3091C140.486 20.5037 135.236 18.3454 122.537 17.7775H110.571C108.708 17.7775 107.749 18.1182 107.749 18.743V27.0354C107.749 27.7169 108.652 28.0577 110.458 28.0577H122.65C130.552 28.0577 135.744 26.8082 138.228 24.3091Z" fill="black"/>
<path d="M163.119 14.0857C163.119 13.2337 164.192 12.7793 166.28 12.7793H191.679C201.444 12.8929 210.474 13.9153 218.771 15.8464C225.375 17.5503 229.721 19.6518 231.866 22.0372C236.325 27.2626 235.309 32.0903 228.931 36.5205C222.666 39.9283 214.2 41.973 203.419 42.6546C200.089 42.9385 196.082 43.1657 191.34 43.2225H166.619C164.304 43.2225 163.119 42.825 163.119 42.0298V14.0857ZM197.323 18.0614C191.679 17.7775 186.204 17.6639 180.955 17.7207C179.092 17.7207 178.133 18.0615 178.133 18.6862V37.3156C178.133 37.9972 179.036 38.338 180.842 38.338H193.034C199.976 38.338 205.959 37.486 211.095 35.8389C218.038 32.9423 220.295 29.4209 217.981 25.2747C215.103 21.0717 208.217 18.6862 197.323 18.0614Z" fill="black"/>
<path d="M237.566 3.74859C237.566 3.5214 237.679 3.40781 237.962 3.40781H242.138C243.041 3.4646 243.775 3.63499 244.452 3.97578C244.904 4.25976 245.186 4.54375 245.299 4.88453C245.751 5.79328 245.525 6.58844 244.622 7.27C244.34 7.3836 244.396 7.55399 244.678 7.78118C244.96 8.06516 245.13 8.34915 245.186 8.63313L245.525 10.337C245.581 10.5642 245.807 10.8482 246.202 11.189C246.428 11.3594 246.428 11.4162 246.089 11.4162H244.396C244.114 11.4162 243.888 11.3026 243.719 11.0754C243.493 10.5642 243.324 9.76907 243.154 8.63313C243.098 8.29235 242.816 8.17876 242.308 8.17876H239.881C239.655 8.17876 239.485 8.29235 239.485 8.40594V11.0754C239.485 11.3026 239.316 11.4162 239.034 11.4162H238.018C237.736 11.4162 237.566 11.3026 237.566 11.0754V3.74859ZM243.324 5.22531C242.928 4.88453 242.42 4.71414 241.743 4.71414H239.881C239.655 4.71414 239.485 4.82773 239.485 4.99812V6.58844C239.485 6.75883 239.598 6.87242 239.824 6.87242H241.574C241.969 6.87242 242.364 6.75883 242.759 6.64524C243.549 6.30445 243.719 5.85008 243.324 5.22531Z" fill="black"/>
<path d="M241.066 14.0856C246.427 14.0856 250.774 10.9833 250.774 7.15641C250.774 3.3295 246.427 0.227173 241.066 0.227173C235.704 0.227173 231.357 3.3295 231.357 7.15641C231.357 10.9833 235.704 14.0856 241.066 14.0856Z" stroke="black" stroke-width="0.75" stroke-miterlimit="10"/>
<path d="M0 54.4115C0 54.2412 0.112885 54.1844 0.395098 54.1844H7.22465C7.50686 54.1844 7.61974 54.2412 7.61974 54.4115V54.9227C7.61974 55.0931 7.50686 55.1499 7.22465 55.1499H2.08837C1.8626 55.1499 1.74972 55.2067 1.74972 55.3203V56.3426C1.74972 56.4562 1.8626 56.513 2.08837 56.513H7.05532C7.33753 56.513 7.45042 56.5698 7.45042 56.7402V57.2514C7.45042 57.4218 7.33753 57.4786 7.05532 57.4786H2.08837C1.8626 57.4786 1.74972 57.5354 1.74972 57.649V59.7505C1.74972 59.9209 1.63683 59.9777 1.35462 59.9777H0.395098C0.112885 59.9777 0 59.9209 0 59.7505V54.4115Z" fill="black"/>
<path d="M12.7553 54.4115C12.8682 54.2412 13.0939 54.1844 13.3197 54.1844H13.997C14.2792 54.1844 14.4486 54.2412 14.5614 54.4115L18.6253 59.8641C18.7382 60.0344 18.6818 60.0912 18.3995 60.0912H17.3271C17.0449 60.0912 16.8756 60.0344 16.7063 59.8641C16.4241 59.5233 16.1418 59.1825 15.9161 58.8417C15.8032 58.7281 15.6339 58.6713 15.4081 58.6713H11.8522C11.6264 58.6713 11.4571 58.7281 11.3442 58.8985L10.6105 59.9209C10.4976 60.0912 10.2718 60.148 10.046 60.148H8.97364C8.69143 60.148 8.63498 60.0912 8.74787 59.9209L12.7553 54.4115ZM13.8277 55.8883C13.7148 55.7747 13.6019 55.7747 13.489 55.8883C13.0939 56.3994 12.7553 56.8538 12.4166 57.365C12.3037 57.5354 12.3602 57.5922 12.586 57.5922H14.7308C14.9565 57.5922 15.013 57.5354 14.9001 57.365L13.8277 55.8883Z" fill="black"/>
<path d="M19.7559 54.4115C19.7559 54.2412 19.8687 54.1844 20.151 54.1844H21.1669C21.4491 54.1844 21.6749 54.2412 21.8442 54.4115C23.1424 55.6043 24.497 56.8538 25.8517 58.0466C26.021 58.2169 26.1339 58.1601 26.1339 57.9898V54.4115C26.1339 54.2412 26.2468 54.1844 26.529 54.1844H27.4885C27.7707 54.1844 27.8836 54.2412 27.8836 54.4115V59.8641C27.8836 60.0344 27.7707 60.0912 27.4885 60.0912H26.529C26.2468 60.0912 26.021 60.0344 25.8517 59.8641C24.5535 58.6713 23.1989 57.4218 21.8442 56.229C21.6749 56.0587 21.562 56.1155 21.562 56.229V59.8641C21.562 60.0344 21.4491 60.0912 21.1669 60.0912H20.2074C19.9252 60.0912 19.8123 60.0344 19.8123 59.8641V54.4115H19.7559Z" fill="black"/>
<path d="M29.2363 54.4115C29.2363 54.2412 29.3492 54.1844 29.6314 54.1844H33.4695C34.2597 54.2412 34.9935 54.3547 35.5579 54.6387C35.953 54.8659 36.2352 55.0931 36.3481 55.3203C36.7432 56.0019 36.5739 56.5698 35.7272 57.081C35.5015 57.1946 35.5015 57.3082 35.7837 57.4786C36.0659 57.7058 36.1788 57.8762 36.2352 58.1034L36.5174 59.3529C36.5739 59.5233 36.7432 59.6937 37.1383 59.9777C37.3641 60.0912 37.3076 60.148 37.0254 60.148H35.5015C35.2192 60.148 35.0499 60.0912 34.8806 59.9209C34.7113 59.5233 34.5419 58.9553 34.3726 58.1034C34.3162 57.8762 34.0339 57.7626 33.5824 57.7626H31.3247C31.0989 57.7626 30.986 57.8194 30.986 57.933V59.9209C30.986 60.0912 30.8732 60.148 30.5909 60.148H29.6879C29.4057 60.148 29.2928 60.0912 29.2928 59.9209V54.4115H29.2363ZM34.429 55.4907C34.0904 55.2635 33.5824 55.1499 32.9615 55.0931H31.2683C31.0425 55.0931 30.9296 55.1499 30.9296 55.2635V56.4562C30.9296 56.5698 31.0425 56.6266 31.2683 56.6266H32.8487C33.2437 56.6266 33.5824 56.5698 33.9211 56.4562C34.6548 56.2858 34.8241 55.9451 34.429 55.4907Z" fill="black"/>
<path d="M40.9774 54.4115C42.332 54.0139 43.7995 53.9003 45.267 54.1843C46.5652 54.4683 47.5247 54.9795 47.9763 55.6611C48.202 56.0018 48.3714 56.4562 48.4278 56.8538C48.5407 57.7625 48.202 58.5009 47.4683 59.1257C46.9603 59.5232 46.3394 59.8072 45.4928 60.0344C44.7026 60.2048 43.856 60.2616 42.8964 60.2048C41.1467 60.148 39.8485 59.5233 39.1148 58.3873C38.6632 57.4218 38.6632 56.513 39.2277 55.6611C39.5663 55.1499 40.1872 54.6955 40.9774 54.4115ZM43.348 54.9795C42.4449 54.9795 41.7111 55.3203 41.0903 55.8314C40.6952 56.2858 40.5823 56.8538 40.6952 57.4786C40.7516 57.7057 40.8645 57.9329 40.9774 58.1033C41.3725 58.6145 41.9369 58.9553 42.7271 59.1257C43.5173 59.2393 44.2511 59.1825 44.9848 59.0121C45.267 58.9553 45.6057 58.7849 45.9443 58.5009C46.5652 57.8761 46.791 57.1946 46.5088 56.4562C46.4523 56.229 46.283 56.0018 46.1137 55.8314C45.3799 55.2067 44.4768 54.9227 43.348 54.9795Z" fill="black"/>
<path d="M49.3301 54.4115C49.3301 54.2412 49.443 54.1844 49.7252 54.1844H50.7411C51.0234 54.1844 51.2491 54.2412 51.4185 54.4115C52.7166 55.6043 54.0712 56.8538 55.4259 58.0466C55.5952 58.2169 55.7081 58.1601 55.7081 57.9898V54.4115C55.7081 54.2412 55.821 54.1844 56.1032 54.1844H57.0627C57.3449 54.1844 57.4578 54.2412 57.4578 54.4115V59.8641C57.4578 60.0344 57.3449 60.0912 57.0627 60.0912H56.1596C55.8774 60.0912 55.6516 60.0344 55.4823 59.8641C54.1841 58.6713 52.8295 57.4218 51.4749 56.229C51.3056 56.0587 51.1927 56.1155 51.1927 56.229V59.8641C51.1927 60.0344 51.0798 60.0912 50.7976 60.0912H49.8381C49.5558 60.0912 49.443 60.0344 49.443 59.8641V54.4115H49.3301Z" fill="black"/>
<path d="M61.7477 54.1843C62.425 54.0707 63.1588 54.0139 63.8925 54.0707C64.6827 54.1275 65.36 54.2979 65.9245 54.5251C66.5453 54.8659 66.9404 55.3203 66.9969 55.8315C66.9969 56.0018 66.884 56.1154 66.6018 56.1154H65.6422C65.36 56.1154 65.1907 56.0586 65.1907 55.8883C64.9649 55.3203 64.4005 55.0363 63.5539 55.0363C63.1023 55.0363 62.7072 55.0363 62.3121 55.1499C61.8606 55.3203 61.5219 55.4907 61.2962 55.6611C60.6753 56.2858 60.506 57.0242 60.7882 57.8761C60.9575 58.3873 61.4655 58.7849 62.2557 59.0689C63.0459 59.2961 63.949 59.2961 65.0214 59.1257C65.2471 59.0689 65.36 59.0121 65.36 58.8417V57.9897C65.36 57.8761 65.2471 57.8194 65.0214 57.8194H63.3281C63.0459 57.8194 62.933 57.7626 62.933 57.5922V57.081C62.933 56.9106 63.0459 56.8538 63.3281 56.8538H66.7146C66.9969 56.8538 67.1097 56.9106 67.1097 57.081V59.4665C67.1097 59.6369 66.9969 59.7504 66.7146 59.8072C66.1502 59.9776 65.4729 60.0912 64.6827 60.148C63.5539 60.2048 62.6508 60.2048 61.917 60.0912C60.7317 59.864 59.8287 59.4097 59.2642 58.6145C59.0385 58.2169 58.8691 57.8193 58.8127 57.365C58.7562 56.8538 58.8691 56.2858 59.2078 55.7179C59.49 55.0363 60.3931 54.4683 61.7477 54.1843Z" fill="black"/>
<path d="M75.125 54.4115C75.125 54.2412 75.2379 54.1844 75.5201 54.1844H76.4796C76.7618 54.1844 76.8747 54.2412 76.8747 54.4115V59.8641C76.8747 60.0344 76.7618 60.0912 76.4796 60.0912H75.5201C75.2379 60.0912 75.125 60.0344 75.125 59.8641V54.4115Z" fill="black"/>
<path d="M78.2852 54.4115C78.2852 54.2412 78.398 54.1844 78.6803 54.1844H79.6962C79.9784 54.1844 80.2042 54.2412 80.3735 54.4115C81.6717 55.6043 83.0263 56.8538 84.381 58.0466C84.5503 58.2169 84.6632 58.1601 84.6632 57.9898V54.4115C84.6632 54.2412 84.776 54.1844 85.0583 54.1844H86.0178C86.3 54.1844 86.4129 54.2412 86.4129 54.4115V59.8641C86.4129 60.0344 86.3 60.0912 86.0178 60.0912H85.1147C84.8325 60.0912 84.6067 60.0344 84.4374 59.8641C83.1392 58.6713 81.7846 57.4218 80.43 56.229C80.2606 56.0587 80.1478 56.1155 80.1478 56.229V59.8641C80.1478 60.0344 80.0349 60.0912 79.7527 60.0912H78.7931C78.5109 60.0912 78.398 60.0344 78.398 59.8641V54.4115H78.2852Z" fill="black"/>
<path d="M87.4297 54.4115C87.4297 54.2412 87.5426 54.1844 87.8248 54.1844H95.1623C95.4445 54.1844 95.5574 54.2412 95.5574 54.4115V54.9227C95.5574 55.0931 95.4445 55.1499 95.1623 55.1499H92.7353C92.5095 55.1499 92.3966 55.2067 92.3966 55.3203V59.8073C92.3966 59.9777 92.2837 60.0344 92.0015 60.0344H91.042C90.7598 60.0344 90.6469 59.9777 90.6469 59.8073V55.3203C90.6469 55.2067 90.534 55.1499 90.3083 55.1499H87.8812C87.599 55.1499 87.4861 55.0931 87.4861 54.9227V54.4115H87.4297Z" fill="black"/>
<path d="M96.6289 54.4115C96.6289 54.2412 96.7418 54.1844 97.024 54.1844H103.854C104.136 54.1844 104.249 54.2412 104.249 54.4115V54.9227C104.249 55.0931 104.136 55.1499 103.854 55.1499H98.7173C98.4915 55.1499 98.3786 55.2067 98.3786 55.3203V56.3426C98.3786 56.4562 98.4915 56.513 98.7173 56.513H103.684C103.966 56.513 104.079 56.5698 104.079 56.7402V57.2514C104.079 57.4218 103.966 57.4786 103.684 57.4786H98.7173C98.4915 57.4786 98.3786 57.5354 98.3786 57.649V58.8417C98.3786 58.9553 98.4915 59.0121 98.7173 59.0121H104.023C104.305 59.0121 104.418 59.0689 104.418 59.2393V59.7505C104.418 59.9209 104.305 59.9777 104.023 59.9777H97.024C96.7418 59.9777 96.6289 59.9209 96.6289 59.7505V54.4115Z" fill="black"/>
<path d="M105.547 54.4115C105.547 54.2412 105.66 54.1844 105.942 54.1844H109.78C110.57 54.2412 111.304 54.3547 111.868 54.6387C112.264 54.8659 112.546 55.0931 112.659 55.3203C113.054 56.0019 112.884 56.5698 112.038 57.081C111.812 57.1946 111.812 57.3082 112.094 57.4786C112.376 57.7058 112.489 57.8762 112.546 58.1034L112.828 59.3529C112.884 59.5233 113.054 59.6937 113.449 59.9777C113.675 60.0912 113.618 60.148 113.336 60.148H111.756C111.473 60.148 111.304 60.0912 111.135 59.9209C110.965 59.5233 110.796 58.9553 110.627 58.1034C110.57 57.8762 110.288 57.7626 109.837 57.7626H107.579C107.353 57.7626 107.24 57.8194 107.24 57.933V59.9209C107.24 60.0912 107.127 60.148 106.845 60.148H105.942C105.66 60.148 105.547 60.0912 105.547 59.9209V54.4115ZM110.796 55.4907C110.457 55.2635 109.949 55.1499 109.329 55.0931H107.635C107.409 55.0931 107.297 55.1499 107.297 55.2635V56.4562C107.297 56.5698 107.409 56.6266 107.635 56.6266H109.216C109.611 56.6266 109.949 56.5698 110.288 56.4562C110.965 56.2858 111.135 55.9451 110.796 55.4907Z" fill="black"/>
<path d="M114.861 54.4115C114.861 54.2412 114.974 54.1844 115.256 54.1844H116.272C116.555 54.1844 116.78 54.2412 116.95 54.4115C118.248 55.6043 119.602 56.8538 120.901 58.0466C121.07 58.2169 121.183 58.1601 121.183 57.9898V54.4115C121.183 54.2412 121.296 54.1844 121.578 54.1844H122.538C122.82 54.1844 122.933 54.2412 122.933 54.4115V59.8641C122.933 60.0344 122.82 60.0912 122.538 60.0912H121.634C121.352 60.0912 121.126 60.0344 120.957 59.8641C119.659 58.6713 118.304 57.4218 116.95 56.229C116.78 56.0587 116.667 56.1155 116.667 56.229V59.8641C116.667 60.0344 116.555 60.0912 116.272 60.0912H115.313C115.031 60.0912 114.918 60.0344 114.918 59.8641V54.4115H114.861Z" fill="black"/>
<path d="M128.295 54.4115C128.407 54.2412 128.633 54.1844 128.859 54.1844H129.536C129.818 54.1844 129.988 54.2412 130.157 54.4115L134.221 59.8641C134.334 60.0344 134.277 60.0912 133.995 60.0912H132.923C132.641 60.0912 132.471 60.0344 132.358 59.8641C132.076 59.5233 131.794 59.1825 131.568 58.8417C131.455 58.7281 131.286 58.6713 131.06 58.6713H127.504C127.279 58.6713 127.109 58.7281 126.996 58.8985L126.263 59.9209C126.15 60.0912 125.924 60.148 125.642 60.148H124.569C124.287 60.148 124.231 60.0912 124.344 59.9209L128.295 54.4115ZM129.367 55.8883C129.254 55.7747 129.141 55.7747 129.028 55.8883C128.633 56.3994 128.295 56.8538 127.956 57.365C127.843 57.5354 127.899 57.5922 128.125 57.5922H130.27C130.496 57.5922 130.552 57.5354 130.439 57.365L129.367 55.8883Z" fill="black"/>
<path d="M135.01 54.4115C135.01 54.2412 135.123 54.1844 135.405 54.1844H142.742C143.025 54.1844 143.137 54.2412 143.137 54.4115V54.9227C143.137 55.0931 143.025 55.1499 142.742 55.1499H140.315C140.09 55.1499 139.977 55.2067 139.977 55.3203V59.8073C139.977 59.9777 139.864 60.0344 139.582 60.0344H138.622C138.34 60.0344 138.227 59.9777 138.227 59.8073V55.3203C138.227 55.2067 138.114 55.1499 137.888 55.1499H135.461C135.179 55.1499 135.066 55.0931 135.066 54.9227V54.4115H135.01Z" fill="black"/>
<path d="M144.154 54.4115C144.154 54.2412 144.267 54.1844 144.549 54.1844H145.509C145.791 54.1844 145.904 54.2412 145.904 54.4115V59.8641C145.904 60.0344 145.791 60.0912 145.509 60.0912H144.549C144.267 60.0912 144.154 60.0344 144.154 59.8641V54.4115Z" fill="black"/>
<path d="M149.798 54.4115C151.152 54.0139 152.62 53.9003 154.087 54.1843C155.386 54.4683 156.345 54.9795 156.797 55.6611C157.022 56.0018 157.192 56.4562 157.248 56.8538C157.361 57.7625 157.022 58.5009 156.289 59.1257C155.781 59.5232 155.16 59.8072 154.313 60.0344C153.523 60.2048 152.676 60.2616 151.717 60.2048C149.967 60.148 148.669 59.5233 147.935 58.3873C147.484 57.4218 147.484 56.513 148.048 55.6611C148.387 55.1499 148.951 54.6955 149.798 54.4115ZM152.112 54.9795C151.209 54.9795 150.475 55.3203 149.854 55.8314C149.459 56.2858 149.346 56.8538 149.459 57.4786C149.515 57.7057 149.628 57.9329 149.741 58.1033C150.136 58.6145 150.701 58.9553 151.491 59.1257C152.281 59.2393 153.015 59.1825 153.749 59.0121C154.031 58.9553 154.37 58.7849 154.652 58.5009C155.273 57.8761 155.498 57.1946 155.216 56.4562C155.16 56.229 154.99 56.0018 154.821 55.8314C154.2 55.2067 153.297 54.9227 152.112 54.9795Z" fill="black"/>
<path d="M158.096 54.4115C158.096 54.2412 158.209 54.1844 158.491 54.1844H159.507C159.789 54.1844 160.015 54.2412 160.184 54.4115C161.482 55.6043 162.837 56.8538 164.191 58.0466C164.361 58.2169 164.474 58.1601 164.474 57.9898V54.4115C164.474 54.2412 164.587 54.1844 164.869 54.1844H165.828C166.111 54.1844 166.223 54.2412 166.223 54.4115V59.8641C166.223 60.0344 166.111 60.0912 165.828 60.0912H164.925C164.643 60.0912 164.417 60.0344 164.248 59.8641C162.95 58.6713 161.595 57.4218 160.241 56.229C160.071 56.0587 159.958 56.1155 159.958 56.229V59.8641C159.958 60.0344 159.845 60.0912 159.563 60.0912H158.604C158.321 60.0912 158.209 60.0344 158.209 59.8641V54.4115H158.096Z" fill="black"/>
<path d="M171.585 54.4115C171.698 54.2412 171.924 54.1844 172.15 54.1844H172.827C173.109 54.1844 173.279 54.2412 173.392 54.4115L177.455 59.8641C177.568 60.0344 177.512 60.0912 177.23 60.0912H176.157C175.875 60.0912 175.706 60.0344 175.536 59.8641C175.254 59.5233 174.972 59.1825 174.746 58.8417C174.633 58.7281 174.464 58.6713 174.238 58.6713H170.682C170.457 58.6713 170.287 58.7281 170.174 58.8985L169.441 59.9209C169.328 60.0912 169.102 60.148 168.876 60.148H167.804C167.522 60.148 167.465 60.0912 167.578 59.9209L171.585 54.4115ZM172.658 55.8883C172.545 55.7747 172.432 55.7747 172.319 55.8883C171.924 56.3994 171.585 56.8538 171.247 57.365C171.134 57.5354 171.19 57.5922 171.416 57.5922H173.561C173.787 57.5922 173.843 57.5354 173.73 57.365L172.658 55.8883Z" fill="black"/>
<path d="M178.584 54.4115C178.584 54.2412 178.697 54.1844 178.979 54.1844H179.939C180.221 54.1844 180.334 54.2412 180.334 54.4115V58.8985C180.334 59.0121 180.447 59.0689 180.672 59.0689H184.623C184.906 59.0689 185.018 59.1257 185.018 59.2961V59.8073C185.018 59.9777 184.906 60.0344 184.623 60.0344H179.036C178.753 60.0344 178.64 59.9777 178.64 59.8073V54.4115H178.584Z" fill="black"/>
<path d="M196.589 54.1275C197.154 54.0139 197.831 54.0139 198.678 54.0139C200.427 54.1843 201.443 54.7523 201.669 55.7179C201.669 55.8882 201.556 56.0018 201.274 56.0018H200.315C200.032 56.0018 199.863 55.945 199.807 55.7747C199.694 55.4339 199.299 55.1499 198.734 55.0363C196.928 54.8091 195.799 55.3203 195.348 56.513C195.235 57.1378 195.291 57.649 195.517 58.1033C196.081 58.9553 197.097 59.2961 198.508 59.1257C199.129 59.0689 199.637 58.7849 199.919 58.3305C199.976 58.1601 200.202 58.1033 200.427 58.1033H201.443C201.726 58.1033 201.838 58.1601 201.782 58.3305C201.387 59.4097 200.371 59.9776 198.734 60.0912C197.831 60.148 196.984 60.0912 196.251 59.9208C195.46 59.7504 194.783 59.4097 194.219 58.9553C193.259 57.8761 193.146 56.7402 193.824 55.5475C194.501 54.8091 195.404 54.3547 196.589 54.1275Z" fill="black"/>
<path d="M204.831 54.4115C206.186 54.0139 207.653 53.9003 209.121 54.1843C210.419 54.4683 211.322 54.9795 211.83 55.6611C212.056 56.0018 212.225 56.4562 212.281 56.8538C212.394 57.7625 212.056 58.5009 211.322 59.1257C210.814 59.5232 210.193 59.8072 209.346 60.0344C208.556 60.2048 207.709 60.2616 206.75 60.2048C205 60.148 203.702 59.5233 202.968 58.3873C202.517 57.4218 202.517 56.513 203.081 55.6611C203.42 55.1499 204.041 54.6955 204.831 54.4115ZM207.201 54.9795C206.298 54.9795 205.565 55.3203 204.944 55.8314C204.549 56.2858 204.436 56.8538 204.549 57.4786C204.605 57.7057 204.718 57.9329 204.831 58.1033C205.226 58.6145 205.79 58.9553 206.581 59.1257C207.371 59.2393 208.105 59.1825 208.838 59.0121C209.121 58.9553 209.459 58.7849 209.741 58.5009C210.362 57.8761 210.588 57.1946 210.306 56.4562C210.249 56.229 210.08 56.0018 209.911 55.8314C209.233 55.2067 208.33 54.9227 207.201 54.9795Z" fill="black"/>
<path d="M212.902 59.0689C212.902 58.8985 213.015 58.8417 213.297 58.8417H214.539C214.821 58.8417 214.934 58.8985 214.934 59.0689V59.8073C214.934 59.9776 214.821 60.0344 214.539 60.0344H213.241C212.959 60.0344 212.846 59.9776 212.846 59.8073V59.0689H212.902Z" fill="black"/>
<path d="M216.231 59.1257C216.231 58.9553 216.344 58.8985 216.626 58.8985H217.812C218.094 58.8985 218.207 58.9553 218.207 59.1257V59.8073C218.207 60.2048 217.812 60.5456 216.965 60.9432C216.626 61.0568 216.401 61 216.231 60.8296C216.062 60.6592 216.118 60.5456 216.344 60.432C216.457 60.3752 216.626 60.3184 216.739 60.2616C216.965 60.148 216.909 60.0344 216.626 60.0344C216.344 60.0344 216.175 59.9776 216.175 59.8073V59.1257H216.231Z" fill="black"/>
<path d="M219.166 54.4115C219.166 54.2412 219.279 54.1844 219.561 54.1844H220.521C220.803 54.1844 220.916 54.2412 220.916 54.4115V58.8985C220.916 59.0121 221.029 59.0689 221.254 59.0689H225.205C225.488 59.0689 225.6 59.1257 225.6 59.2961V59.8073C225.6 59.9777 225.488 60.0344 225.205 60.0344H219.561C219.279 60.0344 219.166 59.9777 219.166 59.8073V54.4115Z" fill="black"/>
<path d="M226.277 54.4115C226.277 54.2412 226.39 54.1844 226.672 54.1844H234.01C234.292 54.1844 234.405 54.2412 234.405 54.4115V54.9227C234.405 55.0931 234.292 55.1499 234.01 55.1499H231.583C231.357 55.1499 231.244 55.2067 231.244 55.3203V59.8073C231.244 59.9777 231.131 60.0344 230.849 60.0344H229.89C229.607 60.0344 229.495 59.9777 229.495 59.8073V55.3203C229.495 55.2067 229.382 55.1499 229.156 55.1499H226.729C226.447 55.1499 226.334 55.0931 226.334 54.9227V54.4115H226.277Z" fill="black"/>
<path d="M235.479 54.4115C235.479 54.2412 235.591 54.1844 235.874 54.1844H238.921C240.107 54.1844 241.179 54.4115 242.139 54.8091C242.929 55.1499 243.437 55.5475 243.719 56.0019C244.227 57.0242 244.114 57.933 243.38 58.8417C242.647 59.5233 241.631 59.9209 240.333 60.0344C239.937 60.0912 239.429 60.148 238.865 60.148H235.93C235.648 60.148 235.535 60.0912 235.535 59.9209V54.4115H235.479ZM239.542 55.1499C238.865 55.0931 238.188 55.0931 237.567 55.0931C237.341 55.0931 237.228 55.1499 237.228 55.2635V58.8985C237.228 59.0121 237.341 59.0689 237.567 59.0689H239.034C239.881 59.0689 240.558 58.8985 241.179 58.6145C242.026 58.0466 242.308 57.365 242.026 56.5698C241.687 55.7747 240.841 55.2635 239.542 55.1499Z" fill="black"/>
</g>
<defs>
<clipPath id="clip0_545_47">
<rect width="251" height="61" fill="white"/>
</clipPath>
</defs>
</svg>
