<svg width="132" height="76" viewBox="0 0 132 76" fill="none" xmlns="http://www.w3.org/2000/svg">
<path d="M121.069 0H10.7655C7.50362 0 4.85938 2.64425 4.85938 5.9061V47.4946C4.85938 50.7564 7.50362 53.4007 10.7655 53.4007H121.069C124.331 53.4007 126.976 50.7564 126.976 47.4946V5.9061C126.976 2.64425 124.331 0 121.069 0Z" fill="#231815"/>
<path d="M117.567 4.99625H14.2681C11.3381 4.99625 8.96289 7.37149 8.96289 10.3015V42.8977C8.96289 45.8277 11.3381 48.2029 14.2681 48.2029H117.567C120.497 48.2029 122.872 45.8277 122.872 42.8977V10.3015C122.872 7.37149 120.497 4.99625 117.567 4.99625Z" stroke="white" stroke-miterlimit="10"/>
<path d="M8.01452 18.7507L0.946292 25.8189C0.423669 26.3415 0.423669 27.1888 0.946292 27.7115L8.01452 34.7797C8.53714 35.3023 9.38448 35.3023 9.9071 34.7797L16.9753 27.7115C17.4979 27.1888 17.498 26.3415 16.9753 25.8189L9.9071 18.7506C9.38448 18.228 8.53714 18.228 8.01452 18.7507Z" fill="white" stroke="#E60012" stroke-miterlimit="10"/>
<path d="M8.01429 21.5702L3.76563 25.8189C3.24301 26.3415 3.24301 27.1888 3.76563 27.7115L8.01429 31.9601C8.53691 32.4827 9.38425 32.4827 9.90687 31.9601L14.1555 27.7115C14.6782 27.1888 14.6782 26.3415 14.1555 25.8189L9.90687 21.5702C9.38425 21.0476 8.53691 21.0476 8.01429 21.5702Z" fill="white"/>
<path d="M121.924 18.7506L114.855 25.8189C114.333 26.3415 114.333 27.1888 114.855 27.7115L121.924 34.7797C122.446 35.3023 123.294 35.3023 123.816 34.7797L130.885 27.7115C131.407 27.1888 131.407 26.3415 130.885 25.8189L123.816 18.7506C123.294 18.228 122.446 18.228 121.924 18.7506Z" fill="white" stroke="#E60012" stroke-miterlimit="10"/>
<path d="M121.928 21.5649L117.68 25.8136C117.157 26.3362 117.157 27.1835 117.68 27.7062L121.928 31.9548C122.451 32.4774 123.298 32.4774 123.821 31.9548L128.07 27.7062C128.592 27.1835 128.592 26.3362 128.07 25.8136L123.821 21.5649C123.298 21.0423 122.451 21.0423 121.928 21.5649Z" fill="white"/>
<path d="M49.5135 36.2083H46.0996C45.8497 36.205 45.6056 36.1332 45.3937 36.0008C45.1818 35.8684 45.0103 35.6803 44.8979 35.4572L43.6552 32.9855C43.5428 32.7623 43.3713 32.5743 43.1594 32.4419C42.9475 32.3095 42.7033 32.2377 42.4535 32.2344H36.0831C35.8333 32.2377 35.5891 32.3095 35.3772 32.4419C35.1653 32.5743 34.9938 32.7623 34.8814 32.9855L33.6797 35.4572C33.5667 35.6814 33.3942 35.8701 33.181 36.0026C32.9678 36.1351 32.7222 36.2062 32.4712 36.2083H29.0572C28.8333 36.2017 28.6144 36.1402 28.4198 36.0291C28.2252 35.9179 28.061 35.7607 27.9416 35.5711C27.8221 35.3815 27.7512 35.1654 27.735 34.9419C27.7188 34.7185 27.7579 34.4944 27.8487 34.2896L35.7758 17.8277C35.8879 17.6022 36.06 17.4121 36.2733 17.2784C36.4866 17.1446 36.7326 17.0724 36.9844 17.0698H41.559C41.8106 17.0689 42.0573 17.1398 42.2701 17.274C42.4829 17.4082 42.6531 17.6002 42.7607 17.8277L50.7493 34.2828C50.8425 34.49 50.8825 34.7172 50.8657 34.9438C50.8488 35.1703 50.7758 35.3891 50.6531 35.5803C50.5303 35.7715 50.3618 35.9291 50.1629 36.0387C49.9639 36.1484 49.7407 36.2066 49.5135 36.2083ZM40.9855 27.4549L40.4598 26.3761C40.3439 26.1559 40.1701 25.9716 39.9571 25.843C39.7441 25.7143 39.5 25.6464 39.2512 25.6464C39.0024 25.6464 38.7583 25.7143 38.5453 25.843C38.3323 25.9716 38.1585 26.1559 38.0427 26.3761L37.5306 27.4549C37.4398 27.6598 37.4007 27.8838 37.4169 28.1073C37.4331 28.3307 37.504 28.5468 37.6235 28.7364C37.7429 28.926 37.9071 29.0833 38.1017 29.1944C38.2962 29.3055 38.5152 29.367 38.7391 29.3736H39.7838C40.0072 29.366 40.2253 29.3036 40.419 29.1921C40.6126 29.0805 40.776 28.9231 40.8946 28.7336C41.0132 28.5442 41.0836 28.3286 41.0994 28.1056C41.1153 27.8827 41.0762 27.6592 40.9855 27.4549Z" fill="#E60012"/>
<path d="M77.7742 23.7127C77.7742 25.6427 76.6704 27.1357 74.4627 28.1918C72.2551 29.2478 69.1006 29.785 64.9993 29.8032H62.0838C61.7216 29.8032 61.3743 29.947 61.1182 30.2031C60.8621 30.4592 60.7182 30.8066 60.7182 31.1687V34.8967C60.7182 35.2589 60.5744 35.6063 60.3183 35.8623C60.0622 36.1184 59.7148 36.2623 59.3527 36.2623H55.8841C55.522 36.2623 55.1746 36.1184 54.9185 35.8623C54.6624 35.6063 54.5186 35.2589 54.5186 34.8967V18.4075C54.5186 18.0453 54.6624 17.698 54.9185 17.4419C55.1746 17.1858 55.522 17.0419 55.8841 17.0419H64.3165C73.2883 17.0601 77.7742 19.2837 77.7742 23.7127ZM71.4653 23.5011C71.4957 22.9871 71.3844 22.4746 71.1436 22.0195C70.9028 21.5644 70.5417 21.1842 70.0997 20.9201C69.0346 20.3147 67.2821 20.012 64.8423 20.012H62.1111C61.749 20.012 61.4016 20.1559 61.1455 20.412C60.8894 20.6681 60.7456 21.0154 60.7456 21.3776V25.5221C60.7456 25.8843 60.8894 26.2316 61.1455 26.4877C61.4016 26.7438 61.749 26.8877 62.1111 26.8877H64.6579C67.2866 26.8877 69.096 26.6419 70.0724 26.1503C70.5452 25.9013 70.9314 25.5148 71.1801 25.0419C71.4288 24.5689 71.5282 24.0317 71.4653 23.5011Z" fill="white"/>
<path d="M105.003 26.7438C105.003 33.0755 99.7296 36.239 89.1828 36.2345H82.4779C82.1157 36.2345 81.7684 36.0906 81.5123 35.8345C81.2562 35.5784 81.1123 35.2311 81.1123 34.8689V18.3796C81.1123 18.0175 81.2562 17.6701 81.5123 17.414C81.7684 17.1579 82.1157 17.0141 82.4779 17.0141H89.1828C99.7341 17.0323 105.008 20.2755 105.003 26.7438ZM98.7487 26.6618C98.7487 22.1509 95.8923 19.8931 90.1797 19.8886H88.6844C88.3222 19.8886 87.9749 20.0325 87.7188 20.2886C87.4627 20.5447 87.3188 20.892 87.3188 21.2542V32.0763C87.3188 32.4385 87.4627 32.7858 87.7188 33.0419C87.9749 33.298 88.3222 33.4419 88.6844 33.4419H90.1797C95.8969 33.4237 98.7532 31.1637 98.7487 26.6618Z" fill="white"/>
<path d="M110.555 18.8437H109.797L109.114 17.6966C109.024 17.5205 108.901 17.363 108.752 17.2323C108.641 17.1515 108.507 17.1084 108.37 17.1094H108.022V18.8437H107.339V15.9691C107.339 15.607 107.483 15.2596 107.739 15.0035C107.995 14.7474 108.342 14.6036 108.704 14.6036C109.067 14.5795 109.427 14.6834 109.722 14.8972C109.842 14.9988 109.936 15.1271 109.998 15.2717C110.059 15.4163 110.087 15.5733 110.077 15.7302C110.083 15.995 109.996 16.2537 109.831 16.4607C109.654 16.6687 109.414 16.8147 109.148 16.8772C109.423 17.0346 109.642 17.2731 109.776 17.56L110.555 18.8437ZM108.015 15.1634V16.5973H108.588C108.694 16.6035 108.801 16.5879 108.9 16.5515C109 16.5151 109.092 16.4586 109.169 16.3856C109.242 16.3181 109.299 16.2355 109.337 16.1435C109.375 16.0515 109.392 15.9524 109.387 15.8531C109.387 15.4161 109.121 15.1703 108.602 15.1703L108.015 15.1634Z" fill="white"/>
<path d="M108.685 20.1146C110.529 20.1146 112.023 18.6198 112.023 16.7758C112.023 14.9318 110.529 13.437 108.685 13.437C106.841 13.437 105.346 14.9318 105.346 16.7758C105.346 18.6198 106.841 20.1146 108.685 20.1146Z" stroke="white" stroke-miterlimit="10"/>
<path d="M16.3807 58.9726H24.951V71.5106C24.951 72.1758 25.1488 72.5084 25.5773 72.5084H26.2695C26.5332 72.5084 26.731 72.3753 26.8629 72.1425C27.1266 71.7102 27.2584 70.2136 27.2584 67.6528L29.7966 68.3512C29.5988 71.8432 29.1703 73.8719 28.511 74.404C27.9506 74.8364 27.2914 75.0692 26.5662 75.0692H24.7203C23.7973 75.0692 23.171 74.8031 22.7755 74.2377C22.4788 73.8054 22.314 73.1402 22.314 72.2755V61.3671H17.6992V66.2559C17.6992 70.014 16.4466 73.2733 14.0074 76.0004L11.5352 73.9052C13.9085 71.9097 15.0951 69.3489 15.0951 66.2559V58.9393H16.3807V58.9726ZM19.8418 63.7949C20.8307 65.5908 21.6218 67.2537 22.1492 68.7835L19.8418 69.9475C19.2485 67.9188 18.5562 66.0897 17.7651 64.4933L19.8418 63.7949Z" fill="black"/>
<path d="M41.2676 58.1067H51.3212V60.1354H41.2676V58.1067ZM42.7179 65.9887H50.8268V73.8708C50.8268 75.0015 50.3653 75.6002 49.4424 75.6002H47.959L47.6624 73.5382L48.2887 73.6047C48.6512 73.6047 48.8161 73.4717 48.8161 73.2056V70.7778H48.0579C47.0361 70.7778 46.5087 70.2457 46.5087 69.1482V67.8844H45.8824V68.1505C45.8824 69.3145 45.5527 70.3455 44.8605 71.2434H48.4205V72.873H47.1679V75.4671H45.322V72.873H44.1683V71.2434H44.6957L43.7728 70.412V75.8995H41.6961V65.9222H42.7179V65.9887ZM42.0257 60.8338H50.4312V65.3569H42.0257V60.8338ZM43.8057 70.0129C43.9705 69.7801 44.1353 69.4808 44.2342 69.1815C44.3661 68.8489 44.399 68.4498 44.399 67.9177H43.7728V70.0129H43.8057ZM48.2887 63.561V62.6297H44.2013V63.561H48.2887ZM48.1238 67.9177V68.5496C48.1238 68.9819 48.2227 69.1815 48.4205 69.1815H48.8161V67.9177H48.1238ZM51.4531 60.4348H53.9253V57.5414H56.3316V60.4348H58.7379V69.4143H56.3316V72.0416C56.6283 71.9751 56.892 71.9086 57.1557 71.8421C57.0568 71.2767 56.9579 70.6781 56.7931 70.1127L58.5731 69.9464C58.9686 71.3099 59.3312 72.9396 59.5619 74.8685L57.4853 75.1678C57.4853 74.7687 57.4523 74.3696 57.4194 73.9373C55.4086 74.5359 53.4309 75.0015 51.3872 75.4006L50.9257 72.74C51.8816 72.74 52.8705 72.6402 53.9253 72.474V69.4143H51.4531V60.4348ZM54.222 67.319V62.53H53.4638V67.319H54.222ZM56.6942 67.319V62.53H55.936V67.319H56.6942Z" fill="black"/>
<path d="M88.6018 58.109V75.935H86.1296V75.1701H74.0982V75.935H71.626V58.109H88.6018ZM74.0982 73.1746H86.1626V70.6803C85.9318 71.412 85.6352 71.9441 85.3385 72.3099C85.1078 72.6093 84.7781 72.7756 84.3826 72.7756C83.7893 72.7756 83.13 72.443 82.5037 71.7778C82.3719 71.6448 82.273 71.5118 82.1411 71.3787C81.6796 71.9441 81.1193 72.443 80.5259 72.8753L79.2074 71.2457C77.8559 71.6448 76.3397 71.9441 74.6586 72.1769L74.3619 70.0817C76.5374 69.9819 78.5482 69.6161 80.2952 69.0175V70.0152C80.5589 69.7824 80.7896 69.5163 81.0204 69.2503C80.9545 69.0175 80.8885 68.8179 80.8226 68.5851C80.493 67.5209 80.2952 65.8913 80.1633 63.7628H74.5597V61.9004H80.0974C80.0974 61.3682 80.0645 60.8029 80.0645 60.2042H74.1312V73.1746H74.0982ZM74.9223 64.4944H79.57V68.8844H74.9223V64.4944ZM77.79 67.4544V65.8913H76.7022V67.4544H77.79ZM82.207 60.1377C82.207 60.7364 82.207 61.3017 82.24 61.8338H84.02C83.6244 61.5013 83.1959 61.1687 82.7344 60.8361L83.3607 60.1377H82.207ZM84.2178 60.1377C84.6793 60.437 85.1407 60.7363 85.5363 61.0689L84.8111 61.8338H85.767V63.6963H82.3389C82.4048 64.8603 82.5037 65.858 82.6356 66.6229C83.0311 65.7915 83.3607 64.8603 83.6574 63.8626L85.4374 64.6275C84.8441 66.6562 84.2178 68.2193 83.5585 69.35C83.8552 69.8822 84.1519 70.1815 84.3826 70.1815C84.4485 70.1815 84.5144 69.9487 84.5474 69.5163L84.6793 68.4521L86.1626 69.2835V60.1377H84.2178Z" fill="black"/>
<path d="M106.601 58.1069V59.7365C106.469 60.2687 106.337 60.9006 106.106 61.599C107.26 60.5347 108.117 59.1712 108.677 57.475L110.853 57.7744C110.754 58.0072 110.688 58.24 110.589 58.4728H112.798C113.325 59.8363 114.017 61.1001 114.874 62.1976C115.336 61.6322 115.731 61.0336 115.962 60.4017H113.787V58.4395H118.336V59.9361C117.808 61.4327 117.083 62.6299 116.127 63.5944C116.918 64.3593 117.808 65.091 118.797 65.6896L117.94 67.8846C117.05 67.2195 116.259 66.5211 115.534 65.8227V66.8536H109.699V65.9889C109.04 66.6208 108.315 67.1862 107.524 67.7183L106.205 65.9889C106.7 65.7229 107.161 65.4236 107.623 65.091C107.161 64.6587 106.733 64.2928 106.304 63.9935L106.831 63.4946L105.941 62.1643C105.744 62.8295 105.513 63.5612 105.216 64.3593C106.139 65.9224 106.601 67.286 106.601 68.4833C106.601 69.5475 106.37 70.3124 105.909 70.778C105.579 71.1771 104.722 71.4099 103.271 71.4432V75.8997H101.129V58.1069H106.601ZM103.304 63.9602C103.898 62.7297 104.293 61.599 104.557 60.5347H103.304V63.9602ZM103.304 69.2149C103.436 69.2149 103.568 69.2482 103.634 69.2482C104.227 69.2482 104.524 69.0154 104.557 68.5498C104.59 67.4855 104.161 66.2218 103.304 64.8249V69.2149ZM108.546 70.1794L110.457 71.3767C109.37 72.8067 108.117 74.004 106.667 75.035L104.887 73.4719C106.337 72.4742 107.557 71.3767 108.546 70.1794ZM106.93 68.0842H118.27V70.0131H113.721V73.7379C113.721 75.1015 113.127 75.7667 111.941 75.7667H109.765L109.468 73.3389C110.227 73.4054 110.688 73.4054 110.787 73.4054C111.15 73.4054 111.314 73.2723 111.314 72.973V69.9798H106.897V68.0842H106.93ZM107.623 62.9958C108.15 63.3284 108.611 63.6609 109.007 63.9602C109.205 63.7274 109.403 63.5279 109.6 63.2951C109.205 62.9625 108.743 62.6299 108.249 62.3306C108.051 62.5634 107.853 62.763 107.623 62.9958ZM109.238 61.0003C109.732 61.2664 110.194 61.5324 110.589 61.8318C110.787 61.3994 110.985 60.9338 111.183 60.4682H109.6C109.469 60.6345 109.37 60.834 109.238 61.0003ZM110.721 64.958H114.71C113.82 63.9935 113.094 63.0623 112.534 62.0646C112.171 62.9625 111.743 63.6942 111.248 64.3593C111.051 64.5921 110.886 64.7917 110.721 64.958ZM115.731 70.1794C117.083 71.3434 118.105 72.3744 118.83 73.3056L117.281 75.168C116.193 73.6714 115.171 72.4742 114.182 71.5762L115.731 70.1794Z" fill="black"/>
</svg>
