<svg width="91" height="38" viewBox="0 0 91 38" fill="none" xmlns="http://www.w3.org/2000/svg">
<path d="M0.923828 8.27295H8.79441V33.921H0.923828V8.27295Z" fill="white"/>
<path d="M13.0703 26.4778L20.1186 25.0555C20.2831 26.2882 20.7294 27.2363 21.4343 28.0423C22.3506 28.8245 23.5018 29.3223 25.0054 29.3223C26.1331 29.3223 27.0024 29.0616 27.5898 28.5164C28.2006 27.9949 28.5061 27.3786 28.5061 26.6674C28.5061 26.0037 28.2241 25.4111 27.6368 24.8896C27.0494 24.3681 25.7102 23.8703 23.6192 23.3962C20.1656 22.614 17.7222 21.571 16.242 20.291C14.7619 18.9872 14.0101 17.3516 14.0101 15.3368C14.0101 14.0093 14.386 12.7767 15.1378 11.5915C15.8896 10.43 17.0408 9.50552 18.5445 8.81809C20.0716 8.15437 22.1391 7.82251 24.794 7.82251C28.0362 7.82251 30.5266 8.43882 32.2182 9.64774C33.9332 10.8567 34.8025 12.3263 35.2724 14.2227L27.8717 15.9057C27.6838 14.7442 27.2609 13.9145 26.6265 13.393C25.9922 12.8715 25.1229 12.6108 24.0186 12.6108C23.1024 12.6108 22.421 12.8004 21.9511 13.2034C21.4813 13.5827 21.2463 14.0804 21.2463 14.6256C21.2463 15.0286 21.4343 15.4079 21.8102 15.7397C22.1861 16.0716 23.0554 16.4035 24.4415 16.6879C27.8717 17.4465 30.3386 18.1813 31.8187 18.9635C33.2989 19.7221 34.3796 20.6702 35.061 21.808C35.7423 22.9459 36.0712 24.2022 36.0712 25.6007C36.0712 27.2363 35.6248 28.7534 34.7085 30.152C33.8158 31.5505 32.5471 32.5935 30.926 33.3046C29.3049 34.0158 27.2609 34.3713 24.794 34.3713C20.471 34.3713 17.4637 33.5417 15.8191 31.8587C14.1745 30.1757 13.5167 29.0379 13.0703 26.4778Z" fill="#E60012"/>
<path d="M41.4277 8.27295H61.1159V13.7486H47.9356V17.8258H58.978V23.0644H47.9356V28.1134H61.4918V33.921H41.4277V8.27295Z" fill="white"/>
<path d="M64.7578 21.1206C64.7578 16.925 65.8855 13.6775 68.141 11.3307C70.3964 9.00773 73.5447 7.82251 77.5622 7.82251C81.6972 7.82251 84.8689 8.96032 87.1009 11.2596C89.3328 13.559 90.4606 16.759 90.4606 20.8836C90.4606 23.894 89.9672 26.3356 89.0039 28.2556C88.0171 30.1757 86.6075 31.669 84.7749 32.7357C82.9189 33.8024 80.6399 34.3476 77.8676 34.3476C75.0718 34.3476 72.7459 33.8972 70.9133 32.9728C69.0808 32.0483 67.6006 30.6023 66.4494 28.5875C65.3217 26.62 64.7578 24.1311 64.7578 21.1206ZM73.4037 21.168C73.4037 23.7518 73.7796 25.6244 74.5314 26.7622C75.2833 27.9001 76.317 28.469 77.6092 28.469C78.9484 28.469 79.9821 27.9238 80.7104 26.8097C81.4387 25.6956 81.8147 23.7044 81.8147 20.8362C81.8147 18.4183 81.4387 16.6642 80.6634 15.5501C79.9116 14.436 78.8544 13.8671 77.5622 13.8671C76.317 13.8671 75.3067 14.436 74.5549 15.5738C73.7796 16.6642 73.4037 18.5369 73.4037 21.168Z" fill="white"/>
<path d="M36.1418 0.000244141H0.923828V5.38112H36.1418V0.000244141Z" fill="#E60012"/>
<path d="M89.4264 10.3354C88.6041 10.3354 87.9463 9.67165 87.9463 8.842C87.9463 8.01235 88.6041 7.34863 89.4264 7.34863C90.2487 7.34863 90.9066 8.01235 90.9066 8.842C90.9066 9.64795 90.2487 10.3354 89.4264 10.3354ZM89.4264 7.46715C88.6981 7.46715 88.0873 8.08347 88.0873 8.8183C88.0873 9.55313 88.6981 10.1694 89.4264 10.1694C90.1548 10.1694 90.7656 9.55313 90.7656 8.8183C90.7656 8.08347 90.1782 7.46715 89.4264 7.46715Z" fill="white"/>
<path d="M89.0269 8.0598H89.6377C89.7317 8.0598 89.8022 8.0835 89.8492 8.10721C89.9432 8.15461 89.9901 8.24943 89.9901 8.39166C89.9901 8.51018 89.9667 8.605 89.8962 8.6524C89.8257 8.69981 89.7317 8.72352 89.6142 8.72352H89.0269V8.0598ZM89.0269 9.7428V8.93686H89.6142C89.7082 8.93686 89.8022 8.93686 89.8492 8.96056C89.9432 9.00797 89.9901 9.07908 89.9901 9.1976L90.0136 9.50576C90.0136 9.57687 90.0136 9.62428 90.0371 9.64799C90.0371 9.67169 90.0606 9.69539 90.0606 9.7191H90.3661V9.69539C90.3191 9.67169 90.2956 9.64799 90.2956 9.57687C90.2956 9.55317 90.2721 9.48206 90.2721 9.41094V9.1502C90.2721 9.03167 90.2486 8.96056 90.2016 8.91315C90.1546 8.86574 90.1076 8.81833 90.0371 8.79463C90.1311 8.74722 90.1781 8.69981 90.2251 8.6287C90.2721 8.55759 90.2956 8.46277 90.2956 8.34425C90.2956 8.13091 90.2016 7.98868 90.0371 7.89387C89.9432 7.84646 89.8257 7.82275 89.6847 7.82275H88.8154V9.7191H89.0269V9.7428Z" fill="white"/>
</svg>
