<svg width="132" height="76" viewBox="0 0 132 76" fill="none" xmlns="http://www.w3.org/2000/svg">
<path d="M121.069 0H10.7655C7.50362 0 4.85938 2.64425 4.85938 5.9061V47.4946C4.85938 50.7564 7.50362 53.4007 10.7655 53.4007H121.069C124.331 53.4007 126.976 50.7564 126.976 47.4946V5.9061C126.976 2.64425 124.331 0 121.069 0Z" fill="#231815"/>
<path d="M117.567 4.99634H14.2681C11.3381 4.99634 8.96289 7.37158 8.96289 10.3016V42.8978C8.96289 45.8278 11.3381 48.203 14.2681 48.203H117.567C120.497 48.203 122.872 45.8278 122.872 42.8978V10.3016C122.872 7.37158 120.497 4.99634 117.567 4.99634Z" stroke="white" stroke-miterlimit="10"/>
<path d="M8.01452 18.7506L0.946292 25.8188C0.423669 26.3415 0.423669 27.1888 0.946292 27.7114L8.01452 34.7797C8.53714 35.3023 9.38448 35.3023 9.9071 34.7797L16.9753 27.7114C17.4979 27.1888 17.498 26.3415 16.9753 25.8188L9.9071 18.7506C9.38448 18.228 8.53714 18.228 8.01452 18.7506Z" fill="white" stroke="#E60012" stroke-miterlimit="10"/>
<path d="M8.01429 21.5702L3.76563 25.8188C3.24301 26.3415 3.24301 27.1888 3.76563 27.7114L8.01429 31.9601C8.53691 32.4827 9.38425 32.4827 9.90687 31.9601L14.1555 27.7114C14.6782 27.1888 14.6782 26.3415 14.1555 25.8188L9.90687 21.5702C9.38425 21.0476 8.53691 21.0476 8.01429 21.5702Z" fill="white"/>
<path d="M121.924 18.7506L114.855 25.8188C114.333 26.3415 114.333 27.1888 114.855 27.7114L121.924 34.7797C122.446 35.3023 123.294 35.3023 123.816 34.7797L130.885 27.7114C131.407 27.1888 131.407 26.3415 130.885 25.8188L123.816 18.7506C123.294 18.228 122.446 18.228 121.924 18.7506Z" fill="white" stroke="#E60012" stroke-miterlimit="10"/>
<path d="M121.928 21.5648L117.68 25.8135C117.157 26.3361 117.157 27.1834 117.68 27.7061L121.928 31.9547C122.451 32.4773 123.298 32.4773 123.821 31.9547L128.07 27.7061C128.592 27.1834 128.592 26.3361 128.07 25.8135L123.821 21.5648C123.298 21.0422 122.451 21.0422 121.928 21.5648Z" fill="white"/>
<path d="M49.5135 36.2083H46.0996C45.8497 36.205 45.6056 36.1333 45.3937 36.0009C45.1818 35.8684 45.0103 35.6804 44.8979 35.4572L43.6552 32.9856C43.5428 32.7624 43.3713 32.5744 43.1594 32.4419C42.9475 32.3095 42.7033 32.2378 42.4535 32.2345H36.0831C35.8333 32.2378 35.5891 32.3095 35.3772 32.4419C35.1653 32.5744 34.9938 32.7624 34.8814 32.9856L33.6797 35.4572C33.5667 35.6814 33.3942 35.8701 33.181 36.0026C32.9678 36.1351 32.7222 36.2063 32.4712 36.2083H29.0572C28.8333 36.2018 28.6144 36.1402 28.4198 36.0291C28.2252 35.918 28.061 35.7607 27.9416 35.5711C27.8221 35.3815 27.7512 35.1655 27.735 34.942C27.7188 34.7185 27.7579 34.4945 27.8487 34.2897L35.7758 17.8277C35.8879 17.6023 36.06 17.4122 36.2733 17.2784C36.4866 17.1447 36.7326 17.0725 36.9844 17.0698H41.559C41.8106 17.069 42.0573 17.1398 42.2701 17.274C42.4829 17.4083 42.6531 17.6003 42.7607 17.8277L50.7493 34.2829C50.8425 34.4901 50.8825 34.7173 50.8657 34.9438C50.8488 35.1704 50.7758 35.3892 50.6531 35.5804C50.5303 35.7716 50.3618 35.9291 50.1629 36.0388C49.9639 36.1484 49.7407 36.2067 49.5135 36.2083ZM40.9855 27.455L40.4598 26.3762C40.3439 26.156 40.1701 25.9716 39.9571 25.843C39.7441 25.7144 39.5 25.6464 39.2512 25.6464C39.0024 25.6464 38.7583 25.7144 38.5453 25.843C38.3323 25.9716 38.1585 26.156 38.0427 26.3762L37.5306 27.455C37.4398 27.6598 37.4007 27.8838 37.4169 28.1073C37.4331 28.3308 37.504 28.5469 37.6235 28.7364C37.7429 28.926 37.9071 29.0833 38.1017 29.1944C38.2962 29.3056 38.5152 29.3671 38.7391 29.3736H39.7838C40.0072 29.366 40.2253 29.3037 40.419 29.1921C40.6126 29.0805 40.776 28.9231 40.8946 28.7337C41.0132 28.5443 41.0836 28.3286 41.0994 28.1057C41.1153 27.8827 41.0762 27.6593 40.9855 27.455Z" fill="#E60012"/>
<path d="M77.7742 23.7128C77.7742 25.6428 76.6704 27.1358 74.4627 28.1919C72.2551 29.2479 69.1006 29.785 64.9993 29.8033H62.0838C61.7216 29.8033 61.3743 29.9471 61.1182 30.2032C60.8621 30.4593 60.7182 30.8067 60.7182 31.1688V34.8968C60.7182 35.259 60.5744 35.6063 60.3183 35.8624C60.0622 36.1185 59.7148 36.2624 59.3527 36.2624H55.8841C55.522 36.2624 55.1746 36.1185 54.9185 35.8624C54.6624 35.6063 54.5186 35.259 54.5186 34.8968V18.4076C54.5186 18.0454 54.6624 17.6981 54.9185 17.442C55.1746 17.1859 55.522 17.042 55.8841 17.042H64.3165C73.2883 17.0602 77.7742 19.2838 77.7742 23.7128ZM71.4653 23.5011C71.4957 22.9872 71.3844 22.4747 71.1436 22.0196C70.9028 21.5645 70.5417 21.1843 70.0997 20.9202C69.0346 20.3148 67.2821 20.0121 64.8423 20.0121H62.1111C61.749 20.0121 61.4016 20.156 61.1455 20.4121C60.8894 20.6682 60.7456 21.0155 60.7456 21.3777V25.5222C60.7456 25.8844 60.8894 26.2317 61.1455 26.4878C61.4016 26.7439 61.749 26.8878 62.1111 26.8878H64.6579C67.2866 26.8878 69.096 26.642 70.0724 26.1504C70.5452 25.9014 70.9314 25.5149 71.1801 25.042C71.4288 24.569 71.5282 24.0318 71.4653 23.5011Z" fill="white"/>
<path d="M105.003 26.7439C105.003 33.0756 99.7296 36.2391 89.1828 36.2346H82.4779C82.1157 36.2346 81.7684 36.0907 81.5123 35.8346C81.2562 35.5785 81.1123 35.2312 81.1123 34.869V18.3797C81.1123 18.0176 81.2562 17.6702 81.5123 17.4141C81.7684 17.158 82.1157 17.0142 82.4779 17.0142H89.1828C99.7341 17.0324 105.008 20.2756 105.003 26.7439ZM98.7487 26.6619C98.7487 22.151 95.8923 19.8932 90.1797 19.8887H88.6844C88.3222 19.8887 87.9749 20.0326 87.7188 20.2887C87.4627 20.5447 87.3188 20.8921 87.3188 21.2543V32.0764C87.3188 32.4386 87.4627 32.7859 87.7188 33.042C87.9749 33.2981 88.3222 33.442 88.6844 33.442H90.1797C95.8969 33.4238 98.7532 31.1638 98.7487 26.6619Z" fill="white"/>
<path d="M110.555 18.8436H109.797L109.114 17.6965C109.024 17.5204 108.901 17.3629 108.752 17.2322C108.641 17.1514 108.507 17.1083 108.37 17.1093H108.022V18.8436H107.339V15.9691C107.339 15.6069 107.483 15.2596 107.739 15.0035C107.995 14.7474 108.342 14.6035 108.704 14.6035C109.067 14.5795 109.427 14.6834 109.722 14.8971C109.842 14.9988 109.936 15.127 109.998 15.2716C110.059 15.4162 110.087 15.5732 110.077 15.7301C110.083 15.9949 109.996 16.2536 109.831 16.4607C109.654 16.6687 109.414 16.8146 109.148 16.8772C109.423 17.0346 109.642 17.2731 109.776 17.56L110.555 18.8436ZM108.015 15.1634V16.5972H108.588C108.694 16.6034 108.801 16.5878 108.9 16.5514C109 16.515 109.092 16.4586 109.169 16.3856C109.242 16.3181 109.299 16.2354 109.337 16.1434C109.375 16.0514 109.392 15.9523 109.387 15.853C109.387 15.416 109.121 15.1702 108.602 15.1702L108.015 15.1634Z" fill="white"/>
<path d="M108.685 20.1147C110.529 20.1147 112.023 18.6198 112.023 16.7758C112.023 14.9319 110.529 13.437 108.685 13.437C106.841 13.437 105.346 14.9319 105.346 16.7758C105.346 18.6198 106.841 20.1147 108.685 20.1147Z" stroke="white" stroke-miterlimit="10"/>
<path d="M16.3807 58.9727H24.951V71.5108C24.951 72.1759 25.1488 72.5085 25.5773 72.5085H26.2695C26.5332 72.5085 26.731 72.3755 26.8629 72.1427C27.1266 71.7103 27.2584 70.2137 27.2584 67.6529L29.7966 68.3513C29.5988 71.8434 29.1703 73.8721 28.511 74.4042C27.9506 74.8365 27.2914 75.0693 26.5662 75.0693H24.7203C23.7973 75.0693 23.171 74.8033 22.7755 74.2379C22.4788 73.8055 22.314 73.1404 22.314 72.2757V61.3672H17.6992V66.2561C17.6992 70.0142 16.4466 73.2734 14.0074 76.0005L11.5352 73.9053C13.9085 71.9099 15.0951 69.349 15.0951 66.2561V58.9395H16.3807V58.9727ZM19.8418 63.795C20.8307 65.591 21.6218 67.2538 22.1492 68.7837L19.8418 69.9477C19.2485 67.919 18.5562 66.0898 17.7651 64.4935L19.8418 63.795Z" fill="white"/>
<path d="M41.2676 58.1069H51.3212V60.1356H41.2676V58.1069ZM42.7179 65.9889H50.8268V73.8709C50.8268 75.0017 50.3653 75.6003 49.4424 75.6003H47.959L47.6624 73.5383L48.2887 73.6049C48.6512 73.6049 48.8161 73.4718 48.8161 73.2058V70.778H48.0579C47.0361 70.778 46.5087 70.2459 46.5087 69.1484V67.8846H45.8824V68.1506C45.8824 69.3146 45.5527 70.3456 44.8605 71.2436H48.4205V72.8732H47.1679V75.4673H45.322V72.8732H44.1683V71.2436H44.6957L43.7728 70.4121V75.8996H41.6961V65.9224H42.7179V65.9889ZM42.0257 60.834H50.4312V65.357H42.0257V60.834ZM43.8057 70.0131C43.9705 69.7803 44.1353 69.4809 44.2342 69.1816C44.3661 68.849 44.399 68.45 44.399 67.9178H43.7728V70.0131H43.8057ZM48.2887 63.5611V62.6299H44.2013V63.5611H48.2887ZM48.1238 67.9178V68.5497C48.1238 68.9821 48.2227 69.1816 48.4205 69.1816H48.8161V67.9178H48.1238ZM51.4531 60.4349H53.9253V57.5415H56.3316V60.4349H58.7379V69.4144H56.3316V72.0418C56.6283 71.9752 56.892 71.9087 57.1557 71.8422C57.0568 71.2768 56.9579 70.6782 56.7931 70.1128L58.5731 69.9465C58.9686 71.3101 59.3312 72.9397 59.5619 74.8686L57.4853 75.168C57.4853 74.7689 57.4523 74.3698 57.4194 73.9374C55.4086 74.5361 53.4309 75.0017 51.3872 75.4008L50.9257 72.7402C51.8816 72.7402 52.8705 72.6404 53.9253 72.4741V69.4144H51.4531V60.4349ZM54.222 67.3192V62.5301H53.4638V67.3192H54.222ZM56.6942 67.3192V62.5301H55.936V67.3192H56.6942Z" fill="white"/>
<path d="M88.6018 58.1091V75.9351H86.1296V75.1702H74.0982V75.9351H71.626V58.1091H88.6018ZM74.0982 73.1748H86.1626V70.6805C85.9318 71.4121 85.6352 71.9442 85.3385 72.3101C85.1078 72.6094 84.7781 72.7757 84.3826 72.7757C83.7893 72.7757 83.13 72.4431 82.5037 71.778C82.3719 71.6449 82.273 71.5119 82.1411 71.3789C81.6796 71.9442 81.1193 72.4431 80.5259 72.8754L79.2074 71.2458C77.8559 71.6449 76.3397 71.9442 74.6586 72.177L74.3619 70.0818C76.5374 69.982 78.5482 69.6162 80.2952 69.0176V70.0153C80.5589 69.7825 80.7896 69.5164 81.0204 69.2504C80.9545 69.0176 80.8885 68.818 80.8226 68.5852C80.493 67.521 80.2952 65.8914 80.1633 63.7629H74.5597V61.9005H80.0974C80.0974 61.3684 80.0645 60.803 80.0645 60.2044H74.1312V73.1748H74.0982ZM74.9223 64.4946H79.57V68.8846H74.9223V64.4946ZM77.79 67.4545V65.8914H76.7022V67.4545H77.79ZM82.207 60.1378C82.207 60.7365 82.207 61.3018 82.24 61.834H84.02C83.6244 61.5014 83.1959 61.1688 82.7344 60.8362L83.3607 60.1378H82.207ZM84.2178 60.1378C84.6793 60.4372 85.1407 60.7365 85.5363 61.069L84.8111 61.834H85.767V63.6964H82.3389C82.4048 64.8604 82.5037 65.8581 82.6356 66.623C83.0311 65.7916 83.3607 64.8604 83.6574 63.8627L85.4374 64.6276C84.8441 66.6563 84.2178 68.2194 83.5585 69.3502C83.8552 69.8823 84.1519 70.1816 84.3826 70.1816C84.4485 70.1816 84.5144 69.9488 84.5474 69.5164L84.6793 68.4522L86.1626 69.2836V60.1378H84.2178Z" fill="white"/>
<path d="M106.601 58.107V59.7366C106.469 60.2687 106.337 60.9006 106.106 61.599C107.26 60.5348 108.117 59.1712 108.677 57.4751L110.853 57.7744C110.754 58.0072 110.688 58.24 110.589 58.4728H112.798C113.325 59.8364 114.017 61.1002 114.874 62.1977C115.336 61.6323 115.731 61.0336 115.962 60.4018H113.787V58.4396H118.336V59.9361C117.808 61.4327 117.083 62.63 116.127 63.5945C116.918 64.3594 117.808 65.0911 118.797 65.6897L117.94 67.8847C117.05 67.2195 116.259 66.5211 115.534 65.8227V66.8537H109.699V65.989C109.04 66.6209 108.315 67.1863 107.524 67.7184L106.205 65.989C106.7 65.7229 107.161 65.4236 107.623 65.0911C107.161 64.6587 106.733 64.2929 106.304 63.9936L106.831 63.4947L105.941 62.1644C105.744 62.8295 105.513 63.5612 105.216 64.3594C106.139 65.9225 106.601 67.2861 106.601 68.4833C106.601 69.5476 106.37 70.3125 105.909 70.7781C105.579 71.1772 104.722 71.41 103.271 71.4432V75.8997H101.129V58.107H106.601ZM103.304 63.9603C103.898 62.7298 104.293 61.599 104.557 60.5348H103.304V63.9603ZM103.304 69.215C103.436 69.215 103.568 69.2482 103.634 69.2482C104.227 69.2482 104.524 69.0154 104.557 68.5498C104.59 67.4856 104.161 66.2218 103.304 64.825V69.215ZM108.546 70.1795L110.457 71.3767C109.37 72.8068 108.117 74.0041 106.667 75.035L104.887 73.4719C106.337 72.4742 107.557 71.3767 108.546 70.1795ZM106.93 68.0842H118.27V70.0132H113.721V73.738C113.721 75.1016 113.127 75.7667 111.941 75.7667H109.765L109.468 73.3389C110.227 73.4054 110.688 73.4054 110.787 73.4054C111.15 73.4054 111.314 73.2724 111.314 72.9731V69.9799H106.897V68.0842H106.93ZM107.623 62.9958C108.15 63.3284 108.611 63.661 109.007 63.9603C109.205 63.7275 109.403 63.528 109.6 63.2952C109.205 62.9626 108.743 62.63 108.249 62.3307C108.051 62.5635 107.853 62.763 107.623 62.9958ZM109.238 61.0004C109.732 61.2664 110.194 61.5325 110.589 61.8318C110.787 61.3995 110.985 60.9339 111.183 60.4683H109.6C109.469 60.6346 109.37 60.8341 109.238 61.0004ZM110.721 64.958H114.71C113.82 63.9936 113.094 63.0624 112.534 62.0646C112.171 62.9626 111.743 63.6942 111.248 64.3594C111.051 64.5922 110.886 64.7917 110.721 64.958ZM115.731 70.1795C117.083 71.3435 118.105 72.3744 118.83 73.3057L117.281 75.1681C116.193 73.6715 115.171 72.4742 114.182 71.5763L115.731 70.1795Z" fill="white"/>
</svg>
