<svg width="453" height="128" viewBox="0 0 453 128" fill="none" xmlns="http://www.w3.org/2000/svg">
<path d="M8.18149 86.6065H20.8009V90.2293H8.18149V86.6065ZM6.52104 86.6065H10.325V95.905C10.325 101.4 9.41928 109.34 3.56242 113.928C2.98881 113.204 1.47931 111.845 0.66418 111.332C6.06819 107.105 6.52104 100.766 6.52104 95.8748V86.6065ZM18.9895 86.6065H22.7029V107.709C22.7029 109.219 22.7935 109.43 23.4274 109.43C23.7293 109.43 24.8766 109.43 25.1785 109.43C25.9332 109.43 26.054 108.253 26.1747 103.724C27.0201 104.419 28.5296 105.113 29.5258 105.354C29.2239 110.819 28.4088 112.932 25.5709 112.932C24.9973 112.932 23.3067 112.932 22.7633 112.932C19.8952 112.932 18.9895 111.755 18.9895 107.679V86.6065ZM10.1438 96.5692L12.8609 94.4559C14.7327 96.5994 17.5102 99.5882 18.8084 101.4L15.8498 103.905C14.6723 102.003 12.0458 98.8636 10.1438 96.5692ZM81.2413 85.8215H84.3811V93.5804H81.2413V85.8215ZM76.7128 109.762C79.5205 109.4 83.7169 108.766 87.7623 108.102L87.9737 111.06C84.3207 111.785 80.4262 112.479 77.4675 113.023L76.7128 109.762ZM85.166 105.294L87.6114 104.751C88.4869 107.407 89.4228 110.94 89.7247 113.023L87.0982 113.687C86.8264 111.604 85.9811 107.981 85.166 105.294ZM79.7016 94.154V100.464H85.8V94.154H79.7016ZM77.1355 91.1048H88.4567V103.573H77.1355V91.1048ZM81.513 92.252H84.0792V101.913H84.3509V110.457H81.2413V101.913H81.513V92.252ZM67.686 106.2H70.2219V112.691H67.686V106.2ZM66.1161 93.0671V94.788H72.0032V93.0671H66.1161ZM63.0669 90.6217H75.2335V97.2334H63.0669V90.6217ZM61.5876 86.5159H76.6524V89.5349H61.5876V86.5159ZM65.4821 105.385H72.3956V107.589H65.4821V105.385ZM62.0405 98.29H74.0561V100.977H64.8179V113.687H62.0405V98.29ZM73.1504 98.29H76.0486V110.245C76.0486 111.543 75.8373 112.298 75.0222 112.781C74.2372 113.204 73.1202 113.264 71.6409 113.264C71.5503 112.449 71.2182 111.302 70.8861 110.547C71.7013 110.577 72.5164 110.577 72.7881 110.577C73.0598 110.577 73.1504 110.487 73.1504 110.185V98.29ZM65.4217 102.124L67.2935 101.49C67.9275 102.426 68.5313 103.754 68.7728 104.57L66.8105 105.324C66.5991 104.479 66.0255 103.12 65.4217 102.124ZM70.5238 101.279L72.7277 102.154C71.8824 103.724 71.0371 105.536 70.2823 106.713L68.5917 105.928C69.2559 104.69 70.1012 102.668 70.5238 101.279ZM127.402 92.9464H144.248V95.4823H127.402V92.9464ZM139.538 91.3161L141.138 89.7462C142.165 90.2293 143.403 91.0142 144.006 91.6784L142.346 93.3992C141.742 92.735 140.534 91.8897 139.538 91.3161ZM140.776 96.3277L143.584 96.8711C142.074 102.215 139.146 106.321 135.191 108.857C134.829 108.313 133.832 107.166 133.228 106.683C137.002 104.539 139.599 100.947 140.776 96.3277ZM127.07 104.479C129.274 104.237 132.444 103.845 135.613 103.422L135.704 105.838C132.776 106.29 129.817 106.743 127.402 107.105L127.07 104.479ZM130.511 98.7127V100.645H132.534V98.7127H130.511ZM128.187 96.7805H134.949V102.547H128.187V96.7805ZM135.493 90.35H138.512C138.723 97.8673 139.75 104.962 141.742 105.445C142.074 105.536 142.316 104.358 142.467 102.577C143.01 103.151 144.097 103.996 144.701 104.298C144.248 108.041 142.618 109.189 140.625 108.283C136.851 107.075 135.946 99.0448 135.493 90.35ZM122.903 86.6669H148.776V113.808H145.184V89.9274H126.315V113.808H122.903V86.6669ZM125.047 109.309H147.146V112.54H125.047V109.309ZM183.102 86.5461H189.986V89.7764H186.182V113.627H183.102V86.5461ZM188.869 86.5461H189.442L189.925 86.4253L192.159 87.6631C191.465 90.2595 190.529 93.3388 189.744 95.7239C191.435 98.1089 191.767 100.252 191.767 102.034C191.767 103.966 191.405 105.294 190.499 105.988C190.046 106.351 189.472 106.532 188.869 106.653C188.355 106.713 187.661 106.743 186.997 106.683C186.967 105.868 186.725 104.57 186.242 103.724C186.755 103.754 187.118 103.754 187.48 103.754C187.782 103.754 188.054 103.694 188.235 103.513C188.567 103.241 188.748 102.517 188.748 101.641C188.748 100.192 188.416 98.2296 186.816 96.0559C187.631 93.369 188.476 89.4443 188.869 87.5122V86.5461ZM196.175 97.0824H205.05V99.9505H196.175V97.0824ZM193.397 102.003H208.069V104.932H193.397V102.003ZM194.756 87.5726H199.314V89.9274H194.756V87.5726ZM193.639 91.7086L195.148 90.0783C196.235 90.8633 197.745 92.0407 198.469 92.7954L196.899 94.637C196.205 93.8219 194.786 92.5841 193.639 91.7086ZM203.783 107.196L206.439 105.626C207.768 107.136 209.639 109.249 210.575 110.547L207.768 112.328C206.922 111.03 205.111 108.796 203.783 107.196ZM198.56 87.5726H199.043L199.526 87.4518L201.337 88.1462C200.039 94.2747 196.99 98.773 193.095 101.279C192.733 100.615 191.918 99.6184 191.314 99.1051C194.695 97.1126 197.563 92.8558 198.56 88.0858V87.5726ZM202.756 86.9688H207.888V89.3538H202.756V86.9688ZM194.726 85.3989L197.412 86.0027C196.295 89.2632 194.393 92.3124 192.31 94.2445C191.857 93.7615 190.771 92.8558 190.167 92.4331C192.22 90.7727 193.85 88.1764 194.726 85.3989ZM206.892 86.9688H207.526L208.13 86.8178L210.092 87.9348C209.187 90.6217 207.677 93.4898 206.107 95.271C205.684 94.637 204.749 93.7313 204.175 93.2785C205.352 91.7992 206.409 89.3236 206.892 87.5122V86.9688ZM194.363 105.988L197.594 107.045C196.507 108.917 194.786 111.181 193.518 112.57C192.824 112.026 191.465 111.151 190.65 110.728C191.978 109.49 193.427 107.619 194.363 105.988ZM203.299 88.2065C204.537 92.735 207.073 96.8107 210.696 98.7429C210.002 99.3165 209.066 100.464 208.643 101.249C204.658 98.8334 202.092 94.2445 200.613 88.8405L203.299 88.2065ZM199.073 103.241H202.484V113.657H199.073V103.241ZM190.952 94.637C192.19 94.5464 193.518 94.3955 195.178 94.2144L195.239 96.1465C193.82 96.4182 192.642 96.6296 191.314 96.8711L190.952 94.637ZM243.15 89.0217H270.08V92.403H243.15V89.0217ZM250.819 99.8901H264.344V102.909H250.819V99.8901ZM263.166 94.788H266.698V109.792C266.698 111.574 266.366 112.57 265.129 113.143C263.921 113.687 262.2 113.717 259.755 113.717C259.604 112.721 259.121 111.181 258.638 110.245C260.208 110.336 261.989 110.306 262.502 110.306C262.985 110.306 263.166 110.155 263.166 109.732V94.788ZM252.509 85.3385L256.253 86.1838C254.17 92.8558 250.577 99.6486 244.871 103.664C244.328 102.849 243.18 101.551 242.456 100.856C247.679 97.4145 251.03 91.0444 252.509 85.3385ZM250.728 104.871H264.344V107.89H250.728V104.871ZM250.607 94.788H263.981V97.9881H250.607V94.788ZM248.615 94.788H252.268V102.879C252.268 106.502 251.664 111.211 248.403 113.959C247.92 113.204 246.501 111.664 245.777 111.151C248.403 108.887 248.615 105.656 248.615 102.819V94.788ZM304.194 86.5461H311.44V89.7764H307.364V113.627H304.194V86.5461ZM310.806 86.5461H311.41L311.923 86.4253L314.278 87.7537C313.493 90.3198 312.527 93.3388 311.651 95.6937C313.493 98.0787 313.855 100.222 313.855 102.003C313.855 103.966 313.463 105.264 312.497 105.988C312.044 106.351 311.44 106.562 310.776 106.653C310.232 106.743 309.508 106.743 308.814 106.743C308.814 105.868 308.512 104.509 308.029 103.634C308.542 103.664 308.964 103.694 309.357 103.664C309.629 103.634 309.931 103.573 310.172 103.422C310.504 103.151 310.685 102.486 310.685 101.611C310.685 100.162 310.323 98.1692 308.572 96.0559C309.447 93.3992 310.383 89.4443 310.806 87.5726V86.5461ZM316.844 86.5763H328.89V100.494H316.844V97.3843H325.388V89.6859H316.844V86.5763ZM317.116 92.0407H327.35V94.9691H317.116V92.0407ZM323.154 98.6523C324.331 103.996 326.867 108.464 331.335 110.487C330.52 111.181 329.433 112.63 328.89 113.596C324.059 110.94 321.614 105.777 320.225 99.1957L323.154 98.6523ZM328.316 100.796L330.671 103.362C328.98 104.66 326.958 106.109 325.448 106.985L323.546 104.751C324.995 103.815 327.109 102.094 328.316 100.796ZM315.304 113.808L314.972 110.668L316.452 109.521L322.942 108.102C322.912 109.128 322.973 110.608 323.093 111.392C317.146 112.902 315.999 113.325 315.304 113.808ZM315.304 113.808C315.033 112.993 314.278 111.574 313.765 110.97C314.368 110.577 315.153 109.732 315.153 108.343V86.5763H318.686V110.517C318.686 110.517 315.304 112.51 315.304 113.808ZM380.183 102.879L383.715 101.279C386.16 104.6 388.968 108.917 390.447 111.725L386.704 113.747C385.406 110.879 382.507 106.26 380.183 102.879ZM371.156 86.0631L375.201 87.3612C372.967 92.3124 369.435 97.4749 366.144 100.645C365.45 99.8297 363.85 98.2598 362.914 97.5654C366.144 94.8483 369.314 90.4406 371.156 86.0631ZM366.899 112.66C366.658 111.876 365.963 109.853 365.42 108.766C366.446 108.494 367.231 107.679 368.409 106.351C369.707 105.022 373.541 99.8599 375.896 94.8483L380.152 96.6296C377.194 101.822 373.299 106.924 369.616 110.517V110.608C369.616 110.608 366.899 111.906 366.899 112.66ZM366.899 112.66L366.778 109.551L369.194 108.223L386.523 107.105C386.704 108.192 387.096 109.732 387.338 110.577C370.673 111.906 368.469 112.026 366.899 112.66ZM380.032 86.0932H384.289C385.587 90.35 388.364 94.6068 392.108 96.9013C391.262 97.6862 389.934 99.407 389.33 100.554C385.375 97.5051 382.387 92.6143 380.817 88.116H380.032V86.0932ZM376.65 86.0932H382.96V89.8368H376.65V86.0932ZM425.045 87.1801H447.506V90.6217H425.045V87.1801ZM425.317 92.7954H443.189V95.9352H425.317V92.7954ZM446.238 87.1801H449.952V109.128C449.952 111.211 449.589 112.328 448.291 112.962C447.023 113.566 445.121 113.657 442.374 113.657C442.253 112.57 441.71 110.758 441.197 109.732C442.917 109.823 444.88 109.823 445.484 109.792C446.027 109.792 446.238 109.641 446.238 109.068V87.1801ZM426.887 98.1692H430.419V110.638H426.887V98.1692ZM430.026 98.1692H441.619V108.434H430.026V105.324H438.057V101.309H430.026V98.1692Z" fill="#231815"/>
<path d="M256.94 16.9001C258.171 16.0482 259.656 15.6425 261.15 15.7501H266.06C267.607 15.6307 269.152 16.0092 270.47 16.8301L300.84 41.5201C301.71 42.2801 301.15 42.6601 299.14 42.6601H291.14C289.593 42.7831 288.048 42.4081 286.73 41.5901C284.656 40.0167 282.686 38.4301 280.82 36.8301C279.733 36.1809 278.473 35.8808 277.21 35.9701H250.63C249.245 35.9121 247.878 36.2898 246.72 37.0501L241.11 41.5901C239.792 42.4081 238.246 42.7831 236.7 42.6601H228.7C226.7 42.6601 226.09 42.3101 226.89 41.5901L256.94 16.9001ZM264.94 23.6301C264.645 23.3357 264.246 23.1704 263.83 23.1704C263.413 23.1704 263.014 23.3357 262.72 23.6301C262.691 23.6542 262.664 23.6809 262.64 23.7101C259.826 25.9501 257.16 28.1934 254.64 30.4401C253.84 31.2001 254.24 31.5801 255.84 31.5801H271.84C273.513 31.5801 273.913 31.2101 273.04 30.4701L264.94 23.6301Z" fill="#231815"/>
<path d="M309.061 16.9C309.061 16.13 310.001 15.75 311.871 15.75H333.721C343.481 15.8233 351.501 16.8633 357.781 18.87C362.121 20.73 363.924 22.9233 363.191 25.45C362.924 27.67 360.384 29.6133 355.571 31.28C347.691 33.24 337.401 34.0533 324.701 33.72C323.031 33.72 322.191 34 322.191 34.58V41.58C322.191 42.31 321.191 42.68 319.191 42.68H312.191C310.121 42.68 309.081 42.33 309.081 41.61L309.061 16.9ZM349.261 26C351.261 22.6667 346.614 20.7467 335.321 20.24H324.701C323.031 20.24 322.191 20.53 322.191 21.1V28.44C322.191 29.03 323.001 29.33 324.601 29.33H335.431C342.444 29.2833 347.054 28.1733 349.261 26Z" fill="#231815"/>
<path d="M371.409 16.9C371.409 16.13 372.339 15.75 374.219 15.75H396.769C404.861 15.7789 412.925 16.6909 420.819 18.47C426.699 20.0033 430.576 21.83 432.449 23.95C436.389 28.55 435.519 32.82 429.839 36.76C424.299 39.7933 416.749 41.5933 407.189 42.16C404.249 42.43 400.679 42.59 396.469 42.66H374.469C372.399 42.66 371.369 42.31 371.369 41.59L371.409 16.9ZM401.779 20.44C396.772 20.18 391.926 20.0733 387.239 20.12C385.569 20.12 384.739 20.4 384.739 20.98V37.4C384.739 38 385.539 38.3 387.139 38.3H397.999C403.411 38.3776 408.805 37.6427 413.999 36.12C420.139 33.56 422.176 30.4433 420.109 26.77C417.576 23.0833 411.466 20.9733 401.779 20.44Z" fill="#231815"/>
<path d="M437.561 7.81001C437.561 7.61001 437.681 7.51001 437.931 7.51001H441.651C442.346 7.52986 443.028 7.70046 443.651 8.01001C443.977 8.19151 444.242 8.46667 444.411 8.80001C444.61 9.15324 444.662 9.57086 444.555 9.96218C444.448 10.3535 444.192 10.6869 443.841 10.89C443.611 11.01 443.621 11.16 443.841 11.34C444.063 11.5374 444.217 11.7999 444.281 12.09L444.571 13.58C444.699 13.8773 444.911 14.131 445.181 14.31C445.391 14.46 445.361 14.54 445.091 14.54H443.581C443.465 14.5456 443.35 14.523 443.246 14.4742C443.141 14.4254 443.05 14.3519 442.981 14.26C442.739 13.5595 442.571 12.8355 442.481 12.1C442.421 11.82 442.171 11.68 441.731 11.68H439.631C439.411 11.68 439.301 11.76 439.301 11.91V14.25C439.301 14.44 439.171 14.54 438.911 14.54H438.001C437.731 14.54 437.591 14.44 437.591 14.26L437.561 7.81001ZM442.661 9.11001C442.255 8.79916 441.751 8.64316 441.241 8.67001H439.601C439.381 8.67001 439.271 8.74001 439.271 8.89001V10.32C439.271 10.47 439.381 10.55 439.591 10.55H441.141C441.499 10.5303 441.852 10.4596 442.191 10.34C442.871 10 443.001 9.63001 442.661 9.11001Z" fill="#231815"/>
<path d="M440.671 16.9499C445.432 16.9499 449.291 14.201 449.291 10.8099C449.291 7.41889 445.432 4.66992 440.671 4.66992C435.91 4.66992 432.051 7.41889 432.051 10.8099C432.051 14.201 435.91 16.9499 440.671 16.9499Z" stroke="#231815" stroke-width="0.5" stroke-miterlimit="10"/>
<path d="M226.461 52.51C226.461 52.37 226.571 52.29 226.791 52.29H232.861C233.111 52.29 233.231 52.36 233.231 52.5V52.94C233.231 53.08 233.111 53.15 232.871 53.15H228.321C228.111 53.15 228.021 53.21 228.021 53.32V54.23C228.021 54.34 228.111 54.4 228.301 54.4H232.701C232.951 54.4 233.071 54.47 233.071 54.61V55.05C233.071 55.19 232.951 55.26 232.711 55.26H228.321C228.111 55.26 228.021 55.32 228.021 55.43V57.31C228.021 57.45 227.891 57.52 227.661 57.52H226.831C226.581 57.52 226.461 57.45 226.461 57.31V52.51Z" fill="#231815"/>
<path d="M237.77 52.51C237.832 52.4356 237.91 52.3768 237.999 52.3386C238.087 52.3003 238.184 52.2837 238.28 52.29H238.86C238.959 52.28 239.059 52.2939 239.151 52.3305C239.243 52.367 239.325 52.4251 239.39 52.5L243 57.3C243.11 57.45 243 57.52 242.8 57.52H241.8C241.702 57.5299 241.602 57.5161 241.51 57.4795C241.417 57.443 241.335 57.3848 241.27 57.31C241.02 57.01 240.79 56.7 240.56 56.39C240.506 56.3316 240.439 56.286 240.364 56.2566C240.29 56.2272 240.21 56.2147 240.13 56.22H237C236.911 56.2165 236.822 56.2336 236.741 56.27C236.659 56.3064 236.587 56.3612 236.53 56.43L235.86 57.31C235.795 57.3848 235.713 57.443 235.621 57.4795C235.529 57.5161 235.429 57.5299 235.33 57.52H234.33C234.09 57.52 234.02 57.45 234.12 57.31L237.77 52.51ZM238.77 53.82C238.68 53.7 238.59 53.7 238.49 53.82C238.16 54.25 237.84 54.69 237.49 55.12C237.4 55.27 237.49 55.35 237.64 55.35H239.56C239.76 55.35 239.81 55.27 239.7 55.13L238.77 53.82Z" fill="#231815"/>
<path d="M244 52.51C244 52.37 244.11 52.29 244.33 52.29H245.22C245.439 52.2828 245.653 52.3577 245.82 52.5C246.98 53.57 248.16 54.63 249.35 55.7C249.51 55.8267 249.59 55.8267 249.59 55.7V52.51C249.59 52.36 249.71 52.29 249.95 52.29H250.8C251.05 52.29 251.18 52.36 251.18 52.5V57.31C251.18 57.45 251.05 57.52 250.81 57.52H250C249.778 57.5269 249.561 57.4522 249.39 57.31L245.84 54.09C245.67 53.97 245.59 53.98 245.59 54.09V57.29C245.59 57.43 245.47 57.5 245.23 57.5H244.37C244.12 57.5 244 57.43 244 57.29V52.51Z" fill="#231815"/>
<path d="M252.42 52.51C252.42 52.37 252.53 52.29 252.75 52.29H256.15C256.785 52.3014 257.412 52.4302 258 52.67C258.287 52.788 258.531 52.9903 258.7 53.25C259.07 53.84 258.89 54.35 258.15 54.81C257.943 54.8967 257.943 55.0067 258.15 55.14C258.349 55.2718 258.494 55.4704 258.56 55.7L258.82 56.81C258.947 57.0393 259.138 57.2268 259.37 57.35C259.57 57.47 259.54 57.52 259.29 57.52H258C257.897 57.5266 257.794 57.5112 257.697 57.475C257.601 57.4388 257.513 57.3826 257.44 57.31C257.22 56.7987 257.069 56.2608 256.99 55.71C256.93 55.51 256.71 55.4 256.31 55.4H254.31C254.12 55.4 254.02 55.46 254.02 55.57V57.31C254.02 57.45 253.9 57.52 253.66 57.52H252.83C252.58 57.52 252.46 57.45 252.46 57.31L252.42 52.51ZM257.07 53.51C256.678 53.2766 256.226 53.162 255.77 53.18H254.27C254.08 53.18 253.98 53.24 253.98 53.35V54.41C253.98 54.52 254.07 54.58 254.26 54.58H255.68C256.018 54.5701 256.354 54.5197 256.68 54.43C257.26 54.18 257.4 53.87 257.07 53.43V53.51Z" fill="#231815"/>
<path d="M262.88 52.52C264.117 52.1611 265.421 52.0893 266.69 52.31C267.635 52.4137 268.502 52.8797 269.11 53.61C269.332 53.9271 269.469 54.2953 269.51 54.68C269.553 55.0614 269.495 55.4475 269.34 55.7988C269.185 56.1502 268.94 56.4543 268.63 56.68C268.111 57.0715 267.509 57.3384 266.87 57.46C266.112 57.5982 265.339 57.6418 264.57 57.59C263.92 57.6157 263.274 57.4847 262.686 57.2079C262.097 56.9312 261.584 56.5169 261.19 56C260.985 55.6287 260.887 55.208 260.907 54.7845C260.926 54.361 261.062 53.951 261.3 53.6C261.712 53.0961 262.261 52.7213 262.88 52.52ZM264.96 53.05C264.219 53.0419 263.504 53.3174 262.96 53.82C262.802 54.0208 262.688 54.2534 262.628 54.5018C262.568 54.7503 262.561 55.0089 262.61 55.26C262.65 55.4614 262.732 55.6521 262.85 55.82C263.038 56.0636 263.273 56.2669 263.541 56.4181C263.809 56.5692 264.104 56.6651 264.41 56.7C265.076 56.8141 265.76 56.7765 266.41 56.59C266.714 56.5098 266.995 56.3591 267.23 56.15C267.494 55.9398 267.685 55.652 267.777 55.3272C267.868 55.0024 267.855 54.6571 267.74 54.34C267.671 54.128 267.547 53.9382 267.38 53.79C267.054 53.5122 266.675 53.3035 266.266 53.1763C265.857 53.0491 265.426 53.0061 265 53.05H264.96Z" fill="#231815"/>
<path d="M270.279 52.51C270.279 52.37 270.389 52.29 270.609 52.29H271.499C271.718 52.2828 271.932 52.3577 272.099 52.5C273.259 53.57 274.439 54.63 275.629 55.7C275.789 55.8267 275.869 55.8267 275.869 55.7V52.51C275.869 52.36 275.999 52.29 276.229 52.29H277.079C277.329 52.29 277.459 52.36 277.459 52.5V57.31C277.459 57.45 277.339 57.52 277.099 57.52H276.279C276.057 57.5269 275.84 57.4522 275.669 57.31L272.119 54.09C271.949 53.97 271.869 53.98 271.869 54.09V57.29C271.869 57.43 271.749 57.5 271.509 57.5H270.649C270.399 57.5 270.279 57.43 270.279 57.29V52.51Z" fill="#231815"/>
<path d="M281.321 52.3101C281.951 52.1985 282.592 52.1615 283.231 52.2001C283.853 52.2305 284.466 52.3692 285.041 52.6101C285.287 52.7087 285.506 52.8644 285.68 53.0644C285.853 53.2643 285.977 53.5028 286.041 53.7601C286.041 53.9201 285.931 54.0001 285.701 54.0001H284.821C284.581 54.0001 284.441 53.9301 284.401 53.7901C284.211 53.3001 283.721 53.0601 282.931 53.0501C282.551 53.0316 282.17 53.0686 281.801 53.1601C281.476 53.2523 281.174 53.4087 280.911 53.6201C280.634 53.8629 280.441 54.1873 280.36 54.5468C280.279 54.9062 280.314 55.282 280.461 55.6201C280.591 56.0901 281.041 56.4401 281.791 56.6201C282.59 56.7916 283.415 56.8085 284.221 56.6701C284.255 56.6742 284.29 56.6716 284.323 56.6623C284.356 56.6529 284.387 56.6371 284.414 56.6157C284.441 56.5943 284.463 56.5678 284.48 56.5376C284.496 56.5075 284.507 56.4743 284.511 56.4401V55.6901C284.511 55.5701 284.411 55.5101 284.221 55.5101H282.731C282.491 55.5101 282.361 55.4401 282.361 55.3001V54.8701C282.361 54.7301 282.481 54.6601 282.721 54.6601H285.721C285.971 54.6601 286.091 54.7301 286.091 54.8601V57.0001C286.091 57.1401 285.971 57.2401 285.731 57.3201C285.141 57.47 284.538 57.5605 283.931 57.5901C283.108 57.6667 282.278 57.6432 281.461 57.5201C280.54 57.4078 279.697 56.9503 279.101 56.2401C278.883 55.9119 278.739 55.5398 278.681 55.1501C278.619 54.6444 278.732 54.1327 279.001 53.7001C279.273 53.3228 279.619 53.005 280.017 52.766C280.416 52.527 280.86 52.3719 281.321 52.3101Z" fill="#231815"/>
<path d="M293.23 52.51C293.23 52.37 293.34 52.29 293.56 52.29H294.43C294.67 52.29 294.8 52.36 294.8 52.5V57.31C294.8 57.45 294.68 57.52 294.44 57.52H293.6C293.35 57.52 293.23 57.45 293.23 57.31V52.51Z" fill="#231815"/>
<path d="M296 52.51C296 52.37 296.11 52.29 296.34 52.29H297.23C297.449 52.2828 297.663 52.3577 297.83 52.5C298.99 53.57 300.17 54.63 301.36 55.7C301.52 55.8267 301.6 55.8267 301.6 55.7V52.51C301.6 52.36 301.72 52.29 301.96 52.29H302.81C303.06 52.29 303.18 52.36 303.18 52.5V57.31C303.18 57.45 303.06 57.52 302.82 57.52H302C301.778 57.5269 301.561 57.4522 301.39 57.31L297.84 54.09C297.67 53.97 297.59 53.98 297.59 54.09V57.29C297.59 57.43 297.47 57.5 297.23 57.5H296.36C296.12 57.5 295.99 57.43 295.99 57.29L296 52.51Z" fill="#231815"/>
<path d="M304.15 52.51C304.15 52.37 304.26 52.29 304.48 52.29H311C311.25 52.29 311.38 52.36 311.38 52.5V52.94C311.38 53.08 311.25 53.15 311.02 53.15H308.86C308.66 53.15 308.56 53.21 308.56 53.32V57.32C308.56 57.46 308.44 57.53 308.2 57.53H307.34C307.09 57.53 306.96 57.46 306.96 57.32V53.32C306.96 53.2 306.87 53.14 306.68 53.14H304.52C304.27 53.14 304.15 53.07 304.15 52.94V52.51Z" fill="#231815"/>
<path d="M312.301 52.51C312.301 52.37 312.411 52.29 312.631 52.29H318.701C318.951 52.29 319.071 52.36 319.071 52.5V52.94C319.071 53.08 318.951 53.15 318.711 53.15H314.151C313.961 53.15 313.861 53.21 313.861 53.32V54.23C313.861 54.34 313.951 54.4 314.141 54.4H318.561C318.801 54.4 318.931 54.47 318.931 54.61V55.05C318.931 55.19 318.811 55.26 318.571 55.26H314.151C313.961 55.26 313.861 55.32 313.861 55.43V56.49C313.861 56.6 313.951 56.66 314.141 56.66H318.881C319.131 56.66 319.251 56.73 319.251 56.87V57.31C319.251 57.45 319.131 57.52 318.891 57.52H312.671C312.421 57.52 312.301 57.45 312.301 57.31V52.51Z" fill="#231815"/>
<path d="M320.231 52.51C320.231 52.37 320.341 52.29 320.571 52.29H324.001C324.639 52.3004 325.27 52.4292 325.861 52.67C326.145 52.7881 326.386 52.9905 326.551 53.25C326.931 53.84 326.751 54.35 326.001 54.81C325.791 54.9 325.811 55.01 326.001 55.14C326.196 55.2735 326.338 55.4719 326.401 55.7L326.671 56.81C326.671 56.96 326.891 57.14 327.221 57.35C327.551 57.56 327.381 57.52 327.141 57.52H325.771C325.669 57.5278 325.567 57.5129 325.472 57.4766C325.377 57.4403 325.291 57.3834 325.221 57.31C325.003 56.7975 324.848 56.2602 324.761 55.71C324.711 55.51 324.481 55.4 324.081 55.4H322.081C321.881 55.4 321.781 55.46 321.781 55.57V57.31C321.781 57.45 321.661 57.52 321.421 57.52H320.591C320.341 57.52 320.221 57.45 320.221 57.31L320.231 52.51ZM324.881 53.51C324.492 53.278 324.044 53.1634 323.591 53.18H322.091C321.891 53.18 321.791 53.24 321.791 53.35V54.41C321.791 54.52 321.891 54.58 322.081 54.58H323.491C323.83 54.5806 324.167 54.53 324.491 54.43C325.081 54.18 325.221 53.87 324.881 53.43V53.51Z" fill="#231815"/>
<path d="M328.5 52.5101C328.5 52.3701 328.61 52.2901 328.84 52.2901H329.73C329.948 52.2875 330.161 52.3618 330.33 52.5001C331.49 53.5701 332.67 54.6301 333.86 55.7001C334.02 55.8268 334.1 55.8268 334.1 55.7001V52.5101C334.1 52.3601 334.22 52.2901 334.46 52.2901H335.31C335.56 52.2901 335.68 52.3601 335.68 52.5001V57.3101C335.68 57.4501 335.56 57.5201 335.32 57.5201H334.51C334.288 57.5269 334.071 57.4523 333.9 57.3101L330.35 54.0901C330.18 53.9701 330.1 53.9801 330.1 54.0901V57.2901C330.1 57.4301 329.98 57.5001 329.74 57.5001H328.87C328.63 57.5001 328.5 57.4301 328.5 57.2901V52.5101Z" fill="#231815"/>
<path d="M340.47 52.51C340.53 52.4364 340.607 52.3781 340.694 52.3398C340.781 52.3016 340.876 52.2845 340.97 52.29H341.56C341.658 52.28 341.756 52.2939 341.846 52.3305C341.937 52.3671 342.017 52.4253 342.08 52.5L345.71 57.3C345.82 57.45 345.71 57.52 345.51 57.52H344.51C344.413 57.53 344.315 57.5161 344.224 57.4795C344.134 57.4429 344.053 57.3847 343.99 57.31C343.74 57.01 343.5 56.7 343.28 56.39C343.226 56.3316 343.159 56.2861 343.084 56.2567C343.01 56.2273 342.93 56.2147 342.85 56.22H339.67C339.581 56.2165 339.492 56.2336 339.411 56.27C339.329 56.3064 339.257 56.3612 339.2 56.43L338.53 57.31C338.465 57.3849 338.383 57.443 338.291 57.4795C338.199 57.5161 338.099 57.53 338 57.52H337C336.77 57.52 336.69 57.45 336.79 57.31L340.47 52.51ZM341.42 53.82C341.34 53.7 341.24 53.7 341.15 53.82C340.81 54.25 340.49 54.69 340.15 55.12C340.05 55.27 340.15 55.35 340.29 55.35H342.21C342.41 55.35 342.46 55.27 342.35 55.13L341.42 53.82Z" fill="#231815"/>
<path d="M346.4 52.51C346.4 52.37 346.51 52.29 346.73 52.29H353.25C353.5 52.29 353.63 52.36 353.63 52.5V52.94C353.63 53.08 353.5 53.15 353.27 53.15H351.11C350.91 53.15 350.81 53.21 350.81 53.32V57.32C350.81 57.46 350.69 57.53 350.45 57.53H349.59C349.34 57.53 349.21 57.46 349.21 57.32V53.32C349.21 53.2 349.12 53.14 348.93 53.14H346.77C346.52 53.14 346.4 53.07 346.4 52.94V52.51Z" fill="#231815"/>
<path d="M354.551 52.51C354.551 52.37 354.661 52.29 354.881 52.29H355.751C355.991 52.29 356.121 52.36 356.121 52.5V57.31C356.121 57.45 356.001 57.52 355.761 57.52H354.921C354.671 57.52 354.551 57.45 354.551 57.31V52.51Z" fill="#231815"/>
<path d="M359.55 52.52C360.788 52.1611 362.091 52.0893 363.36 52.31C364.303 52.4177 365.17 52.883 365.78 53.61C365.997 53.9287 366.131 54.2965 366.17 54.68C366.215 55.0605 366.157 55.446 366.005 55.7972C365.852 56.1485 365.609 56.4531 365.3 56.68C364.781 57.0715 364.179 57.3384 363.54 57.46C362.782 57.5982 362.009 57.6418 361.24 57.59C360.589 57.6148 359.942 57.4835 359.352 57.2068C358.762 56.9302 358.247 56.5164 357.85 56C357.646 55.6287 357.547 55.208 357.567 54.7845C357.586 54.361 357.722 53.951 357.96 53.6C358.376 53.095 358.928 52.7201 359.55 52.52ZM361.62 53.05C360.88 53.0419 360.164 53.3174 359.62 53.82C359.387 54.0955 359.249 54.4394 359.227 54.8C359.205 55.1606 359.301 55.5185 359.5 55.82C359.689 56.0651 359.925 56.2695 360.195 56.4207C360.465 56.5719 360.763 56.667 361.07 56.7C361.736 56.819 362.421 56.7814 363.07 56.59C363.378 56.5113 363.662 56.3605 363.9 56.15C364.164 55.9395 364.354 55.6511 364.444 55.3261C364.533 55.001 364.518 54.6559 364.4 54.34C364.331 54.128 364.207 53.9382 364.04 53.79C363.71 53.5055 363.325 53.2928 362.908 53.1654C362.491 53.038 362.053 52.9987 361.62 53.05Z" fill="#231815"/>
<path d="M366.939 52.51C366.939 52.37 367.049 52.29 367.279 52.29H368.159C368.379 52.2828 368.593 52.3577 368.759 52.5C369.929 53.57 371.109 54.63 372.299 55.7C372.459 55.8267 372.539 55.8267 372.539 55.7V52.51C372.539 52.36 372.659 52.29 372.899 52.29H373.749C373.999 52.29 374.119 52.36 374.119 52.5V57.31C374.119 57.45 373.999 57.52 373.759 57.52H372.999C372.775 57.5216 372.557 57.4476 372.379 57.31C371.219 56.24 370.029 55.17 368.839 54.09C368.669 53.97 368.589 53.98 368.589 54.09V57.29C368.589 57.43 368.459 57.5 368.219 57.5H367.359C367.109 57.5 366.989 57.43 366.989 57.29L366.939 52.51Z" fill="#231815"/>
<path d="M378.899 52.51C378.961 52.4356 379.039 52.3768 379.128 52.3386C379.217 52.3003 379.313 52.2837 379.409 52.29H379.999C380.098 52.28 380.198 52.2939 380.29 52.3305C380.382 52.367 380.464 52.4251 380.529 52.5L384.159 57.3C384.269 57.45 384.159 57.52 383.959 57.52H382.959C382.861 57.5299 382.761 57.5161 382.669 57.4795C382.577 57.443 382.495 57.3848 382.429 57.31C382.179 57.01 381.949 56.7 381.719 56.39C381.665 56.3316 381.598 56.286 381.524 56.2566C381.449 56.2272 381.369 56.2147 381.289 56.22H378.119C378.03 56.2165 377.941 56.2336 377.86 56.27C377.778 56.3064 377.706 56.3612 377.649 56.43L376.979 57.31C376.914 57.3848 376.832 57.443 376.74 57.4795C376.648 57.5161 376.548 57.5299 376.449 57.52H375.449C375.209 57.52 375.139 57.45 375.239 57.31L378.899 52.51ZM379.899 53.82C379.813 53.7 379.723 53.7 379.629 53.82C379.289 54.25 378.969 54.69 378.629 55.12C378.529 55.27 378.579 55.35 378.769 55.35H380.689C380.889 55.35 380.939 55.27 380.829 55.13L379.899 53.82Z" fill="#231815"/>
<path d="M385.139 52.51C385.139 52.37 385.249 52.29 385.469 52.29H386.319C386.569 52.29 386.689 52.36 386.689 52.5V56.5C386.689 56.61 386.789 56.67 386.979 56.67H390.479C390.729 56.67 390.849 56.74 390.849 56.88V57.33C390.849 57.47 390.729 57.54 390.489 57.54H385.489C385.239 57.54 385.119 57.47 385.119 57.33L385.139 52.51Z" fill="#231815"/>
<path d="M401.159 52.2899C401.767 52.1902 402.385 52.16 402.999 52.1999C404.549 52.3399 405.429 52.8399 405.649 53.6999C405.649 53.8599 405.539 53.9399 405.299 53.9399H404.439C404.199 53.9399 404.049 53.8699 403.989 53.7299C403.904 53.5523 403.772 53.4005 403.609 53.2899C403.446 53.1793 403.256 53.1137 403.059 53.0999C401.429 52.9099 400.419 53.3499 400.059 54.4199C399.929 54.8907 399.99 55.394 400.229 55.8199C400.541 56.1996 400.952 56.4857 401.416 56.6463C401.88 56.8069 402.38 56.8359 402.859 56.7299C403.109 56.7151 403.352 56.6412 403.567 56.5143C403.783 56.3873 403.965 56.2111 404.099 55.9999C404.169 55.8599 404.329 55.7899 404.569 55.7899H405.469C405.699 55.7899 405.809 55.8599 405.779 55.9999C405.429 56.9999 404.529 57.4599 403.079 57.5599C402.334 57.622 401.583 57.5782 400.849 57.4299C400.189 57.3067 399.572 57.0138 399.059 56.5799C398.666 56.1951 398.418 55.6859 398.358 55.1389C398.298 54.5919 398.429 54.041 398.729 53.5799C399.337 52.8452 400.211 52.3812 401.159 52.2899Z" fill="#231815"/>
<path d="M408.469 52.52C409.707 52.1611 411.01 52.0893 412.279 52.31C413.223 52.4177 414.089 52.883 414.699 53.61C414.921 53.9271 415.059 54.2953 415.099 54.68C415.139 55.0601 415.079 55.4438 414.927 55.7942C414.775 56.1446 414.534 56.4497 414.229 56.68C413.707 57.0717 413.101 57.3385 412.459 57.46C411.701 57.5982 410.928 57.6418 410.159 57.59C409.51 57.6157 408.863 57.4847 408.275 57.2079C407.687 56.9312 407.174 56.5169 406.779 56C406.573 55.6294 406.473 55.2083 406.493 54.7843C406.512 54.3603 406.649 53.9501 406.889 53.6C407.302 53.0961 407.85 52.7213 408.469 52.52ZM410.549 53.05C409.809 53.0419 409.093 53.3174 408.549 53.82C408.387 54.0186 408.27 54.2507 408.208 54.4997C408.146 54.7486 408.14 55.0083 408.189 55.26C408.229 55.4614 408.311 55.6521 408.429 55.82C408.616 56.0668 408.852 56.2724 409.123 56.4238C409.393 56.5752 409.691 56.6693 409.999 56.7C410.666 56.8141 411.349 56.7765 411.999 56.59C412.304 56.5098 412.584 56.3591 412.819 56.15C413.083 55.9398 413.275 55.652 413.366 55.3272C413.458 55.0024 413.445 54.6571 413.329 54.34C413.26 54.128 413.136 53.9382 412.969 53.79C412.639 53.5055 412.254 53.2928 411.837 53.1654C411.421 53.038 410.982 52.9987 410.549 53.05Z" fill="#231815"/>
<path d="M415.631 56.6199C415.631 56.4699 415.751 56.3999 415.991 56.3999H417.111C417.361 56.3999 417.481 56.4699 417.481 56.6099V57.2699C417.481 57.4099 417.361 57.4899 417.131 57.4899H416.001C415.761 57.4899 415.641 57.4199 415.641 57.2799L415.631 56.6199Z" fill="#231815"/>
<path d="M418.6 56.69C418.6 56.55 418.72 56.48 418.96 56.48H419.96C420.21 56.48 420.33 56.55 420.33 56.69V57.29C420.33 57.63 419.97 57.96 419.25 58.29C419.144 58.3395 419.025 58.3583 418.909 58.3441C418.792 58.33 418.682 58.2835 418.59 58.21C418.43 58.05 418.47 57.93 418.71 57.85C418.837 57.8097 418.958 57.7525 419.07 57.68C419.26 57.56 419.22 57.5 418.96 57.5C418.7 57.5 418.57 57.43 418.57 57.3L418.6 56.69Z" fill="#231815"/>
<path d="M421.19 52.51C421.19 52.37 421.3 52.29 421.52 52.29H422.37C422.62 52.29 422.75 52.36 422.75 52.5V56.5C422.75 56.61 422.84 56.67 423.03 56.67H426.53C426.78 56.67 426.9 56.74 426.9 56.88V57.33C426.9 57.47 426.79 57.54 426.54 57.54H421.54C421.29 57.54 421.17 57.47 421.17 57.33L421.19 52.51Z" fill="#231815"/>
<path d="M427.539 52.51C427.539 52.37 427.649 52.29 427.879 52.29H434.399C434.639 52.29 434.769 52.36 434.769 52.5V52.94C434.769 53.08 434.649 53.15 434.409 53.15H432.249C432.049 53.15 431.949 53.21 431.949 53.32V57.32C431.949 57.46 431.829 57.53 431.589 57.53H430.729C430.479 57.53 430.359 57.46 430.359 57.32V53.32C430.359 53.2 430.259 53.14 430.069 53.14H427.909C427.659 53.14 427.539 53.07 427.539 52.94V52.51Z" fill="#231815"/>
<path d="M435.689 52.51C435.689 52.37 435.799 52.29 436.029 52.29H438.719C439.703 52.3006 440.677 52.4798 441.599 52.82C442.17 53.0102 442.662 53.3827 442.999 53.88C443.24 54.2682 443.34 54.7268 443.284 55.1797C443.227 55.6326 443.018 56.0527 442.689 56.37C441.927 56.9972 440.985 57.3651 439.999 57.42C439.576 57.4835 439.148 57.5169 438.719 57.52H436.089C435.839 57.52 435.719 57.45 435.719 57.31L435.689 52.51ZM439.319 53.2C438.741 53.1501 438.16 53.1301 437.579 53.14C437.379 53.14 437.279 53.2 437.279 53.31V56.5C437.279 56.62 437.379 56.67 437.569 56.67H438.869C439.531 56.6873 440.186 56.5432 440.779 56.25C441.104 56.0897 441.359 55.8159 441.495 55.4805C441.631 55.1451 441.64 54.7714 441.519 54.43C441.303 54.0412 440.982 53.7202 440.594 53.503C440.205 53.2858 439.764 53.1809 439.319 53.2Z" fill="#231815"/>
<path d="M71.9095 0H7.93945V9.83H71.9095V0Z" fill="#B61D22"/>
<path d="M22.2096 15.8601H7.84961V62.3201H22.2096V15.8601Z" fill="#231815"/>
<path d="M42.3897 46.4799C43.6097 50.6099 46.7297 52.0999 50.8597 52.0999C52.6897 52.0999 56.3497 51.8299 56.3497 49.2499C56.3497 46.4099 52.7497 45.8699 50.6597 45.4599C41.9197 43.7699 31.5597 41.3999 31.5597 30.3599C31.5694 28.0824 32.1181 25.8394 33.161 23.8146C34.2038 21.7897 35.7111 20.0405 37.5597 18.7099C41.3497 16.0699 46.2897 15.1899 50.8997 15.1899C58.9597 15.1899 66.7497 18.5099 69.5897 26.5699L57.7697 30.1499C56.4097 26.6999 53.8397 25.4799 50.2497 25.4799C48.3597 25.4799 45.6397 26.0199 45.6397 28.4799C45.6397 30.9399 48.9997 31.3999 50.7897 31.7999C55.1997 32.6799 59.8697 33.4199 63.9297 35.5299C66.0778 36.6572 67.8652 38.3665 69.0872 40.4622C70.3093 42.5578 70.9166 44.9552 70.8397 47.3799C70.8397 58.5299 59.7297 62.9999 50.1097 62.9999C40.4897 62.9999 31.6897 58.9399 29.1797 48.8499L42.3897 46.4799Z" fill="#B61D22"/>
<path d="M79.3105 15.8701V62.3301H114.191V51.2201H93.2606V43.7001H110.191V33.3401H93.2606V26.5601H114.191V15.8701H79.3105Z" fill="#231815"/>
<path d="M163.901 39.23C163.901 52.44 155.771 63 141.681 63C127.591 63 119.471 52.44 119.471 39.23C119.471 25.35 127.471 15.23 141.681 15.23C155.891 15.23 163.901 25.39 163.901 39.23ZM134.711 39.3C134.711 43.77 135.181 52.37 141.711 52.37C148.241 52.37 148.711 43.77 148.711 39.3C148.711 34.83 148.031 25.69 141.711 25.69C135.391 25.69 134.711 34.76 134.711 39.3Z" fill="#231815"/>
<path d="M165.24 16.2901C165.4 16.3088 165.563 16.2926 165.716 16.2425C165.87 16.1925 166.011 16.1098 166.13 16.0001C166.302 15.8157 166.399 15.5727 166.4 15.3201C166.406 15.1782 166.376 15.0369 166.311 14.9106C166.246 14.7842 166.149 14.6771 166.03 14.6001C165.821 14.4603 165.569 14.4 165.32 14.4301H164V16.2901H165.24ZM166.42 19.0601L165.42 16.8201H164V19.0601H163.35V13.8801H165.35C165.766 13.8502 166.181 13.9592 166.53 14.1901C166.699 14.3281 166.837 14.5018 166.932 14.6988C167.027 14.8958 167.077 15.1114 167.08 15.3301C167.087 15.6321 166.993 15.9277 166.811 16.1691C166.63 16.4106 166.372 16.5836 166.08 16.6601L167.08 19.0601H166.42Z" fill="#231815"/>
<path d="M165 12.9999C164.3 12.9999 163.615 13.2076 163.033 13.5965C162.451 13.9855 161.997 14.5384 161.729 15.1852C161.461 15.8321 161.391 16.5439 161.528 17.2306C161.665 17.9173 162.002 18.548 162.497 19.0431C162.992 19.5382 163.623 19.8753 164.309 20.0119C164.996 20.1485 165.708 20.0784 166.355 19.8105C167.001 19.5425 167.554 19.0888 167.943 18.5067C168.332 17.9245 168.54 17.2401 168.54 16.5399C168.541 16.0747 168.451 15.6138 168.273 15.1837C168.096 14.7536 167.835 14.3628 167.506 14.0338C167.177 13.7049 166.786 13.4442 166.356 13.2667C165.926 13.0893 165.465 12.9986 165 12.9999ZM169.08 16.5299C169.078 17.3365 168.837 18.1243 168.387 18.7939C167.938 19.4636 167.3 19.985 166.554 20.2922C165.809 20.5995 164.989 20.6789 164.198 20.5203C163.407 20.3618 162.681 19.9724 162.111 19.4014C161.542 18.8304 161.154 18.1034 160.998 17.3122C160.841 16.5211 160.922 15.7012 161.231 14.9563C161.541 14.2114 162.063 13.5747 162.734 13.1269C163.405 12.679 164.193 12.4399 165 12.4399C165.537 12.4399 166.068 12.5458 166.564 12.7515C167.059 12.9571 167.509 13.2586 167.888 13.6385C168.267 14.0184 168.568 14.4694 168.772 14.9655C168.977 15.4617 169.081 15.9933 169.08 16.5299Z" fill="#231815"/>
<path d="M195.439 8.43994V54.5699" stroke="#231815" stroke-width="0.75" stroke-miterlimit="10"/>
</svg>
