<svg width="24" height="29" viewBox="0 0 24 29" fill="none" xmlns="http://www.w3.org/2000/svg">
<path fill-rule="evenodd" clip-rule="evenodd" d="M13.714 9.35718C13.9414 9.35718 14.1594 9.44748 14.3201 9.60823C14.4809 9.76897 14.5712 9.98699 14.5712 10.2143V16.7166L16.5358 14.7503C16.6967 14.5894 16.915 14.499 17.1426 14.499C17.3702 14.499 17.5885 14.5894 17.7495 14.7503C17.9104 14.9113 18.0008 15.1296 18.0008 15.3572C18.0008 15.5848 17.9104 15.8031 17.7495 15.964L14.3209 19.3926C14.2413 19.4724 14.1467 19.5358 14.0426 19.579C13.9384 19.6222 13.8268 19.6444 13.714 19.6444C13.6013 19.6444 13.4897 19.6222 13.3855 19.579C13.2814 19.5358 13.1868 19.4724 13.1072 19.3926L9.67861 15.964C9.59892 15.8843 9.5357 15.7897 9.49257 15.6856C9.44944 15.5815 9.42725 15.4699 9.42725 15.3572C9.42725 15.2445 9.44944 15.1329 9.49257 15.0287C9.5357 14.9246 9.59892 14.83 9.67861 14.7503C9.83956 14.5894 10.0579 14.499 10.2855 14.499C10.3982 14.499 10.5098 14.5212 10.6139 14.5643C10.718 14.6074 10.8126 14.6706 10.8923 14.7503L12.8569 16.7166V10.2143C12.8569 9.98699 12.9472 9.76897 13.108 9.60823C13.2687 9.44748 13.4867 9.35718 13.714 9.35718Z" fill="#10325A"/>
<path d="M3.42857 0.785767H20.5714C21.4807 0.785767 22.3528 1.14699 22.9958 1.78997C23.6388 2.43295 24 3.30502 24 4.21434V24.7858C24 25.6951 23.6388 26.5671 22.9958 27.2101C22.3528 27.8531 21.4807 28.2143 20.5714 28.2143H3.42857C2.51926 28.2143 1.64719 27.8531 1.00421 27.2101C0.361224 26.5671 0 25.6951 0 24.7858V23.0715H1.71429V24.7858C1.71429 25.2404 1.8949 25.6765 2.21639 25.9979C2.53788 26.3194 2.97391 26.5001 3.42857 26.5001H20.5714C21.0261 26.5001 21.4621 26.3194 21.7836 25.9979C22.1051 25.6765 22.2857 25.2404 22.2857 24.7858V4.21434C22.2857 3.75968 22.1051 3.32365 21.7836 3.00215C21.4621 2.68066 21.0261 2.50005 20.5714 2.50005H3.42857C2.97391 2.50005 2.53788 2.68066 2.21639 3.00215C1.8949 3.32365 1.71429 3.75968 1.71429 4.21434V5.92862H0V4.21434C0 3.30502 0.361224 2.43295 1.00421 1.78997C1.64719 1.14699 2.51926 0.785767 3.42857 0.785767Z" fill="#10325A"/>
<path d="M1.71429 9.35711V8.49997C1.71429 8.27264 1.80459 8.05462 1.96534 7.89387C2.12608 7.73313 2.3441 7.64282 2.57143 7.64282C2.79876 7.64282 3.01677 7.73313 3.17752 7.89387C3.33827 8.05462 3.42857 8.27264 3.42857 8.49997V9.35711H4.28571C4.51304 9.35711 4.73106 9.44741 4.89181 9.60816C5.05255 9.7689 5.14286 9.98692 5.14286 10.2143C5.14286 10.4416 5.05255 10.6596 4.89181 10.8203C4.73106 10.9811 4.51304 11.0714 4.28571 11.0714H0.857143C0.629814 11.0714 0.411797 10.9811 0.251051 10.8203C0.0903059 10.6596 0 10.4416 0 10.2143C0 9.98692 0.0903059 9.7689 0.251051 9.60816C0.411797 9.44741 0.629814 9.35711 0.857143 9.35711H1.71429ZM1.71429 14.5V13.6428C1.71429 13.4155 1.80459 13.1975 1.96534 13.0367C2.12608 12.876 2.3441 12.7857 2.57143 12.7857C2.79876 12.7857 3.01677 12.876 3.17752 13.0367C3.33827 13.1975 3.42857 13.4155 3.42857 13.6428V14.5H4.28571C4.51304 14.5 4.73106 14.5903 4.89181 14.751C5.05255 14.9118 5.14286 15.1298 5.14286 15.3571C5.14286 15.5844 5.05255 15.8025 4.89181 15.9632C4.73106 16.1239 4.51304 16.2143 4.28571 16.2143H0.857143C0.629814 16.2143 0.411797 16.1239 0.251051 15.9632C0.0903059 15.8025 0 15.5844 0 15.3571C0 15.1298 0.0903059 14.9118 0.251051 14.751C0.411797 14.5903 0.629814 14.5 0.857143 14.5H1.71429ZM1.71429 19.6428V18.7857C1.71429 18.5584 1.80459 18.3403 1.96534 18.1796C2.12608 18.0188 2.3441 17.9285 2.57143 17.9285C2.79876 17.9285 3.01677 18.0188 3.17752 18.1796C3.33827 18.3403 3.42857 18.5584 3.42857 18.7857V19.6428H4.28571C4.51304 19.6428 4.73106 19.7331 4.89181 19.8939C5.05255 20.0546 5.14286 20.2726 5.14286 20.5C5.14286 20.7273 5.05255 20.9453 4.89181 21.1061C4.73106 21.2668 4.51304 21.3571 4.28571 21.3571H0.857143C0.629814 21.3571 0.411797 21.2668 0.251051 21.1061C0.0903059 20.9453 0 20.7273 0 20.5C0 20.2726 0.0903059 20.0546 0.251051 19.8939C0.411797 19.7331 0.629814 19.6428 0.857143 19.6428H1.71429Z" fill="#10325A"/>
</svg>
