<svg width="24" height="26" viewBox="0 0 24 26" fill="none" xmlns="http://www.w3.org/2000/svg">
<path fill-rule="evenodd" clip-rule="evenodd" d="M12.7998 8C13.012 8 13.2155 8.08429 13.3655 8.23431C13.5156 8.38434 13.5998 8.58783 13.5998 8.8V14.8688L15.4334 13.0336C15.5837 12.8834 15.7874 12.799 15.9998 12.799C16.2123 12.799 16.416 12.8834 16.5662 13.0336C16.7165 13.1838 16.8008 13.3876 16.8008 13.6C16.8008 13.8124 16.7165 14.0162 16.5662 14.1664L13.3662 17.3664C13.2919 17.4409 13.2036 17.5 13.1065 17.5403C13.0093 17.5807 12.9051 17.6014 12.7998 17.6014C12.6946 17.6014 12.5904 17.5807 12.4932 17.5403C12.396 17.5 12.3078 17.4409 12.2334 17.3664L9.03344 14.1664C8.95906 14.092 8.90006 14.0037 8.8598 13.9065C8.81955 13.8094 8.79883 13.7052 8.79883 13.6C8.79883 13.4948 8.81955 13.3906 8.8598 13.2935C8.90006 13.1963 8.95906 13.108 9.03344 13.0336C9.18366 12.8834 9.3874 12.799 9.59984 12.799C9.70503 12.799 9.80919 12.8197 9.90637 12.86C10.0036 12.9002 10.0919 12.9592 10.1662 13.0336L11.9998 14.8688V8.8C11.9998 8.58783 12.0841 8.38434 12.2342 8.23431C12.3842 8.08429 12.5877 8 12.7998 8Z" fill="#898989"/>
<path d="M4.8001 0H20.8001C21.6488 0 22.4627 0.337142 23.0628 0.937258C23.663 1.53737 24.0001 2.35131 24.0001 3.2V22.4C24.0001 23.2487 23.663 24.0626 23.0628 24.6627C22.4627 25.2629 21.6488 25.6 20.8001 25.6H4.8001C3.95141 25.6 3.13747 25.2629 2.53736 24.6627C1.93724 24.0626 1.6001 23.2487 1.6001 22.4V20.8H3.2001V22.4C3.2001 22.8243 3.36867 23.2313 3.66873 23.5314C3.96879 23.8314 4.37575 24 4.8001 24H20.8001C21.2244 24 21.6314 23.8314 21.9315 23.5314C22.2315 23.2313 22.4001 22.8243 22.4001 22.4V3.2C22.4001 2.77565 22.2315 2.36869 21.9315 2.06863C21.6314 1.76857 21.2244 1.6 20.8001 1.6H4.8001C4.37575 1.6 3.96879 1.76857 3.66873 2.06863C3.36867 2.36869 3.2001 2.77565 3.2001 3.2V4.8H1.6001V3.2C1.6001 2.35131 1.93724 1.53737 2.53736 0.937258C3.13747 0.337142 3.95141 0 4.8001 0Z" fill="#898989"/>
<path d="M1.6 8.00015V7.20015C1.6 6.98797 1.68429 6.78449 1.83431 6.63446C1.98434 6.48443 2.18783 6.40015 2.4 6.40015C2.61217 6.40015 2.81566 6.48443 2.96569 6.63446C3.11571 6.78449 3.2 6.98797 3.2 7.20015V8.00015H4C4.21217 8.00015 4.41566 8.08443 4.56569 8.23446C4.71571 8.38449 4.8 8.58797 4.8 8.80015C4.8 9.01232 4.71571 9.2158 4.56569 9.36583C4.41566 9.51586 4.21217 9.60015 4 9.60015H0.8C0.587827 9.60015 0.384344 9.51586 0.234315 9.36583C0.0842855 9.2158 0 9.01232 0 8.80015C0 8.58797 0.0842855 8.38449 0.234315 8.23446C0.384344 8.08443 0.587827 8.00015 0.8 8.00015H1.6ZM1.6 12.8001V12.0001C1.6 11.788 1.68429 11.5845 1.83431 11.4345C1.98434 11.2844 2.18783 11.2001 2.4 11.2001C2.61217 11.2001 2.81566 11.2844 2.96569 11.4345C3.11571 11.5845 3.2 11.788 3.2 12.0001V12.8001H4C4.21217 12.8001 4.41566 12.8844 4.56569 13.0345C4.71571 13.1845 4.8 13.388 4.8 13.6001C4.8 13.8123 4.71571 14.0158 4.56569 14.1658C4.41566 14.3159 4.21217 14.4001 4 14.4001H0.8C0.587827 14.4001 0.384344 14.3159 0.234315 14.1658C0.0842855 14.0158 0 13.8123 0 13.6001C0 13.388 0.0842855 13.1845 0.234315 13.0345C0.384344 12.8844 0.587827 12.8001 0.8 12.8001H1.6ZM1.6 17.6001V16.8001C1.6 16.588 1.68429 16.3845 1.83431 16.2345C1.98434 16.0844 2.18783 16.0001 2.4 16.0001C2.61217 16.0001 2.81566 16.0844 2.96569 16.2345C3.11571 16.3845 3.2 16.588 3.2 16.8001V17.6001H4C4.21217 17.6001 4.41566 17.6844 4.56569 17.8345C4.71571 17.9845 4.8 18.188 4.8 18.4001C4.8 18.6123 4.71571 18.8158 4.56569 18.9658C4.41566 19.1159 4.21217 19.2001 4 19.2001H0.8C0.587827 19.2001 0.384344 19.1159 0.234315 18.9658C0.0842855 18.8158 0 18.6123 0 18.4001C0 18.188 0.0842855 17.9845 0.234315 17.8345C0.384344 17.6844 0.587827 17.6001 0.8 17.6001H1.6Z" fill="#898989"/>
</svg>
