<svg width="272" height="378" viewBox="0 0 272 378" fill="none" xmlns="http://www.w3.org/2000/svg">
<path d="M-47 183.814C-47 132.819 -33.2738 93.3477 -5.82139 64.8248C21.631 36.5901 59.95 22.1846 108.85 22.1846C159.179 22.1846 197.784 36.0138 224.951 63.9605C252.117 91.9071 265.843 130.802 265.843 180.933C265.843 217.523 259.838 247.198 248.113 270.535C236.103 293.872 218.945 312.023 196.64 324.988C174.049 337.953 146.311 344.579 112.567 344.579C78.5376 344.579 50.2273 339.105 27.9222 327.869C5.61708 316.633 -12.3986 299.058 -26.4107 274.569C-40.1369 250.656 -47 220.404 -47 183.814ZM58.2342 184.39C58.2342 215.794 62.8097 238.555 71.9605 252.384C81.1113 266.214 93.6936 273.128 109.422 273.128C125.721 273.128 138.304 266.502 147.169 252.96C156.033 239.419 160.609 215.218 160.609 180.357C160.609 150.97 156.033 129.649 146.597 116.108C137.446 102.567 124.578 95.6525 108.85 95.6525C93.6936 95.6525 81.3972 102.567 72.2464 116.396C62.8096 129.65 58.2342 152.41 58.2342 184.39Z" fill="#F2F2F2"/>
<path d="M253.26 52.7242C243.251 52.7242 235.244 44.6571 235.244 34.5733C235.244 24.4894 243.251 16.4224 253.26 16.4224C263.269 16.4224 271.275 24.4894 271.275 34.5733C271.275 44.369 263.269 52.7242 253.26 52.7242ZM253.26 17.8629C244.395 17.8629 236.96 25.3538 236.96 34.2852C236.96 43.2166 244.395 50.7074 253.26 50.7074C262.125 50.7074 269.56 43.2166 269.56 34.2852C269.56 25.3538 262.411 17.8629 253.26 17.8629Z" fill="#F2F2F2"/>
<path d="M248.398 25.0659H255.833C256.977 25.0659 257.835 25.354 258.407 25.6421C259.55 26.2184 260.122 27.3708 260.122 29.0995C260.122 30.54 259.836 31.6924 258.979 32.2687C258.121 32.8449 256.977 33.133 255.547 33.133H248.398V25.0659ZM248.398 45.5217V35.726H255.547C256.691 35.726 257.835 35.726 258.407 36.0141C259.55 36.5903 260.122 37.4546 260.122 38.8952L260.408 42.6406C260.408 43.5049 260.408 44.0812 260.694 44.3693C260.694 44.6574 260.98 44.9455 260.98 45.2336H264.698V44.9455C264.126 44.6574 263.84 44.3693 263.84 43.5049C263.84 43.2168 263.554 42.3525 263.554 41.4882V38.319C263.554 36.8784 263.268 36.0141 262.696 35.4379C262.124 34.8616 261.552 34.2854 260.694 33.9973C261.838 33.4211 262.41 32.8449 262.982 31.9805C263.554 31.1162 263.84 29.9638 263.84 28.5232C263.84 25.9302 262.696 24.2016 260.694 23.0492C259.55 22.4729 258.121 22.1848 256.405 22.1848H245.824V45.2336H248.398V45.5217Z" fill="#F2F2F2"/>
</svg>
