<svg width="319" height="378" viewBox="0 0 319 378" fill="none" xmlns="http://www.w3.org/2000/svg">
<path d="M0 183.814C0 132.819 13.7262 93.3477 41.1786 64.8248C68.631 36.5901 106.95 22.1846 155.85 22.1846C206.179 22.1846 244.784 36.0138 271.951 63.9605C299.117 91.9071 312.843 130.802 312.843 180.933C312.843 217.523 306.838 247.198 295.113 270.535C283.103 293.872 265.945 312.023 243.64 324.988C221.049 337.953 193.311 344.579 159.567 344.579C125.538 344.579 97.2273 339.105 74.9222 327.869C52.6171 316.633 34.6014 299.058 20.5893 274.569C6.86305 250.656 0 220.404 0 183.814ZM105.234 184.39C105.234 215.794 109.81 238.555 118.96 252.384C128.111 266.214 140.694 273.128 156.422 273.128C172.721 273.128 185.304 266.502 194.169 252.96C203.033 239.419 207.609 215.218 207.609 180.357C207.609 150.97 203.033 129.649 193.597 116.108C184.446 102.567 171.578 95.6525 155.85 95.6525C140.694 95.6525 128.397 102.567 119.246 116.396C109.81 129.65 105.234 152.41 105.234 184.39Z" fill="#F2F2F2"/>
<path d="M300.26 52.7242C290.251 52.7242 282.244 44.6571 282.244 34.5733C282.244 24.4894 290.251 16.4224 300.26 16.4224C310.269 16.4224 318.275 24.4894 318.275 34.5733C318.275 44.369 310.269 52.7242 300.26 52.7242ZM300.26 17.8629C291.395 17.8629 283.96 25.3538 283.96 34.2852C283.96 43.2166 291.395 50.7074 300.26 50.7074C309.125 50.7074 316.56 43.2166 316.56 34.2852C316.56 25.3538 309.411 17.8629 300.26 17.8629Z" fill="#F2F2F2"/>
<path d="M295.398 25.0659H302.833C303.977 25.0659 304.835 25.354 305.407 25.6421C306.55 26.2184 307.122 27.3708 307.122 29.0995C307.122 30.54 306.836 31.6924 305.979 32.2687C305.121 32.8449 303.977 33.133 302.547 33.133H295.398V25.0659ZM295.398 45.5217V35.726H302.547C303.691 35.726 304.835 35.726 305.407 36.0141C306.55 36.5903 307.122 37.4546 307.122 38.8952L307.408 42.6406C307.408 43.5049 307.408 44.0812 307.694 44.3693C307.694 44.6574 307.98 44.9455 307.98 45.2336H311.698V44.9455C311.126 44.6574 310.84 44.3693 310.84 43.5049C310.84 43.2168 310.554 42.3525 310.554 41.4882V38.319C310.554 36.8784 310.268 36.0141 309.696 35.4379C309.124 34.8616 308.552 34.2854 307.694 33.9973C308.838 33.4211 309.41 32.8449 309.982 31.9805C310.554 31.1162 310.84 29.9638 310.84 28.5232C310.84 25.9302 309.696 24.2016 307.694 23.0492C306.55 22.4729 305.121 22.1848 303.405 22.1848H292.824V45.2336H295.398V45.5217Z" fill="#F2F2F2"/>
</svg>
