<svg width="58" height="58" viewBox="0 0 58 58" fill="none" xmlns="http://www.w3.org/2000/svg">
<g clip-path="url(#clip0_104_804)">
<mask id="mask0_104_804" style="mask-type:luminance" maskUnits="userSpaceOnUse" x="0" y="0" width="58" height="58">
<path d="M58 0H0V58H58V0Z" fill="white"/>
</mask>
<g mask="url(#mask0_104_804)">
<path d="M49.5075 8.49406C44.2576 3.24449 37.0024 0 29.008 0C20.9976 0 13.7415 3.24449 8.49236 8.49406C3.25854 13.7454 0 21.0031 0 28.9997C0 37.0128 3.25854 44.2544 8.49236 49.5059C13.7415 54.7559 20.9976 58 29.008 58C37.0023 58 44.2576 54.7559 49.5075 49.5059C54.7408 44.2544 58 37.0128 58 28.9997C58 21.0031 54.7408 13.7454 49.5075 8.49406Z" fill="#10325A"/>
<path fill-rule="evenodd" clip-rule="evenodd" d="M31.3674 19.0449C30.7256 18.9637 29.9068 18.691 29.7625 19.542C29.6022 20.425 30.5167 20.3615 31.1108 20.4895C35.1564 21.3732 36.5368 22.8172 37.2111 26.7366C37.2425 26.8974 37.2595 27.1056 37.2595 27.2822C37.3075 27.7477 37.4197 28.1647 38.1259 28.0371C38.4794 27.9885 38.6077 27.7964 38.6238 27.5236C38.6719 27.2822 38.6238 26.9607 38.656 26.7366C38.6719 22.9619 35.381 19.542 31.3674 19.0449ZM31.7372 22.1435C31.3197 22.1435 30.902 22.1917 30.7417 22.6418C30.5006 23.284 30.9988 23.4601 31.4959 23.5402C33.1496 23.7816 34.0167 24.7453 34.1932 26.3506C34.2091 26.5753 34.2899 26.7522 34.3857 26.8975C34.5304 27.0564 34.7068 27.1217 34.9315 27.1056C35.0759 27.1056 35.1883 27.0564 35.2841 27.0089C35.5579 26.8001 35.6056 26.4148 35.5736 26.0132C35.6058 24.1996 33.5188 22.095 31.7372 22.1435ZM40.1166 34.8608C39.298 34.2178 38.3987 33.6403 37.5643 33.046C35.8467 31.8896 34.2735 31.7946 33.0053 33.6722C32.2829 34.7326 31.2711 34.7806 30.228 34.3144C27.3223 33.0459 25.0909 31.0711 23.7748 28.1647C23.5818 27.7152 23.4537 27.2822 23.4374 26.8807C23.3891 26.1097 23.7101 25.4361 24.5773 24.8411C25.2996 24.3757 26.0056 23.8135 25.9577 22.7697C25.8938 21.4051 22.522 16.8608 21.1743 16.3625C20.628 16.1697 20.0822 16.2023 19.5205 16.3625C16.3901 17.4057 15.1058 19.9119 16.3418 22.8817C17.0481 24.5524 17.8028 26.1097 18.7017 27.5705C22.5385 33.9937 28.1889 38.6828 35.4773 41.7494C35.9749 41.9582 36.5368 42.0548 36.8416 42.1189C38.8806 42.1509 41.256 40.2081 41.9465 38.3126C42.6209 36.4666 41.2086 35.7605 40.1166 34.8608ZM30.0839 17.2788C36.6167 18.2734 39.6188 21.324 40.4533 27.7639C40.4533 27.8284 40.4533 27.8766 40.4533 27.9234C40.502 28.5176 40.3897 29.2891 41.1759 29.2891C41.8667 29.3052 41.8988 28.7915 41.8988 28.2934C41.8667 28.1173 41.8667 27.9725 41.8667 27.8286C41.9468 21.7418 36.5369 16.0905 30.2764 15.8971C29.7786 15.9773 28.8153 15.5758 28.7354 16.6196C28.7188 17.3108 29.5375 17.2135 30.0839 17.2788Z" fill="white"/>
</g>
</g>
<defs>
<clipPath id="clip0_104_804">
<rect width="58" height="58" fill="white"/>
</clipPath>
</defs>
</svg>
