<svg width="388" height="378" viewBox="0 0 388 378" fill="none" xmlns="http://www.w3.org/2000/svg">
<path d="M133.771 291.19L211.396 275.549C213.207 289.105 218.123 299.532 225.885 308.396C235.977 316.999 248.655 322.473 265.215 322.473C277.635 322.473 287.208 319.605 293.677 313.61C300.404 307.874 303.768 301.097 303.768 293.276C303.768 285.977 300.663 279.459 294.195 273.724C287.726 267.989 272.977 262.514 249.949 257.301C211.913 248.698 185.003 237.228 168.702 223.15C152.401 208.812 144.121 190.825 144.121 168.666C144.121 154.068 148.261 140.512 156.541 127.477C164.821 114.703 177.5 104.537 194.06 96.9766C210.878 89.6772 233.648 86.0276 262.886 86.0276C298.593 86.0276 326.02 92.8055 344.65 106.101C363.539 119.396 373.112 135.559 378.287 156.414L296.782 174.923C294.712 162.149 290.055 153.025 283.068 147.29C276.082 141.554 266.509 138.687 254.348 138.687C244.256 138.687 236.753 140.772 231.578 145.204C226.403 149.375 223.815 154.85 223.815 160.846C223.815 165.277 225.885 169.448 230.025 173.098C234.165 176.748 243.739 180.397 259.005 183.526C296.782 191.868 323.95 199.949 340.251 208.552C356.553 216.894 368.455 227.321 375.959 239.834C383.462 252.348 387.085 266.164 387.085 281.545C387.085 299.532 382.168 316.217 372.077 331.597C362.245 346.978 348.273 358.448 330.419 366.269C312.566 374.09 290.055 378 262.886 378C215.277 378 182.157 368.876 164.045 350.367C145.933 331.858 138.688 319.345 133.771 291.19Z" fill="#FFF3F6"/>
<path d="M387.862 0H0V59.1765H387.862V0Z" fill="#FFF3F6"/>
</svg>
